SplineFontDB: 3.0
FontName: PuraleckaNarrow-Bold
FullName: Puralecka Narrow Bold
FamilyName: Puralecka Narrow
Weight: Bold
Copyright: Copyright (c) 2012-2014, Omnibus-Type (www.omnibus-type.com omnibus.type@gmail.com) with Reserved Font Name 'Puralecka'
Version: 001.004
ItalicAngle: 0
UnderlinePosition: -63
UnderlineWidth: 63
Ascent: 800
Descent: 200
InvalidEm: 0
sfntRevision: 0x00010106
LayerCount: 2
Layer: 0 0 "Back" 1
Layer: 1 0 "Fore" 0
XUID: [1021 191 1600663927 10614413]
FSType: 8
OS2Version: 3
OS2_WeightWidthSlopeOnly: 0
OS2_UseTypoMetrics: 1
CreationTime: 1417528913
ModificationTime: 1417561196
PfmFamily: 17
TTFWeight: 700
TTFWidth: 5
LineGap: 0
VLineGap: 0
Panose: 2 11 8 6 2 2 2 2 11 4
OS2TypoAscent: 1124
OS2TypoAOffset: 0
OS2TypoDescent: -510
OS2TypoDOffset: 0
OS2TypoLinegap: 0
OS2WinAscent: 1124
OS2WinAOffset: 0
OS2WinDescent: 510
OS2WinDOffset: 0
HheadAscent: 1124
HheadAOffset: 0
HheadDescent: -510
HheadDOffset: 0
OS2SubXSize: 821
OS2SubYSize: 758
OS2SubXOff: 0
OS2SubYOff: 95
OS2SupXSize: 821
OS2SupYSize: 758
OS2SupXOff: 0
OS2SupYOff: 442
OS2StrikeYSize: 63
OS2StrikeYPos: 352
OS2CapHeight: 0
OS2XHeight: 0
OS2Vendor: 'OMNI'
OS2CodePages: 20000093.00000000
OS2UnicodeRanges: 00008007.00000000.00000000.00000000
Lookup: 1 0 0 "'aalt' Access All Alternates lookup 0" { "'aalt' Access All Alternates lookup 0 subtable"  } ['aalt' ('DFLT' <'dflt' > 'dev2' <'MAR ' 'NEP ' 'dflt' > 'deva' <'MAR ' 'NEP ' 'dflt' > 'grek' <'dflt' > 'latn' <'CAT ' 'MOL ' 'ROM ' 'dflt' > ) ]
Lookup: 3 0 0 "'aalt' Access All Alternates lookup 1" { "'aalt' Access All Alternates lookup 1 subtable"  } ['aalt' ('DFLT' <'dflt' > 'dev2' <'MAR ' 'NEP ' 'dflt' > 'deva' <'MAR ' 'NEP ' 'dflt' > 'grek' <'dflt' > 'latn' <'CAT ' 'MOL ' 'ROM ' 'dflt' > ) ]
Lookup: 4 0 0 "Ligature Substitution lookup 2" { "Ligature Substitution lookup 2 subtable"  } []
Lookup: 4 0 0 "Ligature Substitution lookup 3" { "Ligature Substitution lookup 3 subtable"  } []

StartChar: .notdef
Encoding: 65536 -1 0
Width: 558
VWidth: 1263
Flags: W
HStem: 0 56<90 469> 726 56<90 469>
VStem: 0 56<106 676> 503 55<106 676>
LayerCount: 2
Back
Fore
SplineSet
0 782 m 1
 558 782 l 1
 558 0 l 1
 0 0 l 1
 0 782 l 1
469 726 m 1
 90 726 l 1
 279 441 l 1
 469 726 l 1
56 676 m 1
 56 106 l 1
 245 390 l 1
 56 676 l 1
503 676 m 1
 313 390 l 1
 503 106 l 1
 503 676 l 1
279 341 m 1
 90 56 l 1
 469 56 l 1
 279 341 l 1
EndSplineSet
EndChar

StartChar: A
Encoding: 65 65 2
Width: 660
VWidth: 1263
GlyphClass: 2
Flags: W
HStem: 0 21G<0 145 507.733 659> 150 128<224 428> 745 20G<239.569 419.431>
AnchorPoint: "Anchor-1" 0 0 basechar 0
AnchorPoint: "Anchor-0" 331 765 basechar 0
LayerCount: 2
Back
Fore
SplineSet
514 0 m 1
 467 150 l 1
 184 150 l 1
 139 0 l 1
 0 0 l 1
 246 765 l 1
 413 765 l 1
 659 0 l 1
 514 0 l 1
333.204356325 636.414297682 m 1
 224 278 l 1
 428 278 l 1
 351 534 l 1
 338 573 333.204356325 636.414297682 333.204356325 636.414297682 c 1
EndSplineSet
Substitution2: "Single Substitution lookup 40 subtable" ordfeminine
Substitution2: "'aalt' Access All Alternates lookup 0 subtable" ordfeminine
Position2: "'cpsp' Capital Spacing lookup 0 subtable" dx=6 dy=0 dh=13 dv=0
EndChar

StartChar: Aacute
Encoding: 193 193 3
Width: 660
VWidth: 1263
GlyphClass: 2
Flags: W
HStem: 0 21G<0 145 507.733 659> 150 128<224 428> 745 20G<239.569 419.431>
LayerCount: 2
Back
Fore
SplineSet
364 839 m 1
 254 839 l 1
 350 986 l 1
 484 986 l 1
 364 839 l 1
514 0 m 1
 467 150 l 1
 184 150 l 1
 139 0 l 1
 0 0 l 1
 246 765 l 1
 413 765 l 1
 659 0 l 1
 514 0 l 1
333.204356325 636.414297682 m 1
 224 278 l 1
 428 278 l 1
 351 534 l 1
 338 573 333.204356325 636.414297682 333.204356325 636.414297682 c 1
EndSplineSet
Position2: "'cpsp' Capital Spacing lookup 0 subtable" dx=6 dy=0 dh=13 dv=0
EndChar

StartChar: Abreve
Encoding: 258 258 4
Width: 660
VWidth: 1263
GlyphClass: 2
Flags: W
HStem: 0 21G<0 145 507.733 659> 150 128<224 428> 745 20G<239.569 419.431> 866 83<274.477 388.824>
LayerCount: 2
Back
Fore
SplineSet
480 986 m 1
 480 929 422 866 330 866 c 0
 238 866 182 929 182 986 c 1
 265 986 l 1
 268 970 293 949 330 949 c 0
 369 949 396 970 397 986 c 1
 480 986 l 1
514 0 m 1
 467 150 l 1
 184 150 l 1
 139 0 l 1
 0 0 l 1
 246 765 l 1
 413 765 l 1
 659 0 l 1
 514 0 l 1
333.204356325 636.414297682 m 1
 224 278 l 1
 428 278 l 1
 351 534 l 1
 338 573 333.204356325 636.414297682 333.204356325 636.414297682 c 1
EndSplineSet
Position2: "'cpsp' Capital Spacing lookup 0 subtable" dx=6 dy=0 dh=13 dv=0
EndChar

StartChar: Acircumflex
Encoding: 194 194 5
Width: 660
VWidth: 1263
GlyphClass: 2
Flags: W
HStem: 0 21G<0 145 507.733 659> 150 128<224 428> 745 20G<239.569 419.431>
LayerCount: 2
Back
Fore
SplineSet
380 835 m 1
 331 912 l 1
 280 835 l 1
 181 835 l 1
 277 986 l 1
 386 986 l 1
 481 835 l 1
 380 835 l 1
514 0 m 1
 467 150 l 1
 184 150 l 1
 139 0 l 1
 0 0 l 1
 246 765 l 1
 413 765 l 1
 659 0 l 1
 514 0 l 1
333.204356325 636.414297682 m 1
 224 278 l 1
 428 278 l 1
 351 534 l 1
 338 573 333.204356325 636.414297682 333.204356325 636.414297682 c 1
EndSplineSet
Position2: "'cpsp' Capital Spacing lookup 0 subtable" dx=6 dy=0 dh=13 dv=0
EndChar

StartChar: Adieresis
Encoding: 196 196 6
Width: 660
VWidth: 1263
GlyphClass: 2
Flags: W
HStem: 0 21G<0 145 507.733 659> 150 128<224 428> 745 20G<239.569 419.431> 864 122<178 289 371 485>
VStem: 178 111<864 986> 371 114<864 986>
LayerCount: 2
Back
Fore
SplineSet
178 864 m 1
 178 986 l 1
 289 986 l 1
 289 864 l 1
 178 864 l 1
371 864 m 1
 371 986 l 1
 485 986 l 1
 485 864 l 1
 371 864 l 1
514 0 m 1
 467 150 l 1
 184 150 l 1
 139 0 l 1
 0 0 l 1
 246 765 l 1
 413 765 l 1
 659 0 l 1
 514 0 l 1
333.204356325 636.414297682 m 1
 224 278 l 1
 428 278 l 1
 351 534 l 1
 338 573 333.204356325 636.414297682 333.204356325 636.414297682 c 1
EndSplineSet
Position2: "'cpsp' Capital Spacing lookup 0 subtable" dx=6 dy=0 dh=13 dv=0
EndChar

StartChar: Agrave
Encoding: 192 192 7
Width: 660
VWidth: 1263
GlyphClass: 2
Flags: W
HStem: 0 21G<0 145 507.733 659> 150 128<224 428> 745 20G<239.569 419.431>
LayerCount: 2
Back
Fore
SplineSet
297 839 m 1
 175.524590164 984.770491803 l 1
 312 984.770491803 l 1
 408 839 l 1
 297 839 l 1
514 0 m 1
 467 150 l 1
 184 150 l 1
 139 0 l 1
 0 0 l 1
 246 765 l 1
 413 765 l 1
 659 0 l 1
 514 0 l 1
333.204356325 636.414297682 m 1
 224 278 l 1
 428 278 l 1
 351 534 l 1
 338 573 333.204356325 636.414297682 333.204356325 636.414297682 c 1
EndSplineSet
Position2: "'cpsp' Capital Spacing lookup 0 subtable" dx=6 dy=0 dh=13 dv=0
EndChar

StartChar: Amacron
Encoding: 256 256 8
Width: 660
VWidth: 1263
GlyphClass: 2
Flags: W
HStem: 0 21G<0 145 507.733 659> 150 128<224 428> 745 20G<239.569 419.431> 847 98<188 474>
LayerCount: 2
Back
Fore
SplineSet
188 847 m 1
 188 945 l 1
 474 945 l 1
 474 847 l 1
 188 847 l 1
514 0 m 1
 467 150 l 1
 184 150 l 1
 139 0 l 1
 0 0 l 1
 246 765 l 1
 413 765 l 1
 659 0 l 1
 514 0 l 1
333.204356325 636.414297682 m 1
 224 278 l 1
 428 278 l 1
 351 534 l 1
 338 573 333.204356325 636.414297682 333.204356325 636.414297682 c 1
EndSplineSet
Position2: "'cpsp' Capital Spacing lookup 0 subtable" dx=6 dy=0 dh=13 dv=0
EndChar

StartChar: Aogonek
Encoding: 260 260 9
Width: 660
VWidth: 1263
GlyphClass: 2
Flags: W
HStem: -212 77<634.793 699.829> -197 62<634.793 701> 0 21G<0 145> 150 128<224 428> 745 20G<239.569 419.431>
VStem: 517 109<-125.867 -28.8127>
LayerCount: 2
Back
Fore
SplineSet
701 -135 m 1x7c
 701 -197 l 1x7c
 676 -207 652 -212 628 -212 c 0
 576 -212 517 -188 517 -111 c 0
 517 -62 537 -27 558 0 c 1
 514 0 l 1
 467 150 l 1
 184 150 l 1
 139 0 l 1
 0 0 l 1
 246 765 l 1
 413 765 l 1
 659 0 l 1
 646 -13 626 -43 626 -78 c 0
 626 -107 640 -135 677 -135 c 2xbc
 701 -135 l 1x7c
428 278 m 1
 320.405793046 635.715804939 l 1
 320.405793046 635.715804939 313 569 302 534 c 2
 224 278 l 1
 428 278 l 1
EndSplineSet
Position2: "'cpsp' Capital Spacing lookup 0 subtable" dx=6 dy=0 dh=13 dv=0
EndChar

StartChar: Aring
Encoding: 197 197 10
Width: 660
VWidth: 1263
GlyphClass: 2
Flags: W
HStem: 0 21G<0 145 507.733 659> 150 128<224 428> 745 20G<239.569 419.431> 805 56<289.164 371.039> 964 55<288.953 371.039>
VStem: 224 55<871.079 954.047> 381 57<869.94 954.19>
LayerCount: 2
Back
Fore
SplineSet
331 1019 m 0
 390 1019 438 970 438 912 c 0
 438 853 390 805 331 805 c 0
 273 805 224 851 224 912 c 0
 224 971 272 1019 331 1019 c 0
331 964 m 0
 302 964 279 941 279 912 c 0
 279 883 302 861 331 861 c 0
 359 861 381 883 381 912 c 0
 381 941 359 964 331 964 c 0
514 0 m 1
 467 150 l 1
 184 150 l 1
 139 0 l 1
 0 0 l 1
 246 765 l 1
 413 765 l 1
 659 0 l 1
 514 0 l 1
333.204356325 636.414297682 m 1
 224 278 l 1
 428 278 l 1
 351 534 l 1
 338 573 333.204356325 636.414297682 333.204356325 636.414297682 c 1
EndSplineSet
Position2: "'cpsp' Capital Spacing lookup 0 subtable" dx=6 dy=0 dh=13 dv=0
EndChar

StartChar: Aringacute
Encoding: 506 506 11
Width: 660
VWidth: 1263
GlyphClass: 2
Flags: W
HStem: 0 21G<0 145 507.733 659> 150 128<224 428> 861 56<288.09 372.609>
VStem: 381 57<771.348 853.035>
LayerCount: 2
Back
Fore
SplineSet
496.484215719 1068 m 1
 393 947 l 1
 283 947 l 1
 361 1068 l 1
 496.484215719 1068 l 1
331 917 m 0
 390 917 438 869 438 813 c 0
 438 790 429 769 418 751 c 1
 659 0 l 1
 514 0 l 1
 467 150 l 1
 184 150 l 1
 139 0 l 1
 0 0 l 1
 242 753 l 1
 193.313370615 821.83293069 248.798884789 920.422312381 331 917 c 0
331 861 m 0
 302 861 279 841 279 813 c 0
 279 784 302 763 331 763 c 0
 359 763 381 784 381 813 c 0
 381 841 359 861 331 861 c 0
333.204356325 636.414297682 m 1
 224 278 l 1
 428 278 l 1
 351 534 l 1
 338 573 333.204356325 636.414297682 333.204356325 636.414297682 c 1
EndSplineSet
Position2: "'cpsp' Capital Spacing lookup 0 subtable" dx=6 dy=0 dh=13 dv=0
EndChar

StartChar: Atilde
Encoding: 195 195 12
Width: 660
VWidth: 1263
GlyphClass: 2
Flags: W
HStem: 0 21G<0 145 507.733 659> 150 128<224 428> 745 20G<239.569 419.431> 850 95<328.853 438.216> 890 96<222.784 331.086>
VStem: 143 73<850 885.202> 445 73<950.426 986>
LayerCount: 2
Back
Fore
SplineSet
518 986 m 1xee
 518 924 486 850 408 850 c 0xf6
 354.434622406 849.183062315 311.751388248 889.053519299 260 890 c 0xee
 236 890 221 880 216 850 c 1
 143 850 l 1xf6
 143 911 175 986 253 986 c 0xee
 305.996163163 986.283599762 349.671792969 946.027631689 400 945 c 0xf6
 424 945 440 954 445 986 c 1
 518 986 l 1xee
514 0 m 1
 467 150 l 1
 184 150 l 1
 139 0 l 1
 0 0 l 1
 246 765 l 1
 413 765 l 1
 659 0 l 1
 514 0 l 1
333.204356325 636.414297682 m 1
 224 278 l 1
 428 278 l 1
 351 534 l 1
 338 573 333.204356325 636.414297682 333.204356325 636.414297682 c 1
EndSplineSet
Position2: "'cpsp' Capital Spacing lookup 0 subtable" dx=6 dy=0 dh=13 dv=0
EndChar

StartChar: AE
Encoding: 198 198 13
Width: 915
VWidth: 1263
GlyphClass: 2
Flags: W
HStem: 0 128<614 868> 150 128<226 432> 328 128<565 812> 639 126<489 861>
AnchorPoint: "Anchor-1" 0 0 basechar 0
AnchorPoint: "Anchor-0" 457 765 basechar 0
LayerCount: 2
Back
Fore
SplineSet
812 456 m 1
 812 328 l 1
 565 328 l 1
 614 128 l 1
 868 128 l 1
 868 0 l 1
 499 0 l 1
 462 150 l 1
 179 150 l 1
 124 0 l 1
 -9 0 l 1
 284 765 l 1
 861 765 l 1
 861 639 l 1
 489 639 l 1
 534 456 l 1
 812 456 l 1
353.494120191 612.804487422 m 1
 226 278 l 1
 432 278 l 1
 353.494120191 612.804487422 l 1
EndSplineSet
Position2: "'cpsp' Capital Spacing lookup 0 subtable" dx=6 dy=0 dh=13 dv=0
EndChar

StartChar: AEacute
Encoding: 508 508 14
Width: 915
VWidth: 1263
GlyphClass: 2
Flags: W
HStem: 0 128<614 868> 150 128<226 432> 328 128<565 812> 639 126<489 861>
LayerCount: 2
Back
Fore
SplineSet
612.475409836 986 m 1
 491 839 l 1
 380 839 l 1
 476 986 l 1
 612.475409836 986 l 1
812 456 m 1
 812 328 l 1
 565 328 l 1
 614 128 l 1
 868 128 l 1
 868 0 l 1
 499 0 l 1
 462 150 l 1
 179 150 l 1
 124 0 l 1
 -9 0 l 1
 284 765 l 1
 861 765 l 1
 861 639 l 1
 489 639 l 1
 534 456 l 1
 812 456 l 1
353.409218702 611.415435809 m 1
 226 278 l 1
 432 278 l 1
 353.409218702 611.415435809 l 1
EndSplineSet
Position2: "'cpsp' Capital Spacing lookup 0 subtable" dx=6 dy=0 dh=13 dv=0
EndChar

StartChar: B
Encoding: 66 66 15
Width: 660
VWidth: 1263
GlyphClass: 2
Flags: W
HStem: 0 128<210 442.025> 330 126<210 424.746> 639 126<210 429.86>
VStem: 67 143<128 330 456 639> 458 147<487.956 611.925> 476 147<160.31 291.98>
LayerCount: 2
Back
Fore
SplineSet
397 765 m 2xf4
 517 765 605 688 605 576 c 0xf8
 605 488 554 426 488 402 c 1
 488 398 l 1
 564 374 623 303 623 206 c 0
 623 77 520 0 397 0 c 2
 67 0 l 1
 67 765 l 1
 397 765 l 2xf4
357 456 m 2
 425 456 458 499 458 551 c 0
 458 609 421 639 364 639 c 2
 210 639 l 1
 210 456 l 1
 357 456 l 2
373 128 m 2
 432 128 476 161 476 224 c 0xf4
 476 283 441 330 366 330 c 2
 210 330 l 1
 210 128 l 1
 373 128 l 2
EndSplineSet
Position2: "'cpsp' Capital Spacing lookup 0 subtable" dx=6 dy=0 dh=13 dv=0
EndChar

StartChar: C
Encoding: 67 67 16
Width: 660
VWidth: 1263
GlyphClass: 2
Flags: W
HStem: -14 124<270.911 422.853> 657 122<265.777 414.38>
VStem: 38 148<216.516 549.345> 477 147<481 585.368> 485 139<181.489 284>
AnchorPoint: "Anchor-1" 331 0 basechar 0
AnchorPoint: "Anchor-0" 331 765 basechar 0
LayerCount: 2
Back
Fore
SplineSet
342 779 m 0xe8
 502 779 624 688 624 481 c 1
 477 481 l 1xf0
 477 600 423 657 342 657 c 0
 236 657 186 563 186 410 c 2
 186 355 l 2
 186 202 237 110 347 110 c 0
 429 110 485 165 485 284 c 1
 624 284 l 1
 624 82 505 -14 342 -14 c 0
 150 -14 38 113 38 383 c 0
 38 653 150 779 342 779 c 0xe8
EndSplineSet
Position2: "'cpsp' Capital Spacing lookup 0 subtable" dx=6 dy=0 dh=13 dv=0
EndChar

StartChar: Cacute
Encoding: 262 262 17
Width: 660
VWidth: 1263
GlyphClass: 2
Flags: W
HStem: -14 124<270.911 422.853> 657 122<265.777 414.38>
VStem: 38 148<216.516 549.345> 477 147<481 585.368> 485 139<181.489 284>
LayerCount: 2
Back
Fore
SplineSet
376 839 m 1xe0
 265 839 l 1
 361 986 l 1
 495 986 l 1
 376 839 l 1xe0
342 779 m 0
 502 779 624 688 624 481 c 1
 477 481 l 1xf0
 477 600 423 657 342 657 c 0
 236 657 186 563 186 410 c 2
 186 355 l 2
 186 202 237 110 347 110 c 0
 429 110 485 165 485 284 c 1
 624 284 l 1xe8
 624 82 505 -14 342 -14 c 0
 150 -14 38 113 38 383 c 0
 38 653 150 779 342 779 c 0
EndSplineSet
Position2: "'cpsp' Capital Spacing lookup 0 subtable" dx=6 dy=0 dh=13 dv=0
EndChar

StartChar: Ccaron
Encoding: 268 268 18
Width: 660
VWidth: 1263
GlyphClass: 2
Flags: W
HStem: -14 124<270.911 422.853> 657 122<265.777 414.38>
VStem: 38 148<216.516 549.345> 477 147<481 585.368> 485 139<181.489 284>
LayerCount: 2
Back
Fore
SplineSet
192 986 m 1xe0
 293 986 l 1
 342 909 l 1
 393 986 l 1
 493 986 l 1
 398 835 l 1
 288 835 l 1
 192 986 l 1xe0
342 779 m 0
 502 779 624 688 624 481 c 1
 477 481 l 1xf0
 477 600 423 657 342 657 c 0
 236 657 186 563 186 410 c 2
 186 355 l 2
 186 202 237 110 347 110 c 0
 429 110 485 165 485 284 c 1
 624 284 l 1xe8
 624 82 505 -14 342 -14 c 0
 150 -14 38 113 38 383 c 0
 38 653 150 779 342 779 c 0
EndSplineSet
Position2: "'cpsp' Capital Spacing lookup 0 subtable" dx=6 dy=0 dh=13 dv=0
EndChar

StartChar: Ccedilla
Encoding: 199 199 19
Width: 660
VWidth: 1263
GlyphClass: 2
Flags: W
HStem: -203 63<240.272 356.088> -195 55<239 330.589> -13 123<268.953 284 369 422.449> 657 122<265.777 414.38>
VStem: 38 148<211.933 549.345> 284 85<-40.1041 -11.0259> 359 96<-137.848 -87.7718> 477 147<481 585.368> 485 139<180.082 284>
LayerCount: 2
Back
Fore
SplineSet
342 779 m 0xbc
 502 779 624 688 624 481 c 1
 477 481 l 1xbd
 477 600 423 657 342 657 c 0
 236 657 186 563 186 410 c 2
 186 355 l 2
 186 202 237 110 347 110 c 0
 429 110 485 165 485 284 c 1
 624 284 l 1
 624 93 517 -3 369 -13 c 1
 369 -37 l 1xbc80
 417 -41 455 -61 455 -112 c 0
 455 -188 380 -203 332 -203 c 0xba
 302 -203 266 -200 239 -195 c 1
 239 -140 l 1x7a
 318 -140 l 2
 342 -140 359 -133 359 -112 c 0xba
 359 -94 350 -86 321 -86 c 2
 284 -86 l 1
 284 -10 l 1
 121 10 38 137 38 383 c 0
 38 653 150 779 342 779 c 0xbc
EndSplineSet
Position2: "'cpsp' Capital Spacing lookup 0 subtable" dx=6 dy=0 dh=13 dv=0
EndChar

StartChar: Ccircumflex
Encoding: 264 264 20
Width: 660
VWidth: 1263
GlyphClass: 2
Flags: W
HStem: -14 124<270.911 422.853> 657 122<265.777 414.38>
VStem: 38 148<216.516 549.345> 477 147<481 585.368> 485 139<181.489 284>
LayerCount: 2
Back
Fore
SplineSet
342 912 m 1xe0
 293 835 l 1
 192 835 l 1
 288 986 l 1
 398 986 l 1
 493 835 l 1
 393 835 l 1
 342 912 l 1xe0
342 779 m 0
 502 779 624 688 624 481 c 1
 477 481 l 1xf0
 477 600 423 657 342 657 c 0
 236 657 186 563 186 410 c 2
 186 355 l 2
 186 202 237 110 347 110 c 0
 429 110 485 165 485 284 c 1
 624 284 l 1xe8
 624 82 505 -14 342 -14 c 0
 150 -14 38 113 38 383 c 0
 38 653 150 779 342 779 c 0
EndSplineSet
Position2: "'cpsp' Capital Spacing lookup 0 subtable" dx=6 dy=0 dh=13 dv=0
EndChar

StartChar: Cdotaccent
Encoding: 266 266 21
Width: 660
VWidth: 1263
GlyphClass: 2
Flags: W
HStem: -14 124<270.911 422.853> 657 122<265.777 414.38> 858 128<283 402>
VStem: 38 148<216.516 549.345> 283 119<858 986> 477 147<481 585.368> 485 139<181.489 284>
LayerCount: 2
Back
Fore
SplineSet
283 986 m 1xf8
 402 986 l 1
 402 858 l 1
 283 858 l 1
 283 986 l 1xf8
342 779 m 0
 502 779 624 688 624 481 c 1
 477 481 l 1xfc
 477 600 423 657 342 657 c 0
 236 657 186 563 186 410 c 2
 186 355 l 2
 186 202 237 110 347 110 c 0
 429 110 485 165 485 284 c 1
 624 284 l 1xfa
 624 82 505 -14 342 -14 c 0
 150 -14 38 113 38 383 c 0
 38 653 150 779 342 779 c 0
EndSplineSet
Position2: "'cpsp' Capital Spacing lookup 0 subtable" dx=6 dy=0 dh=13 dv=0
EndChar

StartChar: D
Encoding: 68 68 22
Width: 660
VWidth: 1263
GlyphClass: 2
Flags: W
HStem: 0 128<210 384.029> 639 126<210 384.029>
VStem: 67 143<128 639> 476 147<240.345 538.026>
AnchorPoint: "Anchor-1" 0 0 basechar 0
AnchorPoint: "Anchor-0" 331 765 basechar 0
LayerCount: 2
Back
Fore
SplineSet
316 765 m 2
 507 765 623 640 623 394 c 0
 623 131 507 0 316 0 c 2
 67 0 l 1
 67 765 l 1
 316 765 l 2
303 128 m 2
 409 128 476 207 476 366 c 2
 476 422 l 2
 476 566 409 639 303 639 c 2
 210 639 l 1
 210 128 l 1
 303 128 l 2
EndSplineSet
Position2: "'cpsp' Capital Spacing lookup 0 subtable" dx=6 dy=0 dh=13 dv=0
EndChar

StartChar: Eth
Encoding: 208 208 23
Width: 660
VWidth: 1263
GlyphClass: 2
Flags: W
HStem: 0 128<210 384.029> 349 94<11 67 210 350> 639 126<210 384.029>
VStem: 67 143<128 349 443 639> 476 147<240.345 538.026>
LayerCount: 2
Back
Fore
SplineSet
67 765 m 1
 316 765 l 2
 507 765 623 640 623 394 c 0
 623 131 507 0 316 0 c 2
 67 0 l 1
 67 349 l 1
 11 349 l 1
 11 443 l 1
 67 443 l 1
 67 765 l 1
350 443 m 1
 350 349 l 1
 210 349 l 1
 210 128 l 1
 303 128 l 2
 409 128 476 207 476 366 c 2
 476 422 l 2
 476 566 409 639 303 639 c 2
 210 639 l 1
 210 443 l 1
 350 443 l 1
EndSplineSet
Position2: "'cpsp' Capital Spacing lookup 0 subtable" dx=6 dy=0 dh=13 dv=0
EndChar

StartChar: Dcaron
Encoding: 270 270 24
Width: 660
VWidth: 1263
GlyphClass: 2
Flags: W
HStem: 0 128<210 384.029> 639 126<210 384.029>
VStem: 67 143<128 639> 476 147<240.345 538.026>
LayerCount: 2
Back
Fore
SplineSet
133 986 m 1
 234 986 l 1
 284 909 l 1
 332 986 l 1
 433 986 l 1
 338 835 l 1
 229 835 l 1
 133 986 l 1
316 765 m 2
 507 765 623 640 623 394 c 0
 623 131 507 0 316 0 c 2
 67 0 l 1
 67 765 l 1
 316 765 l 2
303 128 m 2
 409 128 476 207 476 366 c 2
 476 422 l 2
 476 566 409 639 303 639 c 2
 210 639 l 1
 210 128 l 1
 303 128 l 2
EndSplineSet
Position2: "'cpsp' Capital Spacing lookup 0 subtable" dx=6 dy=0 dh=13 dv=0
EndChar

StartChar: Dcroat
Encoding: 272 272 25
Width: 660
VWidth: 1263
GlyphClass: 2
Flags: W
HStem: 0 128<210 384.029> 349 94<11 67 210 350> 639 126<210 384.029>
VStem: 67 143<128 349 443 639> 476 147<240.345 538.026>
LayerCount: 2
Back
Fore
SplineSet
67 765 m 1
 316 765 l 2
 507 765 623 640 623 394 c 0
 623 131 507 0 316 0 c 2
 67 0 l 1
 67 349 l 1
 11 349 l 1
 11 443 l 1
 67 443 l 1
 67 765 l 1
350 443 m 1
 350 349 l 1
 210 349 l 1
 210 128 l 1
 303 128 l 2
 409 128 476 207 476 366 c 2
 476 422 l 2
 476 566 409 639 303 639 c 2
 210 639 l 1
 210 443 l 1
 350 443 l 1
EndSplineSet
Position2: "'cpsp' Capital Spacing lookup 0 subtable" dx=6 dy=0 dh=13 dv=0
EndChar

StartChar: E
Encoding: 69 69 26
Width: 611
VWidth: 1263
GlyphClass: 2
Flags: W
HStem: 0 128<210 562> 328 128<210 505> 639 126<210 554>
VStem: 67 143<128 328 456 639>
AnchorPoint: "Anchor-1" 306 0 basechar 0
AnchorPoint: "Anchor-0" 306 765 basechar 0
LayerCount: 2
Back
Fore
SplineSet
554 765 m 1
 554 639 l 1
 210 639 l 1
 210 456 l 1
 505 456 l 1
 505 328 l 1
 210 328 l 1
 210 128 l 1
 562 128 l 1
 562 0 l 1
 67 0 l 1
 67 765 l 1
 554 765 l 1
EndSplineSet
Position2: "'cpsp' Capital Spacing lookup 0 subtable" dx=6 dy=0 dh=13 dv=0
EndChar

StartChar: Eacute
Encoding: 201 201 27
Width: 611
VWidth: 1263
GlyphClass: 2
Flags: W
HStem: 0 128<210 562> 328 128<210 505> 639 126<210 554>
VStem: 67 143<128 328 456 639>
LayerCount: 2
Back
Fore
SplineSet
340 839 m 1
 229 839 l 1
 325 986 l 1
 458 986 l 1
 340 839 l 1
210 639 m 1
 210 456 l 1
 505 456 l 1
 505 328 l 1
 210 328 l 1
 210 128 l 1
 562 128 l 1
 562 0 l 1
 67 0 l 1
 67 765 l 1
 554 765 l 1
 554 639 l 1
 210 639 l 1
EndSplineSet
Position2: "'cpsp' Capital Spacing lookup 0 subtable" dx=6 dy=0 dh=13 dv=0
EndChar

StartChar: Ebreve
Encoding: 276 276 28
Width: 611
VWidth: 1263
GlyphClass: 2
Flags: W
HStem: 0 128<210 562> 328 128<210 505> 639 126<210 554> 866 83<248.961 361.219>
VStem: 67 143<128 328 456 639>
LayerCount: 2
Back
Fore
SplineSet
455 986 m 1
 455 929 397 866 304 866 c 0
 213 866 157 929 157 986 c 1
 239 986 l 1
 243 970 267 949 304 949 c 0
 342 949 370 970 371 986 c 1
 455 986 l 1
554 765 m 1
 554 639 l 1
 210 639 l 1
 210 456 l 1
 505 456 l 1
 505 328 l 1
 210 328 l 1
 210 128 l 1
 562 128 l 1
 562 0 l 1
 67 0 l 1
 67 765 l 1
 554 765 l 1
EndSplineSet
Position2: "'cpsp' Capital Spacing lookup 0 subtable" dx=6 dy=0 dh=13 dv=0
EndChar

StartChar: Ecaron
Encoding: 282 282 29
Width: 611
VWidth: 1263
GlyphClass: 2
Flags: W
HStem: 0 128<210 562> 328 128<210 505> 639 126<210 554>
VStem: 67 143<128 328 456 639>
LayerCount: 2
Back
Fore
SplineSet
155 986 m 1
 255 986 l 1
 306 909 l 1
 355 986 l 1
 456 986 l 1
 361 835 l 1
 251 835 l 1
 155 986 l 1
554 765 m 1
 554 639 l 1
 210 639 l 1
 210 456 l 1
 505 456 l 1
 505 328 l 1
 210 328 l 1
 210 128 l 1
 562 128 l 1
 562 0 l 1
 67 0 l 1
 67 765 l 1
 554 765 l 1
EndSplineSet
Position2: "'cpsp' Capital Spacing lookup 0 subtable" dx=6 dy=0 dh=13 dv=0
EndChar

StartChar: Ecircumflex
Encoding: 202 202 30
Width: 611
VWidth: 1263
GlyphClass: 2
Flags: W
HStem: 0 128<210 562> 328 128<210 505> 639 126<210 554>
VStem: 67 143<128 328 456 639>
LayerCount: 2
Back
Fore
SplineSet
306 912 m 1
 255 835 l 1
 155 835 l 1
 251 986 l 1
 361 986 l 1
 456 835 l 1
 355 835 l 1
 306 912 l 1
554 765 m 1
 554 639 l 1
 210 639 l 1
 210 456 l 1
 505 456 l 1
 505 328 l 1
 210 328 l 1
 210 128 l 1
 562 128 l 1
 562 0 l 1
 67 0 l 1
 67 765 l 1
 554 765 l 1
EndSplineSet
Position2: "'cpsp' Capital Spacing lookup 0 subtable" dx=6 dy=0 dh=13 dv=0
EndChar

StartChar: Edieresis
Encoding: 203 203 31
Width: 611
VWidth: 1263
GlyphClass: 2
Flags: W
HStem: 0 128<210 562> 328 128<210 505> 639 126<210 554> 864 122<152 264 347 458>
VStem: 67 143<128 328 456 639> 152 112<864 986> 347 111<864 986>
LayerCount: 2
Back
Fore
SplineSet
152 864 m 1xf6
 152 986 l 1
 264 986 l 1
 264 864 l 1
 152 864 l 1xf6
347 864 m 1
 347 986 l 1
 458 986 l 1
 458 864 l 1
 347 864 l 1
210 639 m 1xfa
 210 456 l 1
 505 456 l 1
 505 328 l 1
 210 328 l 1
 210 128 l 1
 562 128 l 1
 562 0 l 1
 67 0 l 1
 67 765 l 1
 554 765 l 1
 554 639 l 1
 210 639 l 1xfa
EndSplineSet
Position2: "'cpsp' Capital Spacing lookup 0 subtable" dx=6 dy=0 dh=13 dv=0
EndChar

StartChar: Edotaccent
Encoding: 278 278 32
Width: 611
VWidth: 1263
GlyphClass: 2
Flags: W
HStem: 0 128<210 562> 328 128<210 505> 639 126<210 554> 858 128<245 365>
VStem: 67 143<128 328 456 639> 245 120<858 986>
LayerCount: 2
Back
Fore
SplineSet
245 986 m 1
 365 986 l 1
 365 858 l 1
 245 858 l 1
 245 986 l 1
554 765 m 1
 554 639 l 1
 210 639 l 1
 210 456 l 1
 505 456 l 1
 505 328 l 1
 210 328 l 1
 210 128 l 1
 562 128 l 1
 562 0 l 1
 67 0 l 1
 67 765 l 1
 554 765 l 1
EndSplineSet
Position2: "'cpsp' Capital Spacing lookup 0 subtable" dx=6 dy=0 dh=13 dv=0
EndChar

StartChar: Egrave
Encoding: 200 200 33
Width: 611
VWidth: 1263
GlyphClass: 2
Flags: W
HStem: 0 128<210 562> 328 128<210 505> 639 126<210 554>
VStem: 67 143<128 328 456 639>
LayerCount: 2
Back
Fore
SplineSet
272 839 m 1
 148.520381808 984.746434587 l 1
 285 984.746434587 l 1
 381 839 l 1
 272 839 l 1
210 639 m 1
 210 456 l 1
 505 456 l 1
 505 328 l 1
 210 328 l 1
 210 128 l 1
 562 128 l 1
 562 0 l 1
 67 0 l 1
 67 765 l 1
 554 765 l 1
 554 639 l 1
 210 639 l 1
EndSplineSet
Position2: "'cpsp' Capital Spacing lookup 0 subtable" dx=6 dy=0 dh=13 dv=0
EndChar

StartChar: Emacron
Encoding: 274 274 34
Width: 611
VWidth: 1263
GlyphClass: 2
Flags: W
HStem: 0 128<210 562> 328 128<210 505> 639 126<210 554> 847 98<163 447>
VStem: 67 143<128 328 456 639>
LayerCount: 2
Back
Fore
SplineSet
163 945 m 1
 447 945 l 1
 447 847 l 1
 163 847 l 1
 163 945 l 1
554 765 m 1
 554 639 l 1
 210 639 l 1
 210 456 l 1
 505 456 l 1
 505 328 l 1
 210 328 l 1
 210 128 l 1
 562 128 l 1
 562 0 l 1
 67 0 l 1
 67 765 l 1
 554 765 l 1
EndSplineSet
Position2: "'cpsp' Capital Spacing lookup 0 subtable" dx=6 dy=0 dh=13 dv=0
EndChar

StartChar: Eogonek
Encoding: 280 280 35
Width: 611
VWidth: 1263
GlyphClass: 2
Flags: W
HStem: -212 77<536.386 600.829> -197 62<536.876 602> 0 128<210 467> 328 128<210 505> 639 126<210 554>
VStem: 67 143<128 328 456 639> 418 110<-125.867 -33.8117>
LayerCount: 2
Back
Fore
SplineSet
210 456 m 1xbe
 505 456 l 1
 505 328 l 1
 210 328 l 1
 210 128 l 1
 562 128 l 1
 562 0 l 1
 548 -15 528 -46 528 -78 c 0
 528 -107 541 -135 578 -135 c 2xbe
 602 -135 l 1
 602 -197 l 1x7e
 577 -207 553 -212 529 -212 c 0
 477 -212 418 -188 418 -111 c 0
 418 -59 440 -28 467 0 c 1
 67 0 l 1
 67 765 l 1
 554 765 l 1
 554 639 l 1
 210 639 l 1
 210 456 l 1xbe
EndSplineSet
Position2: "'cpsp' Capital Spacing lookup 0 subtable" dx=6 dy=0 dh=13 dv=0
EndChar

StartChar: F
Encoding: 70 70 36
Width: 559
VWidth: 1263
GlyphClass: 2
Flags: W
HStem: 0 21G<67 210> 318 128<210 472> 639 126<210 517>
VStem: 67 143<0 318 446 639>
LayerCount: 2
Back
Fore
SplineSet
517 765 m 1
 517 639 l 1
 210 639 l 1
 210 446 l 1
 472 446 l 1
 472 318 l 1
 210 318 l 1
 210 0 l 1
 67 0 l 1
 67 765 l 1
 517 765 l 1
EndSplineSet
Position2: "'cpsp' Capital Spacing lookup 0 subtable" dx=6 dy=0 dh=13 dv=0
EndChar

StartChar: G
Encoding: 71 71 37
Width: 712
VWidth: 1263
GlyphClass: 2
Flags: W
HStem: -14 124<274.329 435.225> 0 21G<557.118 655> 293 124<337 509> 657 122<276.868 439.461>
VStem: 38 148<215.692 549.345> 509 146<193.253 293 498 584.76>
AnchorPoint: "Anchor-1" 356 0 basechar 0
AnchorPoint: "Anchor-0" 356 765 basechar 0
LayerCount: 2
Back
Fore
SplineSet
337 417 m 1xbc
 655 417 l 1
 655 0 l 1
 563 0 l 1x7c
 538 85 l 1
 489 21 414 -14 333 -14 c 0
 146 -14 38 111 38 383 c 0
 38 653 156 779 362 779 c 0
 516 779 655 681 655 498 c 1
 509 498 l 1
 509 602 441 657 359 657 c 0
 239 657 186 563 186 410 c 2
 186 355 l 2
 186 198 240 110 360 110 c 0
 447 110 509 181 509 293 c 1
 337 293 l 1
 337 417 l 1xbc
EndSplineSet
Position2: "'cpsp' Capital Spacing lookup 0 subtable" dx=6 dy=0 dh=13 dv=0
EndChar

StartChar: Gbreve
Encoding: 286 286 38
Width: 712
VWidth: 1263
GlyphClass: 2
Flags: W
HStem: -14 124<274.329 435.225> 0 21G<557.118 655> 293 124<337 509> 657 122<276.868 439.461> 866 83<300.232 412.453>
VStem: 38 148<215.692 549.345> 509 146<193.253 293 498 584.76>
LayerCount: 2
Back
Fore
SplineSet
356 866 m 0x3e
 265 866 207 929 207 986 c 1
 290 986 l 1
 293 970 319 949 356 949 c 0
 394 949 420 970 423 986 c 1
 505 986 l 1
 505 929 448 866 356 866 c 0x3e
337 417 m 1
 655 417 l 1
 655 0 l 1
 563 0 l 1x7e
 538 85 l 1
 489 21 414 -14 333 -14 c 0
 146 -14 38 111 38 383 c 0
 38 653 156 779 362 779 c 0
 516 779 655 681 655 498 c 1
 509 498 l 1
 509 602 441 657 359 657 c 0
 239 657 186 563 186 410 c 2
 186 355 l 2
 186 198 240 110 360 110 c 0xbe
 447 110 509 181 509 293 c 1
 337 293 l 1
 337 417 l 1
EndSplineSet
Position2: "'cpsp' Capital Spacing lookup 0 subtable" dx=6 dy=0 dh=13 dv=0
EndChar

StartChar: Gcircumflex
Encoding: 284 284 39
Width: 712
VWidth: 1263
GlyphClass: 2
Flags: W
HStem: -14 124<274.329 435.225> 0 21G<557.118 655> 293 124<337 509> 657 122<276.868 439.461>
VStem: 38 148<215.692 549.345> 509 146<193.253 293 498 584.76>
LayerCount: 2
Back
Fore
SplineSet
307 835 m 1x3c
 207 835 l 1
 303 986 l 1
 412 986 l 1
 506 835 l 1
 407 835 l 1
 357 912 l 1
 307 835 l 1x3c
337 417 m 1
 655 417 l 1
 655 0 l 1
 563 0 l 1x7c
 538 85 l 1
 489 21 414 -14 333 -14 c 0
 146 -14 38 111 38 383 c 0
 38 653 156 779 362 779 c 0
 516 779 655 681 655 498 c 1
 509 498 l 1
 509 602 441 657 359 657 c 0
 239 657 186 563 186 410 c 2
 186 355 l 2
 186 198 240 110 360 110 c 0xbc
 447 110 509 181 509 293 c 1
 337 293 l 1
 337 417 l 1
EndSplineSet
Position2: "'cpsp' Capital Spacing lookup 0 subtable" dx=6 dy=0 dh=13 dv=0
EndChar

StartChar: Gcommaaccent
Encoding: 290 290 40
Width: 712
VWidth: 1263
GlyphClass: 2
Flags: W
HStem: -14 124<274.329 435.225> 0 21G<557.118 655> 293 124<337 509> 657 122<276.868 439.461>
VStem: 38 148<215.692 549.345> 270 138<-187 -62> 509 146<193.253 293 498 584.76>
LayerCount: 2
Back
Fore
SplineSet
337 417 m 1xbe
 655 417 l 1
 655 0 l 1
 563 0 l 1x7e
 538 85 l 1
 489 21 414 -14 333 -14 c 0
 146 -14 38 111 38 383 c 0
 38 653 156 779 362 779 c 0
 516 779 655 681 655 498 c 1
 509 498 l 1
 509 602 441 657 359 657 c 0
 239 657 186 563 186 410 c 2
 186 355 l 2
 186 198 240 110 360 110 c 0
 447 110 509 181 509 293 c 1
 337 293 l 1
 337 417 l 1xbe
270 -62 m 1
 408 -62 l 1
 408 -187 l 1
 357 -293 l 1
 284 -293 l 1
 325 -198 l 1
 270 -198 l 1
 270 -62 l 1
EndSplineSet
Position2: "'cpsp' Capital Spacing lookup 0 subtable" dx=6 dy=0 dh=13 dv=0
EndChar

StartChar: Gdotaccent
Encoding: 288 288 41
Width: 712
VWidth: 1263
GlyphClass: 2
Flags: W
HStem: -14 124<274.329 435.225> 0 21G<557.118 655> 293 124<337 509> 657 122<276.868 439.461> 858 128<297 417>
VStem: 38 148<215.692 549.345> 297 120<858 986> 509 146<193.253 293 498 584.76>
LayerCount: 2
Back
Fore
SplineSet
417 858 m 1x3f
 297 858 l 1
 297 986 l 1
 417 986 l 1
 417 858 l 1x3f
337 417 m 1
 655 417 l 1
 655 0 l 1
 563 0 l 1x7f
 538 85 l 1
 489 21 414 -14 333 -14 c 0
 146 -14 38 111 38 383 c 0
 38 653 156 779 362 779 c 0
 516 779 655 681 655 498 c 1
 509 498 l 1
 509 602 441 657 359 657 c 0
 239 657 186 563 186 410 c 2
 186 355 l 2
 186 198 240 110 360 110 c 0xbf
 447 110 509 181 509 293 c 1
 337 293 l 1
 337 417 l 1
EndSplineSet
Position2: "'cpsp' Capital Spacing lookup 0 subtable" dx=6 dy=0 dh=13 dv=0
EndChar

StartChar: H
Encoding: 72 72 42
Width: 660
VWidth: 1263
GlyphClass: 2
Flags: W
HStem: 0 21G<67 210 451 594> 328 128<210 451> 745 20G<67 210 451 594>
VStem: 67 143<0 328 456 765> 451 143<0 328 456 765>
AnchorPoint: "Anchor-1" 0 0 basechar 0
AnchorPoint: "Anchor-0" 331 765 basechar 0
LayerCount: 2
Back
Fore
SplineSet
451 0 m 1
 451 328 l 1
 210 328 l 1
 210 0 l 1
 67 0 l 1
 67 765 l 1
 210 765 l 1
 210 456 l 1
 451 456 l 1
 451 765 l 1
 594 765 l 1
 594 0 l 1
 451 0 l 1
EndSplineSet
Position2: "'cpsp' Capital Spacing lookup 0 subtable" dx=6 dy=0 dh=13 dv=0
EndChar

StartChar: Hbar
Encoding: 294 294 43
Width: 660
VWidth: 1263
GlyphClass: 2
Flags: W
HStem: 0 21G<67 210 451 594> 321 126<210 451> 547 97<11 67 210 451 594 649> 745 20G<67 210 451 594>
VStem: 67 143<0 321 447 547 644 765> 451 143<0 321 447 547 644 765>
LayerCount: 2
Back
Fore
SplineSet
594 0 m 1
 451 0 l 1
 451 321 l 1
 210 321 l 1
 210 0 l 1
 67 0 l 1
 67 547 l 1
 11 547 l 1
 11 644 l 1
 67 644 l 1
 67 765 l 1
 210 765 l 1
 210 644 l 1
 451 644 l 1
 451 765 l 1
 594 765 l 1
 594 644 l 1
 649 644 l 1
 649 547 l 1
 594 547 l 1
 594 0 l 1
210 547 m 1
 210 447 l 1
 451 447 l 1
 451 547 l 1
 210 547 l 1
EndSplineSet
Position2: "'cpsp' Capital Spacing lookup 0 subtable" dx=6 dy=0 dh=13 dv=0
EndChar

StartChar: Hcircumflex
Encoding: 292 292 44
Width: 660
VWidth: 1263
GlyphClass: 2
Flags: W
HStem: 0 21G<67 210 451 594> 328 128<210 451> 745 20G<67 210 451 594>
VStem: 67 143<0 328 456 765> 451 143<0 328 456 765>
LayerCount: 2
Back
Fore
SplineSet
380 835 m 1
 331 912 l 1
 280 835 l 1
 181 835 l 1
 277 986 l 1
 386 986 l 1
 481 835 l 1
 380 835 l 1
451 0 m 1
 451 328 l 1
 210 328 l 1
 210 0 l 1
 67 0 l 1
 67 765 l 1
 210 765 l 1
 210 456 l 1
 451 456 l 1
 451 765 l 1
 594 765 l 1
 594 0 l 1
 451 0 l 1
EndSplineSet
Position2: "'cpsp' Capital Spacing lookup 0 subtable" dx=6 dy=0 dh=13 dv=0
EndChar

StartChar: I
Encoding: 73 73 45
Width: 255
VWidth: 1263
GlyphClass: 2
Flags: W
HStem: 0 21G<56 198> 745 20G<56 198>
VStem: 56 142<0 765>
AnchorPoint: "Anchor-1" 0 0 basechar 0
AnchorPoint: "Anchor-0" 128 765 basechar 0
LayerCount: 2
Back
Fore
SplineSet
56 765 m 1
 198 765 l 1
 198 0 l 1
 56 0 l 1
 56 765 l 1
EndSplineSet
Position2: "'cpsp' Capital Spacing lookup 0 subtable" dx=6 dy=0 dh=13 dv=0
EndChar

StartChar: IJ
Encoding: 306 306 46
Width: 764
VWidth: 1263
GlyphClass: 2
Flags: W
HStem: -14 124<425.852 532.595> 0 21G<56 198> 745 20G<56 198 553 697>
VStem: 56 142<0 765> 265 142<131.582 241> 553 144<131.582 765>
LayerCount: 2
Back
Fore
SplineSet
56 0 m 1x7c
 56 765 l 1
 198 765 l 1
 198 0 l 1
 56 0 l 1x7c
697 182 m 2
 697 54 620 -14 481 -14 c 0
 342 -14 265 54 265 182 c 2
 265 241 l 1
 407 241 l 1
 407 193 l 2
 407 139 432 110 481 110 c 0xbc
 529 110 553 139 553 193 c 2
 553 765 l 1
 697 765 l 1
 697 182 l 2
EndSplineSet
Position2: "'cpsp' Capital Spacing lookup 0 subtable" dx=6 dy=0 dh=13 dv=0
EndChar

StartChar: Iacute
Encoding: 205 205 47
Width: 255
VWidth: 1263
GlyphClass: 2
Flags: W
HStem: 0 21G<56 198> 745 20G<56 198>
VStem: 56 142<0 765>
LayerCount: 2
Back
Fore
SplineSet
162 839 m 1
 51 839 l 1
 147 986 l 1
 280 986 l 1
 162 839 l 1
56 0 m 1
 56 765 l 1
 198 765 l 1
 198 0 l 1
 56 0 l 1
EndSplineSet
Position2: "'cpsp' Capital Spacing lookup 0 subtable" dx=6 dy=0 dh=13 dv=0
EndChar

StartChar: Ibreve
Encoding: 300 300 48
Width: 255
VWidth: 1263
GlyphClass: 2
Flags: W
HStem: 0 21G<56 198> 745 20G<56 198> 866 83<71.9095 184.453>
VStem: 56 142<0 765>
LayerCount: 2
Back
Fore
SplineSet
277 986 m 1
 277 929 220 866 128 866 c 0
 36 866 -23 929 -23 986 c 1
 62 986 l 1
 65 970 91 949 128 949 c 0
 166 949 192 970 195 986 c 1
 277 986 l 1
56 765 m 1
 198 765 l 1
 198 0 l 1
 56 0 l 1
 56 765 l 1
EndSplineSet
Position2: "'cpsp' Capital Spacing lookup 0 subtable" dx=6 dy=0 dh=13 dv=0
EndChar

StartChar: Icircumflex
Encoding: 206 206 49
Width: 255
VWidth: 1263
GlyphClass: 2
Flags: W
HStem: 0 21G<56 198> 745 20G<56 198>
VStem: 56 142<0 765>
LayerCount: 2
Back
Fore
SplineSet
129 912 m 1
 78 835 l 1
 -24 835 l 1
 73 986 l 1
 183 986 l 1
 278 835 l 1
 178 835 l 1
 129 912 l 1
56 765 m 1
 198 765 l 1
 198 0 l 1
 56 0 l 1
 56 765 l 1
EndSplineSet
Position2: "'cpsp' Capital Spacing lookup 0 subtable" dx=6 dy=0 dh=13 dv=0
EndChar

StartChar: Idieresis
Encoding: 207 207 50
Width: 255
VWidth: 1263
GlyphClass: 2
Flags: W
HStem: 0 21G<56 198> 745 20G<56 198> 864 122<-25 86 169 282>
VStem: -25 111<864 986> 56 142<0 765> 169 113<864 986>
LayerCount: 2
Back
Fore
SplineSet
-25 864 m 1xf0
 -25 986 l 1
 86 986 l 1
 86 864 l 1
 -25 864 l 1xf0
169 864 m 1xe4
 169 986 l 1
 282 986 l 1
 282 864 l 1
 169 864 l 1xe4
56 0 m 1xe8
 56 765 l 1
 198 765 l 1
 198 0 l 1
 56 0 l 1xe8
EndSplineSet
Position2: "'cpsp' Capital Spacing lookup 0 subtable" dx=6 dy=0 dh=13 dv=0
EndChar

StartChar: Idotaccent
Encoding: 304 304 51
Width: 255
VWidth: 1263
GlyphClass: 2
Flags: W
HStem: 0 21G<56 198> 745 20G<56 198> 858 128<68 188>
VStem: 56 142<0 765> 68 120<858 986>
LayerCount: 2
Back
Fore
SplineSet
68 986 m 1xe8
 188 986 l 1
 188 858 l 1
 68 858 l 1
 68 986 l 1xe8
56 765 m 1xf0
 198 765 l 1
 198 0 l 1
 56 0 l 1
 56 765 l 1xf0
EndSplineSet
Position2: "'cpsp' Capital Spacing lookup 0 subtable" dx=6 dy=0 dh=13 dv=0
EndChar

StartChar: Igrave
Encoding: 204 204 52
Width: 255
VWidth: 1263
GlyphClass: 2
Flags: W
HStem: 0 21G<56 198> 745 20G<56 198>
VStem: 56 142<0 765>
LayerCount: 2
Back
Fore
SplineSet
93 839 m 1
 -28.4754098361 984.770491803 l 1
 109 984.770491803 l 1
 205 839 l 1
 93 839 l 1
56 0 m 1
 56 765 l 1
 198 765 l 1
 198 0 l 1
 56 0 l 1
EndSplineSet
Position2: "'cpsp' Capital Spacing lookup 0 subtable" dx=6 dy=0 dh=13 dv=0
EndChar

StartChar: Imacron
Encoding: 298 298 53
Width: 255
VWidth: 1263
GlyphClass: 2
Flags: W
HStem: 0 21G<56 198> 745 20G<56 198> 847 98<-15 270>
VStem: 56 142<0 765>
LayerCount: 2
Back
Fore
SplineSet
-15 945 m 1
 270 945 l 1
 270 847 l 1
 -15 847 l 1
 -15 945 l 1
56 765 m 1
 198 765 l 1
 198 0 l 1
 56 0 l 1
 56 765 l 1
EndSplineSet
Position2: "'cpsp' Capital Spacing lookup 0 subtable" dx=6 dy=0 dh=13 dv=0
EndChar

StartChar: Iogonek
Encoding: 302 302 54
Width: 255
VWidth: 1263
GlyphClass: 2
Flags: W
HStem: -212 77<173.47 238.829> -197 62<173.751 240> 745 20G<56 198>
VStem: 56 142<0 765> 56 109<-125.867 -33.8117>
LayerCount: 2
Back
Fore
SplineSet
165 -78 m 0xa8
 165 -107 178 -135 216 -135 c 2xa8
 240 -135 l 1
 240 -197 l 1x68
 215 -207 191 -212 167 -212 c 0
 116 -212 56 -188 56 -111 c 0xa8
 56 -59 78 -28 105 0 c 1
 56 0 l 1
 56 765 l 1
 198 765 l 1
 198 0 l 1xb0
 187 -15 165 -46 165 -78 c 0xa8
EndSplineSet
Position2: "'cpsp' Capital Spacing lookup 0 subtable" dx=6 dy=0 dh=13 dv=0
EndChar

StartChar: Itilde
Encoding: 296 296 55
Width: 255
VWidth: 1263
GlyphClass: 2
Flags: W
HStem: 0 21G<56 198> 745 20G<56 198> 850 95<126.853 233.121> 890 96<21.8789 128.824>
VStem: -61 75<850 885.202> 56 142<0 765> 241 75<950.426 986>
LayerCount: 2
Back
Fore
SplineSet
316 986 m 1xde
 316 924 284 850 206 850 c 0xee
 152.434622406 849.183062315 109.751388248 889.053519299 58 890 c 0xde
 34 890 19 880 14 850 c 1
 -61 850 l 1xee
 -61 911 -29 986 49 986 c 0xde
 103.777104119 986.472851356 145.506706016 946.406295337 198 945 c 0xee
 222 945 236 954 241 986 c 1
 316 986 l 1xde
56 765 m 1
 198 765 l 1
 198 0 l 1
 56 0 l 1
 56 765 l 1
EndSplineSet
Position2: "'cpsp' Capital Spacing lookup 0 subtable" dx=6 dy=0 dh=13 dv=0
EndChar

StartChar: J
Encoding: 74 74 56
Width: 508
VWidth: 1263
GlyphClass: 2
Flags: W
HStem: -14 124<171.195 280.71> 745 20G<299 442>
VStem: 10 142<131.582 241> 299 143<131.582 765>
AnchorPoint: "Anchor-1" 0 0 basechar 0
AnchorPoint: "Anchor-0" 255 765 basechar 0
LayerCount: 2
Back
Fore
SplineSet
442 182 m 2
 442 54 365 -14 226 -14 c 0
 88 -14 10 54 10 182 c 2
 10 241 l 1
 152 241 l 1
 152 193 l 2
 152 139 178 110 226 110 c 0
 274 110 299 139 299 193 c 2
 299 765 l 1
 442 765 l 1
 442 182 l 2
EndSplineSet
Position2: "'cpsp' Capital Spacing lookup 0 subtable" dx=6 dy=0 dh=13 dv=0
EndChar

StartChar: Jcircumflex
Encoding: 308 308 57
Width: 508
VWidth: 1263
GlyphClass: 2
Flags: W
HStem: -14 124<171.195 280.71> 745 20G<299 442>
VStem: 10 142<131.582 241> 299 143<131.582 765>
LayerCount: 2
Back
Fore
SplineSet
436 835 m 1
 385 912 l 1
 335 835 l 1
 235 835 l 1
 331 986 l 1
 441 986 l 1
 534 835 l 1
 436 835 l 1
442 182 m 2
 442 54 365 -14 226 -14 c 0
 88 -14 10 54 10 182 c 2
 10 241 l 1
 152 241 l 1
 152 193 l 2
 152 139 178 110 226 110 c 0
 274 110 299 139 299 193 c 2
 299 765 l 1
 442 765 l 1
 442 182 l 2
EndSplineSet
Position2: "'cpsp' Capital Spacing lookup 0 subtable" dx=6 dy=0 dh=13 dv=0
EndChar

StartChar: K
Encoding: 75 75 58
Width: 660
VWidth: 1263
GlyphClass: 2
Flags: W
HStem: 0 21G<67 211 486.351 658> 745 20G<67 211 476.678 650>
VStem: 67 144<0 196 374 765>
AnchorPoint: "Anchor-1" 331 0 basechar 0
AnchorPoint: "Anchor-0" 331 765 basechar 0
LayerCount: 2
Back
Fore
SplineSet
211 0 m 1
 67 0 l 1
 67 765 l 1
 211 765 l 1
 211 374 l 1
 491 765 l 1
 650 765 l 1
 424 455 l 1
 658 0 l 1
 496 0 l 1
 331 342 l 1
 211 196 l 1
 211 0 l 1
EndSplineSet
Position2: "'cpsp' Capital Spacing lookup 0 subtable" dx=6 dy=0 dh=13 dv=0
EndChar

StartChar: Kcommaaccent
Encoding: 310 310 59
Width: 660
VWidth: 1263
GlyphClass: 2
Flags: W
HStem: 0 21G<67 211 486.351 658> 745 20G<67 211 476.678 650>
VStem: 67 144<0 196 374 765> 261 138<-187 -62>
LayerCount: 2
Back
Fore
SplineSet
211 0 m 1
 67 0 l 1
 67 765 l 1
 211 765 l 1
 211 374 l 1
 491 765 l 1
 650 765 l 1
 424 455 l 1
 658 0 l 1
 496 0 l 1
 331 342 l 1
 211 196 l 1
 211 0 l 1
261 -198 m 1
 261 -62 l 1
 399 -62 l 1
 399 -187 l 1
 349 -293 l 1
 277 -293 l 1
 316 -198 l 1
 261 -198 l 1
EndSplineSet
Position2: "'cpsp' Capital Spacing lookup 0 subtable" dx=6 dy=0 dh=13 dv=0
EndChar

StartChar: L
Encoding: 76 76 60
Width: 559
VWidth: 1263
GlyphClass: 2
Flags: W
HStem: 0 134<210 534> 745 20G<67 210>
VStem: 67 143<134 765>
AnchorPoint: "Anchor-1" 280 0 basechar 0
AnchorPoint: "Anchor-0" 280 765 basechar 0
LayerCount: 2
Back
Fore
SplineSet
534 134 m 1
 534 0 l 1
 67 0 l 1
 67 765 l 1
 210 765 l 1
 210 134 l 1
 534 134 l 1
EndSplineSet
Position2: "'cpsp' Capital Spacing lookup 0 subtable" dx=6 dy=0 dh=13 dv=0
EndChar

StartChar: Lacute
Encoding: 313 313 61
Width: 559
VWidth: 1263
GlyphClass: 2
Flags: W
HStem: 0 134<210 534> 745 20G<67 210>
VStem: 67 143<134 765>
LayerCount: 2
Back
Fore
SplineSet
176 839 m 1
 64 839 l 1
 160 986 l 1
 294 986 l 1
 176 839 l 1
534 134 m 1
 534 0 l 1
 67 0 l 1
 67 765 l 1
 210 765 l 1
 210 134 l 1
 534 134 l 1
EndSplineSet
Position2: "'cpsp' Capital Spacing lookup 0 subtable" dx=6 dy=0 dh=13 dv=0
EndChar

StartChar: Lcaron
Encoding: 317 317 62
Width: 559
VWidth: 1263
GlyphClass: 2
Flags: W
HStem: 0 134<210 534> 745 20G<67 210 380 534>
VStem: 67 143<134 765> 380 154<626 765>
LayerCount: 2
Back
Fore
SplineSet
534 134 m 1
 534 0 l 1
 67 0 l 1
 67 765 l 1
 210 765 l 1
 210 134 l 1
 534 134 l 1
380 613 m 1
 380 765 l 1
 534 765 l 1
 534 626 l 1
 460 438 l 1
 380 438 l 1
 441 613 l 1
 380 613 l 1
EndSplineSet
Position2: "'cpsp' Capital Spacing lookup 0 subtable" dx=6 dy=0 dh=13 dv=0
EndChar

StartChar: Lcommaaccent
Encoding: 315 315 63
Width: 559
VWidth: 1263
GlyphClass: 2
Flags: W
HStem: 0 134<210 534> 745 20G<67 210>
VStem: 67 143<134 765> 211 138<-187 -62>
LayerCount: 2
Back
Fore
SplineSet
534 134 m 1
 534 0 l 1
 67 0 l 1
 67 765 l 1
 210 765 l 1
 210 134 l 1
 534 134 l 1
211 -198 m 1
 211 -62 l 1
 349 -62 l 1
 349 -187 l 1
 298 -293 l 1
 226 -293 l 1
 265 -198 l 1
 211 -198 l 1
EndSplineSet
Position2: "'cpsp' Capital Spacing lookup 0 subtable" dx=6 dy=0 dh=13 dv=0
EndChar

StartChar: Ldot
Encoding: 319 319 64
Width: 559
VWidth: 1263
GlyphClass: 2
Flags: W
HStem: 0 134<210 534> 457 128<350 469> 745 20G<67 210>
VStem: 67 143<134 765> 350 119<457 585>
LayerCount: 2
Back
Fore
SplineSet
534 134 m 1
 534 0 l 1
 67 0 l 1
 67 765 l 1
 210 765 l 1
 210 134 l 1
 534 134 l 1
350 457 m 1
 350 585 l 1
 469 585 l 1
 469 457 l 1
 350 457 l 1
EndSplineSet
Ligature2: "Ligature Substitution lookup 39 subtable" L periodcentered
Position2: "'cpsp' Capital Spacing lookup 0 subtable" dx=6 dy=0 dh=13 dv=0
EndChar

StartChar: Lslash
Encoding: 321 321 65
Width: 559
VWidth: 1263
GlyphClass: 2
Flags: W
HStem: 0 134<210 534> 745 20G<67 210>
VStem: 67 143<134 265 370 390 498 765>
LayerCount: 2
Back
Fore
SplineSet
210 134 m 1
 534 134 l 1
 534 0 l 1
 67 0 l 1
 67 265 l 1
 0 206 l 1
 0 312 l 1
 67 370 l 1
 67 765 l 1
 210 765 l 1
 210 498 l 1
 340 614 l 1
 340 505 l 1
 210 390 l 1
 210 134 l 1
EndSplineSet
Position2: "'cpsp' Capital Spacing lookup 0 subtable" dx=6 dy=0 dh=13 dv=0
EndChar

StartChar: M
Encoding: 77 77 66
Width: 762
VWidth: 1263
GlyphClass: 2
Flags: W
HStem: 0 21G<59 181 309.649 442.594 572 703> 745 20G<59 264.513 504.582 703>
VStem: 59 122<0 611.385> 572 131<0 583.313>
LayerCount: 2
Back
Fore
SplineSet
181 0 m 1
 59 0 l 1
 59 765 l 1
 260 765 l 1
 393.600093415 172.940638657 l 1
 393.600093415 172.940638657 406 300 416 344 c 2
 509 765 l 1
 703 765 l 1
 703 0 l 1
 572 0 l 1
 572 583.31302532 l 1
 438 0 l 1
 314 0 l 1
 181 611.384730527 l 1
 181 0 l 1
EndSplineSet
Position2: "'cpsp' Capital Spacing lookup 0 subtable" dx=6 dy=0 dh=13 dv=0
EndChar

StartChar: N
Encoding: 78 78 67
Width: 660
VWidth: 1263
GlyphClass: 2
Flags: W
HStem: 0 21G<67 190.388 455.768 594> 745 20G<67 204.128 465 594>
VStem: 67 123.388<0 492.533> 465 129<276.143 765>
AnchorPoint: "Anchor-1" 331 0 basechar 0
AnchorPoint: "Anchor-0" 331 765 basechar 0
LayerCount: 2
Back
Fore
SplineSet
67 0 m 1
 67 765 l 1
 193 765 l 1
 465 276.142832611 l 1
 465 765 l 1
 594 765 l 1
 594 0 l 1
 467 0 l 1
 190.387866964 492.532996376 l 1
 190.387866964 0 l 1
 67 0 l 1
EndSplineSet
Position2: "'cpsp' Capital Spacing lookup 0 subtable" dx=6 dy=0 dh=13 dv=0
EndChar

StartChar: Nacute
Encoding: 323 323 68
Width: 660
VWidth: 1263
GlyphClass: 2
Flags: W
HStem: 0 21G<67 190.388 455.768 594> 745 20G<67 204.128 465 594>
VStem: 67 123.388<0 492.533> 465 129<276.143 765>
LayerCount: 2
Back
Fore
SplineSet
364 839 m 1
 254 839 l 1
 350 986 l 1
 484 986 l 1
 364 839 l 1
67 0 m 1
 67 765 l 1
 193 765 l 1
 465 276.142832611 l 1
 465 765 l 1
 594 765 l 1
 594 0 l 1
 467 0 l 1
 190.387866964 492.532996376 l 1
 190.387866964 0 l 1
 67 0 l 1
EndSplineSet
Position2: "'cpsp' Capital Spacing lookup 0 subtable" dx=6 dy=0 dh=13 dv=0
EndChar

StartChar: Ncaron
Encoding: 327 327 69
Width: 660
VWidth: 1263
GlyphClass: 2
Flags: W
HStem: 0 21G<67 190.388 455.768 594> 745 20G<67 204.128 465 594>
VStem: 67 123.388<0 492.533> 465 129<276.143 765>
LayerCount: 2
Back
Fore
SplineSet
277 835 m 1
 181 986 l 1
 280 986 l 1
 331 909 l 1
 380 986 l 1
 481 986 l 1
 386 835 l 1
 277 835 l 1
67 0 m 1
 67 765 l 1
 193 765 l 1
 465 276.142832611 l 1
 465 765 l 1
 594 765 l 1
 594 0 l 1
 467 0 l 1
 190.387866964 492.532996376 l 1
 190.387866964 0 l 1
 67 0 l 1
EndSplineSet
Position2: "'cpsp' Capital Spacing lookup 0 subtable" dx=6 dy=0 dh=13 dv=0
EndChar

StartChar: Ncommaaccent
Encoding: 325 325 70
Width: 660
VWidth: 1263
GlyphClass: 2
Flags: W
HStem: 0 21G<67 190.388 455.768 594> 745 20G<67 204.128 465 594>
VStem: 67 123.388<0 492.533> 261 138<-187 -62> 465 129<276.143 765>
LayerCount: 2
Back
Fore
SplineSet
67 0 m 1
 67 765 l 1
 193 765 l 1
 465 276.142832611 l 1
 465 765 l 1
 594 765 l 1
 594 0 l 1
 467 0 l 1
 190.387866964 492.532996376 l 1
 190.387866964 0 l 1
 67 0 l 1
261 -198 m 1
 261 -62 l 1
 399 -62 l 1
 399 -187 l 1
 349 -293 l 1
 277 -293 l 1
 316 -198 l 1
 261 -198 l 1
EndSplineSet
Position2: "'cpsp' Capital Spacing lookup 0 subtable" dx=6 dy=0 dh=13 dv=0
EndChar

StartChar: Eng
Encoding: 330 330 71
Width: 661
VWidth: 1263
GlyphClass: 2
Flags: W
HStem: -203 112<362.09 456.143> -189 98<361 455.448> 0 21G<67 193> 745 20G<67 204.128 465 594>
VStem: 67 126<0 488.428> 465 129<-81.3962 0 276.143 765>
LayerCount: 2
Back
Fore
SplineSet
594 -45 m 2xbc
 594 -123 564 -203 457 -203 c 0xbc
 424 -203 384 -197 361 -189 c 1
 361 -91 l 1x7c
 410 -91 l 2
 445 -91 464 -72 464 -37 c 2
 464 0 l 1
 193 488.428208212 l 1
 193 0 l 1
 67 0 l 1
 67 765 l 1
 193 765 l 1
 465 276.142832611 l 1
 465 765 l 1
 594 765 l 1
 594 -45 l 2xbc
EndSplineSet
Position2: "'cpsp' Capital Spacing lookup 0 subtable" dx=6 dy=0 dh=13 dv=0
EndChar

StartChar: Ntilde
Encoding: 209 209 72
Width: 660
VWidth: 1263
GlyphClass: 2
Flags: W
HStem: 0 21G<67 190.388 455.768 594> 745 20G<67 204.128 465 594> 850 95<328.853 438.216> 890 96<222.784 331.086>
VStem: 67 123.388<0 492.533> 143 73<850 885.202> 445 73<950.426 986> 465 129<276.143 765>
LayerCount: 2
Back
Fore
SplineSet
518 986 m 1xd6
 518 924 486 850 408 850 c 0xe6
 354.434622406 849.183062315 311.751388248 889.053519299 260 890 c 0xd6
 236 890 221 880 216 850 c 1
 143 850 l 1xe6
 143 911 175 986 253 986 c 0xd6
 305.996163163 986.283599762 349.671792969 946.027631689 400 945 c 0xe6
 424 945 440 954 445 986 c 1
 518 986 l 1xd6
67 0 m 1xc9
 67 765 l 1
 193 765 l 1
 465 276.142832611 l 1
 465 765 l 1
 594 765 l 1
 594 0 l 1
 467 0 l 1
 190.387866964 492.532996376 l 1
 190.387866964 0 l 1
 67 0 l 1xc9
EndSplineSet
Position2: "'cpsp' Capital Spacing lookup 0 subtable" dx=6 dy=0 dh=13 dv=0
EndChar

StartChar: O
Encoding: 79 79 73
Width: 712
VWidth: 1263
GlyphClass: 2
Flags: W
HStem: -14 124<275.528 436.568> 657 122<275.528 436.568>
VStem: 38 148<216.516 549.345> 527 147<220.102 545.445>
AnchorPoint: "Anchor-1" 0 0 basechar 0
AnchorPoint: "Anchor-0" 356 765 basechar 0
LayerCount: 2
Back
Fore
SplineSet
356 779 m 0
 553 779 674 653 674 383 c 0
 674 113 553 -14 356 -14 c 0
 159 -14 38 113 38 383 c 0
 38 653 159 779 356 779 c 0
356 657 m 0
 242 657 186 563 186 410 c 2
 186 355 l 2
 186 202 242 110 356 110 c 0
 470 110 527 202 527 355 c 2
 527 410 l 2
 527 563 470 657 356 657 c 0
EndSplineSet
Substitution2: "Single Substitution lookup 40 subtable" ordmasculine
Substitution2: "'aalt' Access All Alternates lookup 0 subtable" ordmasculine
Position2: "'cpsp' Capital Spacing lookup 0 subtable" dx=6 dy=0 dh=13 dv=0
EndChar

StartChar: Oacute
Encoding: 211 211 74
Width: 712
VWidth: 1263
GlyphClass: 2
Flags: W
HStem: -14 124<275.528 436.568> 657 122<275.528 436.568>
VStem: 38 148<216.516 549.345> 527 147<220.102 545.445>
LayerCount: 2
Back
Fore
SplineSet
390 839 m 1
 279 839 l 1
 375 986 l 1
 510 986 l 1
 390 839 l 1
356 779 m 0
 553 779 674 653 674 383 c 0
 674 113 553 -14 356 -14 c 0
 159 -14 38 113 38 383 c 0
 38 653 159 779 356 779 c 0
356 657 m 0
 242 657 186 563 186 410 c 2
 186 355 l 2
 186 202 242 110 356 110 c 0
 470 110 527 202 527 355 c 2
 527 410 l 2
 527 563 470 657 356 657 c 0
EndSplineSet
Position2: "'cpsp' Capital Spacing lookup 0 subtable" dx=6 dy=0 dh=13 dv=0
EndChar

StartChar: Obreve
Encoding: 334 334 75
Width: 712
VWidth: 1263
GlyphClass: 2
Flags: W
HStem: -14 124<275.528 436.568> 657 122<275.528 436.568> 866 83<300.232 412.453>
VStem: 38 148<216.516 549.345> 527 147<220.102 545.445>
LayerCount: 2
Back
Fore
SplineSet
505 986 m 1
 505 929 448 866 356 866 c 0
 265 866 207 929 207 986 c 1
 290 986 l 1
 293 970 319 949 356 949 c 0
 394 949 420 970 423 986 c 1
 505 986 l 1
356 779 m 0
 553 779 674 653 674 383 c 0
 674 113 553 -14 356 -14 c 0
 159 -14 38 113 38 383 c 0
 38 653 159 779 356 779 c 0
356 657 m 0
 242 657 186 563 186 410 c 2
 186 355 l 2
 186 202 242 110 356 110 c 0
 470 110 527 202 527 355 c 2
 527 410 l 2
 527 563 470 657 356 657 c 0
EndSplineSet
Position2: "'cpsp' Capital Spacing lookup 0 subtable" dx=6 dy=0 dh=13 dv=0
EndChar

StartChar: Ocircumflex
Encoding: 212 212 76
Width: 712
VWidth: 1263
GlyphClass: 2
Flags: W
HStem: -14 124<275.528 436.568> 657 122<275.528 436.568>
VStem: 38 148<216.516 549.345> 527 147<220.102 545.445>
LayerCount: 2
Back
Fore
SplineSet
357 912 m 1
 307 835 l 1
 207 835 l 1
 303 986 l 1
 412 986 l 1
 506 835 l 1
 407 835 l 1
 357 912 l 1
356 779 m 0
 553 779 674 653 674 383 c 0
 674 113 553 -14 356 -14 c 0
 159 -14 38 113 38 383 c 0
 38 653 159 779 356 779 c 0
356 657 m 0
 242 657 186 563 186 410 c 2
 186 355 l 2
 186 202 242 110 356 110 c 0
 470 110 527 202 527 355 c 2
 527 410 l 2
 527 563 470 657 356 657 c 0
EndSplineSet
Position2: "'cpsp' Capital Spacing lookup 0 subtable" dx=6 dy=0 dh=13 dv=0
EndChar

StartChar: Odieresis
Encoding: 214 214 77
Width: 712
VWidth: 1263
GlyphClass: 2
Flags: W
HStem: -14 124<275.528 436.568> 657 122<275.528 436.568> 864 122<203 314 399 510>
VStem: 38 148<216.516 549.345> 203 111<864 986> 399 111<864 986> 527 147<220.102 545.445>
LayerCount: 2
Back
Fore
SplineSet
203 864 m 1
 203 986 l 1
 314 986 l 1
 314 864 l 1
 203 864 l 1
399 864 m 1
 399 986 l 1
 510 986 l 1
 510 864 l 1
 399 864 l 1
356 779 m 0
 553 779 674 653 674 383 c 0
 674 113 553 -14 356 -14 c 0
 159 -14 38 113 38 383 c 0
 38 653 159 779 356 779 c 0
356 657 m 0
 242 657 186 563 186 410 c 2
 186 355 l 2
 186 202 242 110 356 110 c 0
 470 110 527 202 527 355 c 2
 527 410 l 2
 527 563 470 657 356 657 c 0
EndSplineSet
Position2: "'cpsp' Capital Spacing lookup 0 subtable" dx=6 dy=0 dh=13 dv=0
EndChar

StartChar: Ograve
Encoding: 210 210 78
Width: 712
VWidth: 1263
GlyphClass: 2
Flags: W
HStem: -14 124<275.528 436.568> 657 122<275.528 436.568>
VStem: 38 148<216.516 549.345> 527 147<220.102 545.445>
LayerCount: 2
Back
Fore
SplineSet
322 839 m 1
 200.524590164 984.770491803 l 1
 337 984.770491803 l 1
 433 839 l 1
 322 839 l 1
356 779 m 0
 553 779 674 653 674 383 c 0
 674 113 553 -14 356 -14 c 0
 159 -14 38 113 38 383 c 0
 38 653 159 779 356 779 c 0
356 657 m 0
 242 657 186 563 186 410 c 2
 186 355 l 2
 186 202 242 110 356 110 c 0
 470 110 527 202 527 355 c 2
 527 410 l 2
 527 563 470 657 356 657 c 0
EndSplineSet
Position2: "'cpsp' Capital Spacing lookup 0 subtable" dx=6 dy=0 dh=13 dv=0
EndChar

StartChar: Ohungarumlaut
Encoding: 336 336 79
Width: 712
VWidth: 1263
GlyphClass: 2
Flags: W
HStem: -14 124<275.528 436.568> 657 122<275.528 436.568>
VStem: 38 148<216.516 549.345> 527 147<220.102 545.445>
LayerCount: 2
Back
Fore
SplineSet
320 839 m 1
 231 839 l 1
 301 986 l 1
 412 986 l 1
 320 839 l 1
476 839 m 1
 388 839 l 1
 457 986 l 1
 568 986 l 1
 476 839 l 1
356 779 m 0
 553 779 674 653 674 383 c 0
 674 113 553 -14 356 -14 c 0
 159 -14 38 113 38 383 c 0
 38 653 159 779 356 779 c 0
356 657 m 0
 242 657 186 563 186 410 c 2
 186 355 l 2
 186 202 242 110 356 110 c 0
 470 110 527 202 527 355 c 2
 527 410 l 2
 527 563 470 657 356 657 c 0
EndSplineSet
Position2: "'cpsp' Capital Spacing lookup 0 subtable" dx=6 dy=0 dh=13 dv=0
EndChar

StartChar: Omacron
Encoding: 332 332 80
Width: 712
VWidth: 1263
GlyphClass: 2
Flags: W
HStem: -14 124<275.528 436.568> 657 122<275.528 436.568> 847 98<215 499>
VStem: 38 148<216.516 549.345> 527 147<220.102 545.445>
LayerCount: 2
Back
Fore
SplineSet
215 945 m 1
 499 945 l 1
 499 847 l 1
 215 847 l 1
 215 945 l 1
356 779 m 0
 553 779 674 653 674 383 c 0
 674 113 553 -14 356 -14 c 0
 159 -14 38 113 38 383 c 0
 38 653 159 779 356 779 c 0
356 657 m 0
 242 657 186 563 186 410 c 2
 186 355 l 2
 186 202 242 110 356 110 c 0
 470 110 527 202 527 355 c 2
 527 410 l 2
 527 563 470 657 356 657 c 0
EndSplineSet
Position2: "'cpsp' Capital Spacing lookup 0 subtable" dx=6 dy=0 dh=13 dv=0
EndChar

StartChar: Oslash
Encoding: 216 216 81
Width: 712
VWidth: 1263
GlyphClass: 2
Flags: W
HStem: -14 124<270.949 436.568> 657 122<275.528 438.319> 787 20G<562.222 669>
VStem: 38 148<217.834 549.345> 527 147<220.102 544.027>
AnchorPoint: "Anchor-1" 0 0 basechar 0
AnchorPoint: "Anchor-0" 356 765 basechar 0
LayerCount: 2
Back
Fore
SplineSet
674 383 m 0
 674 113 553 -14 356 -14 c 0
 289 -14 231 1 183 30 c 1
 139 -42 l 1
 44 -42 l 1
 123 83 l 1
 69 149 38 248 38 383 c 0
 38 653 159 779 356 779 c 0
 423 779 481 765 529 735 c 1
 575 807 l 1
 669 807 l 1
 590 681 l 1
 644 617 674 517 674 383 c 0
356 657 m 0
 242 657 186 563 186 410 c 2
 186 355 l 2
 186 302 192 255 206 216 c 1
 457 621 l 1
 432 644 398 657 356 657 c 0
356 110 m 0
 470 110 527 202 527 355 c 2
 527 410 l 2
 527 463 520 510 505 547 c 1
 255 144 l 1
 280 121 314 110 356 110 c 0
EndSplineSet
Position2: "'cpsp' Capital Spacing lookup 0 subtable" dx=6 dy=0 dh=13 dv=0
EndChar

StartChar: Oslashacute
Encoding: 510 510 82
Width: 712
VWidth: 1263
GlyphClass: 2
Flags: W
HStem: -14 124<270.949 436.568> 657 122<275.528 438.319> 787 20G<562.222 669>
VStem: 38 148<217.834 549.345> 527 147<220.102 544.027>
LayerCount: 2
Back
Fore
SplineSet
390 839 m 1
 279 839 l 1
 375 986 l 1
 510 986 l 1
 390 839 l 1
674 383 m 0
 674 113 553 -14 356 -14 c 0
 289 -14 231 1 183 30 c 1
 139 -42 l 1
 44 -42 l 1
 123 83 l 1
 69 149 38 248 38 383 c 0
 38 653 159 779 356 779 c 0
 423 779 481 765 529 735 c 1
 575 807 l 1
 669 807 l 1
 590 681 l 1
 644 617 674 517 674 383 c 0
356 657 m 0
 242 657 186 563 186 410 c 2
 186 355 l 2
 186 302 192 255 206 216 c 1
 457 621 l 1
 432 644 398 657 356 657 c 0
356 110 m 0
 470 110 527 202 527 355 c 2
 527 410 l 2
 527 463 520 510 505 547 c 1
 255 144 l 1
 280 121 314 110 356 110 c 0
EndSplineSet
Position2: "'cpsp' Capital Spacing lookup 0 subtable" dx=6 dy=0 dh=13 dv=0
EndChar

StartChar: Otilde
Encoding: 213 213 83
Width: 712
VWidth: 1263
GlyphClass: 2
Flags: W
HStem: -14 124<275.528 436.568> 657 122<275.528 436.568> 850 95<355.274 464.216> 890 96<249.031 356.185>
VStem: 38 148<216.516 549.345> 168 76<850 885.202> 470 74<950.426 986> 527 147<220.102 545.445>
LayerCount: 2
Back
Fore
SplineSet
544 986 m 1xd6
 544 924 512 850 434 850 c 0xe6
 380.632208193 849.051802527 338.261516853 888.880286015 287 890 c 0xd6
 263 890 248 880 244 850 c 1
 168 850 l 1xe6
 168 911 201 986 279 986 c 0xd6
 332.615740788 986.612783031 375.548519699 944.993859997 428 945 c 0xe6
 451 945 466 954 470 986 c 1
 544 986 l 1xd6
356 779 m 0
 553 779 674 653 674 383 c 0
 674 113 553 -14 356 -14 c 0
 159 -14 38 113 38 383 c 0xc9
 38 653 159 779 356 779 c 0
356 657 m 0
 242 657 186 563 186 410 c 2
 186 355 l 2
 186 202 242 110 356 110 c 0
 470 110 527 202 527 355 c 2
 527 410 l 2
 527 563 470 657 356 657 c 0
EndSplineSet
Position2: "'cpsp' Capital Spacing lookup 0 subtable" dx=6 dy=0 dh=13 dv=0
EndChar

StartChar: OE
Encoding: 338 338 84
Width: 915
VWidth: 1263
GlyphClass: 2
Flags: W
HStem: -14 124<245.179 383.856> 0 128<599 884> 328 128<599 829> 639 126<599 877> 657 122<245.179 383.856>
VStem: 34 147<197.813 568.013> 455 144<195.466 328 456 570.211>
AnchorPoint: "Anchor-1" 0 0 basechar 0
AnchorPoint: "Anchor-0" 457 765 basechar 0
LayerCount: 2
Back
Fore
SplineSet
288 779 m 0xae
 356 779 413 753 456 697 c 1
 456 765 l 1
 877 765 l 1
 877 639 l 1
 599 639 l 1
 599 456 l 1
 829 456 l 1
 829 328 l 1
 599 328 l 1
 599 128 l 1
 884 128 l 1
 884 0 l 1
 456 0 l 1x76
 456 68 l 1
 413 12 356 -14 288 -14 c 0
 130 -14 34 113 34 383 c 0
 34 653 130 779 288 779 c 0xae
317 657 m 0xae
 226 657 181 586 181 410 c 2
 181 355 l 2
 181 179 226 110 317 110 c 0
 409 110 455 179 455 355 c 2
 455 410 l 2
 455 586 409 657 317 657 c 0xae
EndSplineSet
Position2: "'cpsp' Capital Spacing lookup 0 subtable" dx=6 dy=0 dh=13 dv=0
EndChar

StartChar: P
Encoding: 80 80 85
Width: 611
VWidth: 1263
GlyphClass: 2
Flags: W
HStem: 0 21G<67 210> 297 126<210 392.656> 639 126<210 396.676>
VStem: 67 143<0 297 423 639> 433 148<460.928 602.705>
LayerCount: 2
Back
Fore
SplineSet
67 0 m 1
 67 765 l 1
 341 765 l 2
 499 765 581 670 581 536 c 0
 581 392 485 297 341 297 c 2
 210 297 l 1
 210 0 l 1
 67 0 l 1
326 423 m 2
 395 423 433 467 433 536 c 0
 433 599 394 639 326 639 c 2
 210 639 l 1
 210 423 l 1
 326 423 l 2
EndSplineSet
Position2: "'cpsp' Capital Spacing lookup 0 subtable" dx=6 dy=0 dh=13 dv=0
EndChar

StartChar: Thorn
Encoding: 222 222 86
Width: 611
VWidth: 1263
GlyphClass: 2
Flags: W
HStem: 0 21G<67 210> 160 127<210 392.656> 503 127<210 396.676> 745 20G<67 210>
VStem: 67 143<0 160 287 503 630 765> 433 148<327.058 465.987>
LayerCount: 2
Back
Fore
SplineSet
341 630 m 2
 499 630 581 533 581 399 c 0
 581 255 485 160 341 160 c 2
 210 160 l 1
 210 0 l 1
 67 0 l 1
 67 765 l 1
 210 765 l 1
 210 630 l 1
 341 630 l 2
210 287 m 1
 326 287 l 2
 395 287 433 330 433 399 c 0
 433 462 394 503 326 503 c 2
 210 503 l 1
 210 287 l 1
EndSplineSet
Position2: "'cpsp' Capital Spacing lookup 0 subtable" dx=6 dy=0 dh=13 dv=0
EndChar

StartChar: Q
Encoding: 81 81 87
Width: 712
VWidth: 1263
GlyphClass: 2
Flags: W
HStem: -14 124<277.525 370> 657 122<275.528 436.568>
VStem: 38 148<216.516 549.345> 527 147<220.102 545.445>
LayerCount: 2
Back
Fore
SplineSet
38 383 m 0
 38 653 159 779 356 779 c 0
 553 779 674 653 674 383 c 0
 674 191 613 72 508 19 c 1
 655 -139 l 1
 480 -139 l 1
 370 -14 l 1
 356 -14 l 2
 159 -14 38 113 38 383 c 0
186 355 m 2
 186 202 242 110 356 110 c 0
 470 110 527 202 527 355 c 2
 527 410 l 2
 527 563 470 657 356 657 c 0
 242 657 186 563 186 410 c 2
 186 355 l 2
EndSplineSet
Position2: "'cpsp' Capital Spacing lookup 0 subtable" dx=6 dy=0 dh=13 dv=0
EndChar

StartChar: R
Encoding: 82 82 88
Width: 660
VWidth: 1263
GlyphClass: 2
Flags: W
HStem: 0 21G<67 210 478.062 640> 320 126<210 359> 639 126<210 436.095>
VStem: 67 143<0 320 446 639> 467 154<477.26 610.57>
AnchorPoint: "Anchor-1" 331 0 basechar 0
AnchorPoint: "Anchor-0" 331 765 basechar 0
LayerCount: 2
Back
Fore
SplineSet
388 765 m 2
 543 765 621 673 621 547 c 0
 621 455 572 383 494 351 c 1
 640 0 l 1
 486 0 l 1
 359 320 l 1
 210 320 l 1
 210 0 l 1
 67 0 l 1
 67 765 l 1
 388 765 l 2
210 446 m 1
 368 446 l 2
 437 446 467 484 467 547 c 0
 467 603 439 639 373 639 c 2
 210 639 l 1
 210 446 l 1
EndSplineSet
Position2: "'cpsp' Capital Spacing lookup 0 subtable" dx=6 dy=0 dh=13 dv=0
EndChar

StartChar: Racute
Encoding: 340 340 89
Width: 660
VWidth: 1263
GlyphClass: 2
Flags: W
HStem: 0 21G<67 210 478.062 640> 320 126<210 359> 639 126<210 436.095>
VStem: 67 143<0 320 446 639> 467 154<477.26 610.57>
LayerCount: 2
Back
Fore
SplineSet
364 839 m 1
 254 839 l 1
 350 986 l 1
 484 986 l 1
 364 839 l 1
388 765 m 2
 543 765 621 673 621 547 c 0
 621 455 572 383 494 351 c 1
 640 0 l 1
 486 0 l 1
 359 320 l 1
 210 320 l 1
 210 0 l 1
 67 0 l 1
 67 765 l 1
 388 765 l 2
210 446 m 1
 368 446 l 2
 437 446 467 484 467 547 c 0
 467 603 439 639 373 639 c 2
 210 639 l 1
 210 446 l 1
EndSplineSet
Position2: "'cpsp' Capital Spacing lookup 0 subtable" dx=6 dy=0 dh=13 dv=0
EndChar

StartChar: Rcaron
Encoding: 344 344 90
Width: 660
VWidth: 1263
GlyphClass: 2
Flags: W
HStem: 0 21G<67 210 478.062 640> 320 126<210 359> 639 126<210 436.095>
VStem: 67 143<0 320 446 639> 467 154<477.26 610.57>
LayerCount: 2
Back
Fore
SplineSet
277 835 m 1
 181 986 l 1
 280 986 l 1
 331 909 l 1
 380 986 l 1
 481 986 l 1
 386 835 l 1
 277 835 l 1
388 765 m 2
 543 765 621 673 621 547 c 0
 621 455 572 383 494 351 c 1
 640 0 l 1
 486 0 l 1
 359 320 l 1
 210 320 l 1
 210 0 l 1
 67 0 l 1
 67 765 l 1
 388 765 l 2
210 446 m 1
 368 446 l 2
 437 446 467 484 467 547 c 0
 467 603 439 639 373 639 c 2
 210 639 l 1
 210 446 l 1
EndSplineSet
Position2: "'cpsp' Capital Spacing lookup 0 subtable" dx=6 dy=0 dh=13 dv=0
EndChar

StartChar: Rcommaaccent
Encoding: 342 342 91
Width: 660
VWidth: 1263
GlyphClass: 2
Flags: W
HStem: 0 21G<67 210 478.062 640> 320 126<210 359> 639 126<210 436.095>
VStem: 67 143<0 320 446 639> 261 138<-187 -62> 467 154<477.26 610.57>
LayerCount: 2
Back
Fore
SplineSet
388 765 m 2
 543 765 621 673 621 547 c 0
 621 455 572 383 494 351 c 1
 640 0 l 1
 486 0 l 1
 359 320 l 1
 210 320 l 1
 210 0 l 1
 67 0 l 1
 67 765 l 1
 388 765 l 2
210 446 m 1
 368 446 l 2
 437 446 467 484 467 547 c 0
 467 603 439 639 373 639 c 2
 210 639 l 1
 210 446 l 1
261 -198 m 1
 261 -62 l 1
 399 -62 l 1
 399 -187 l 1
 349 -293 l 1
 277 -293 l 1
 316 -198 l 1
 261 -198 l 1
EndSplineSet
Position2: "'cpsp' Capital Spacing lookup 0 subtable" dx=6 dy=0 dh=13 dv=0
EndChar

StartChar: S
Encoding: 83 83 92
Width: 611
VWidth: 1263
GlyphClass: 2
Flags: W
HStem: -14 124<228.436 383.62> 657 122<229.156 366.495>
VStem: 34 149<156.592 249> 49 148<521.605 627.65> 408 145<541 614.378> 421 147<146.02 261.065>
AnchorPoint: "Anchor-1" 306 0 basechar 0
AnchorPoint: "Anchor-0" 306 765 basechar 0
LayerCount: 2
Back
Fore
SplineSet
304 779 m 0xd4
 440 779 553 711 553 553 c 2
 553 541 l 1
 408 541 l 1
 408 605 369 657 303 657 c 0
 235 657 197 622 197 575 c 0xd8
 197 509 264 487 342 462 c 0
 446 429 568 392 568 230 c 0
 568 54 457 -14 298 -14 c 0
 158 -14 34 67 34 225 c 2
 34 249 l 1
 183 249 l 1
 183 231 l 2xe4
 183 159 226 110 304 110 c 0
 390 110 421 156 421 200 c 0
 421 281 349 304 268 331 c 0
 166 364 49 403 49 565 c 0
 49 710 169 779 304 779 c 0xd4
EndSplineSet
Position2: "'cpsp' Capital Spacing lookup 0 subtable" dx=6 dy=0 dh=13 dv=0
EndChar

StartChar: Sacute
Encoding: 346 346 93
Width: 611
VWidth: 1263
GlyphClass: 2
Flags: W
HStem: -14 124<228.436 383.62> 657 122<229.156 366.495>
VStem: 34 149<156.592 249> 49 148<521.605 627.65> 408 145<541 614.378> 421 147<146.02 261.065>
LayerCount: 2
Back
Fore
SplineSet
340 839 m 1xc0
 229 839 l 1
 325 986 l 1
 458 986 l 1
 340 839 l 1xc0
304 779 m 0
 440 779 553 711 553 553 c 2
 553 541 l 1
 408 541 l 1
 408 605 369 657 303 657 c 0
 235 657 197 622 197 575 c 0xd8
 197 509 264 487 342 462 c 0
 446 429 568 392 568 230 c 0
 568 54 457 -14 298 -14 c 0
 158 -14 34 67 34 225 c 2
 34 249 l 1
 183 249 l 1
 183 231 l 2xe4
 183 159 226 110 304 110 c 0
 390 110 421 156 421 200 c 0
 421 281 349 304 268 331 c 0
 166 364 49 403 49 565 c 0xd4
 49 710 169 779 304 779 c 0
EndSplineSet
Position2: "'cpsp' Capital Spacing lookup 0 subtable" dx=6 dy=0 dh=13 dv=0
EndChar

StartChar: Scaron
Encoding: 352 352 94
Width: 611
VWidth: 1263
GlyphClass: 2
Flags: W
HStem: -14 124<228.436 383.62> 657 122<229.156 366.495>
VStem: 34 149<156.592 249> 49 148<521.605 627.65> 408 145<541 614.378> 421 147<146.02 261.065>
LayerCount: 2
Back
Fore
SplineSet
155 986 m 1xc0
 255 986 l 1
 306 909 l 1
 355 986 l 1
 456 986 l 1
 361 835 l 1
 251 835 l 1
 155 986 l 1xc0
304 779 m 0
 440 779 553 711 553 553 c 2
 553 541 l 1
 408 541 l 1
 408 605 369 657 303 657 c 0
 235 657 197 622 197 575 c 0xd8
 197 509 264 487 342 462 c 0
 446 429 568 392 568 230 c 0
 568 54 457 -14 298 -14 c 0
 158 -14 34 67 34 225 c 2
 34 249 l 1
 183 249 l 1
 183 231 l 2xe4
 183 159 226 110 304 110 c 0
 390 110 421 156 421 200 c 0
 421 281 349 304 268 331 c 0
 166 364 49 403 49 565 c 0xd4
 49 710 169 779 304 779 c 0
EndSplineSet
Position2: "'cpsp' Capital Spacing lookup 0 subtable" dx=6 dy=0 dh=13 dv=0
EndChar

StartChar: Scedilla
Encoding: 350 350 95
Width: 611
VWidth: 1263
GlyphClass: 2
Flags: W
HStem: -203 63<198.318 315.957> -195 55<197 290.498> -13 123<230.757 242 327 384.511> 657 122<229.156 366.495>
VStem: 34 149<157.802 249> 49 148<521.605 627.65> 242 85<-40.1041 -11.3289> 317 96<-137.957 -87.7718> 408 145<541 614.378> 421 147<145.434 261.065>
LayerCount: 2
Back
Fore
SplineSet
304 779 m 0xb440
 440 779 553 711 553 553 c 2
 553 541 l 1
 408 541 l 1xb480
 408 605 369 657 303 657 c 0
 235 657 197 622 197 575 c 0
 197 509 264 487 342 462 c 0
 446 429 568 392 568 230 c 0
 568 66 470 -4 327 -13 c 1
 327 -37 l 1xb640
 375 -41 413 -61 413 -112 c 0
 413 -188 340 -203 292 -203 c 0xb1
 260 -203 225 -200 197 -195 c 1
 197 -140 l 1x75
 277 -140 l 2
 302 -140 317 -133 317 -112 c 0xb5
 317 -94 308 -86 279 -86 c 2
 242 -86 l 1
 242 -10 l 1
 121 5 34 84 34 225 c 2
 34 249 l 1
 183 249 l 1
 183 231 l 2xba
 183 159 226 110 304 110 c 0
 390 110 421 156 421 200 c 0
 421 281 349 304 268 331 c 0
 166 364 49 403 49 565 c 0
 49 710 169 779 304 779 c 0xb440
EndSplineSet
Substitution2: "'locl' Localized Forms in Latin lookup 6 subtable" Scommaaccent
Substitution2: "'locl' Localized Forms in Latin lookup 5 subtable" Scommaaccent
Substitution2: "'aalt' Access All Alternates lookup 0 subtable" Scommaaccent
Position2: "'cpsp' Capital Spacing lookup 0 subtable" dx=6 dy=0 dh=13 dv=0
EndChar

StartChar: Scircumflex
Encoding: 348 348 96
Width: 611
VWidth: 1263
GlyphClass: 2
Flags: W
HStem: -14 124<228.436 383.62> 657 122<229.156 366.495>
VStem: 34 149<156.592 249> 49 148<521.605 627.65> 408 145<541 614.378> 421 147<146.02 261.065>
LayerCount: 2
Back
Fore
SplineSet
306 912 m 1xc0
 255 835 l 1
 155 835 l 1
 251 986 l 1
 361 986 l 1
 456 835 l 1
 355 835 l 1
 306 912 l 1xc0
304 779 m 0
 440 779 553 711 553 553 c 2
 553 541 l 1
 408 541 l 1
 408 605 369 657 303 657 c 0
 235 657 197 622 197 575 c 0xd8
 197 509 264 487 342 462 c 0
 446 429 568 392 568 230 c 0
 568 54 457 -14 298 -14 c 0
 158 -14 34 67 34 225 c 2
 34 249 l 1
 183 249 l 1
 183 231 l 2xe4
 183 159 226 110 304 110 c 0
 390 110 421 156 421 200 c 0
 421 281 349 304 268 331 c 0
 166 364 49 403 49 565 c 0xd4
 49 710 169 779 304 779 c 0
EndSplineSet
Position2: "'cpsp' Capital Spacing lookup 0 subtable" dx=6 dy=0 dh=13 dv=0
EndChar

StartChar: Scommaaccent
Encoding: 536 536 97
Width: 611
VWidth: 1263
GlyphClass: 2
Flags: W
HStem: -14 124<228.436 383.62> 657 122<229.156 366.495>
VStem: 34 149<156.592 249> 49 148<521.605 627.65> 236 139<-187 -62> 408 145<541 614.378> 421 147<146.02 261.065>
AnchorPoint: "Anchor-1" 306 0 basechar 0
AnchorPoint: "Anchor-0" 306 765 basechar 0
LayerCount: 2
Back
Fore
SplineSet
304 779 m 0xda
 440 779 553 711 553 553 c 2
 553 541 l 1
 408 541 l 1
 408 605 369 657 303 657 c 0
 235 657 197 622 197 575 c 0xdc
 197 509 264 487 342 462 c 0
 446 429 568 392 568 230 c 0
 568 54 457 -14 298 -14 c 0
 158 -14 34 67 34 225 c 2
 34 249 l 1
 183 249 l 1
 183 231 l 2xea
 183 159 226 110 304 110 c 0
 390 110 421 156 421 200 c 0
 421 281 349 304 268 331 c 0
 166 364 49 403 49 565 c 0
 49 710 169 779 304 779 c 0xda
236 -198 m 1
 236 -62 l 1
 375 -62 l 1
 375 -187 l 1
 323 -293 l 1
 251 -293 l 1
 292 -198 l 1
 236 -198 l 1
EndSplineSet
Position2: "'cpsp' Capital Spacing lookup 0 subtable" dx=6 dy=0 dh=13 dv=0
EndChar

StartChar: T
Encoding: 84 84 98
Width: 559
VWidth: 1263
GlyphClass: 2
Flags: W
HStem: 0 21G<208 351> 639 126<19 208 351 542>
VStem: 208 143<0 639>
AnchorPoint: "Anchor-1" 280 0 basechar 0
AnchorPoint: "Anchor-0" 280 765 basechar 0
LayerCount: 2
Back
Fore
SplineSet
351 639 m 1
 351 0 l 1
 208 0 l 1
 208 639 l 1
 19 639 l 1
 19 765 l 1
 542 765 l 1
 542 639 l 1
 351 639 l 1
EndSplineSet
Position2: "'cpsp' Capital Spacing lookup 0 subtable" dx=6 dy=0 dh=13 dv=0
EndChar

StartChar: Tbar
Encoding: 358 358 99
Width: 559
VWidth: 1263
GlyphClass: 2
Flags: W
HStem: 0 21G<208 351> 342 96<82 208 351 476> 639 126<19 208 351 542>
VStem: 208 143<0 342 438 639>
LayerCount: 2
Back
Fore
SplineSet
351 639 m 1
 351 438 l 1
 476 438 l 1
 476 342 l 1
 351 342 l 1
 351 0 l 1
 208 0 l 1
 208 342 l 1
 82 342 l 1
 82 438 l 1
 208 438 l 1
 208 639 l 1
 19 639 l 1
 19 765 l 1
 542 765 l 1
 542 639 l 1
 351 639 l 1
EndSplineSet
Position2: "'cpsp' Capital Spacing lookup 0 subtable" dx=6 dy=0 dh=13 dv=0
EndChar

StartChar: Tcaron
Encoding: 356 356 100
Width: 559
VWidth: 1263
GlyphClass: 2
Flags: W
HStem: 0 21G<208 351> 639 126<19 208 351 542>
VStem: 208 143<0 639>
LayerCount: 2
Back
Fore
SplineSet
226 835 m 1
 130 986 l 1
 230 986 l 1
 280 909 l 1
 330 986 l 1
 429 986 l 1
 335 835 l 1
 226 835 l 1
351 639 m 1
 351 0 l 1
 208 0 l 1
 208 639 l 1
 19 639 l 1
 19 765 l 1
 542 765 l 1
 542 639 l 1
 351 639 l 1
EndSplineSet
Position2: "'cpsp' Capital Spacing lookup 0 subtable" dx=6 dy=0 dh=13 dv=0
EndChar

StartChar: uni0162
Encoding: 354 354 101
Width: 559
VWidth: 1263
GlyphClass: 2
Flags: W
HStem: -203 63<173.271 288.957> -195 55<172 263.499> 639 126<19 208 351 542>
VStem: 208 143<0 639> 227 76<-40.1041 0> 290 96<-138.059 -87.6906>
AnchorPoint: "Anchor-1" 280 0 basechar 0
AnchorPoint: "Anchor-0" 280 765 basechar 0
LayerCount: 2
Back
Fore
SplineSet
386 -112 m 0xa4
 386 -188 313 -203 265 -203 c 0xa4
 233 -203 199 -200 172 -195 c 1
 172 -140 l 1x64
 251 -140 l 2
 275 -140 290 -133 290 -112 c 0xa4
 290 -94 282 -86 253 -86 c 2
 216 -86 l 1
 227 0 l 1xa8
 208 0 l 1
 208 639 l 1
 19 639 l 1
 19 765 l 1
 542 765 l 1
 542 639 l 1
 351 639 l 1
 351 0 l 1xb0
 303 0 l 1
 303 -37 l 1xa8
 351 -41 386 -61 386 -112 c 0xa4
EndSplineSet
Substitution2: "'locl' Localized Forms in Latin lookup 6 subtable" uni021A
Substitution2: "'locl' Localized Forms in Latin lookup 5 subtable" uni021A
Substitution2: "'aalt' Access All Alternates lookup 0 subtable" uni021A
Position2: "'cpsp' Capital Spacing lookup 0 subtable" dx=6 dy=0 dh=13 dv=0
EndChar

StartChar: uni021A
Encoding: 538 538 102
Width: 559
VWidth: 1263
GlyphClass: 2
Flags: W
HStem: 0 21G<208 351> 639 126<19 208 351 542>
VStem: 208 143<-187 -62 0 639>
LayerCount: 2
Back
Fore
SplineSet
351 639 m 1
 351 0 l 1
 208 0 l 1
 208 639 l 1
 19 639 l 1
 19 765 l 1
 542 765 l 1
 542 639 l 1
 351 639 l 1
211 -198 m 1
 211 -62 l 1
 349 -62 l 1
 349 -187 l 1
 298 -293 l 1
 226 -293 l 1
 265 -198 l 1
 211 -198 l 1
EndSplineSet
Position2: "'cpsp' Capital Spacing lookup 0 subtable" dx=6 dy=0 dh=13 dv=0
EndChar

StartChar: U
Encoding: 85 85 103
Width: 660
VWidth: 1263
GlyphClass: 2
Flags: W
HStem: -14 124<258.158 403.842> 745 20G<68 211 451 594>
VStem: 68 143<161.016 765> 451 143<161.016 765>
AnchorPoint: "Anchor-1" 0 0 basechar 0
AnchorPoint: "Anchor-0" 331 765 basechar 0
LayerCount: 2
Back
Fore
SplineSet
594 240 m 2
 594 73 495 -14 331 -14 c 0
 167 -14 68 73 68 240 c 2
 68 765 l 1
 211 765 l 1
 211 245 l 2
 211 157 255 110 331 110 c 0
 407 110 451 157 451 245 c 2
 451 765 l 1
 594 765 l 1
 594 240 l 2
EndSplineSet
Position2: "'cpsp' Capital Spacing lookup 0 subtable" dx=6 dy=0 dh=13 dv=0
EndChar

StartChar: Uacute
Encoding: 218 218 104
Width: 660
VWidth: 1263
GlyphClass: 2
Flags: W
HStem: -14 124<258.158 403.842> 745 20G<68 211 451 594>
VStem: 68 143<161.016 765> 451 143<161.016 765>
LayerCount: 2
Back
Fore
SplineSet
364 839 m 1
 254 839 l 1
 350 986 l 1
 484 986 l 1
 364 839 l 1
594 240 m 2
 594 73 495 -14 331 -14 c 0
 167 -14 68 73 68 240 c 2
 68 765 l 1
 211 765 l 1
 211 245 l 2
 211 157 255 110 331 110 c 0
 407 110 451 157 451 245 c 2
 451 765 l 1
 594 765 l 1
 594 240 l 2
EndSplineSet
Position2: "'cpsp' Capital Spacing lookup 0 subtable" dx=6 dy=0 dh=13 dv=0
EndChar

StartChar: Ubreve
Encoding: 364 364 105
Width: 660
VWidth: 1263
GlyphClass: 2
Flags: W
HStem: -14 124<258.158 403.842> 745 20G<68 211 451 594> 866 83<274.477 388.824>
VStem: 68 143<161.016 765> 451 143<161.016 765>
LayerCount: 2
Back
Fore
SplineSet
480 986 m 1
 480 929 422 866 330 866 c 0
 238 866 182 929 182 986 c 1
 265 986 l 1
 268 970 293 949 330 949 c 0
 369 949 396 970 397 986 c 1
 480 986 l 1
594 240 m 2
 594 73 495 -14 331 -14 c 0
 167 -14 68 73 68 240 c 2
 68 765 l 1
 211 765 l 1
 211 245 l 2
 211 157 255 110 331 110 c 0
 407 110 451 157 451 245 c 2
 451 765 l 1
 594 765 l 1
 594 240 l 2
EndSplineSet
Position2: "'cpsp' Capital Spacing lookup 0 subtable" dx=6 dy=0 dh=13 dv=0
EndChar

StartChar: Ucircumflex
Encoding: 219 219 106
Width: 660
VWidth: 1263
GlyphClass: 2
Flags: W
HStem: -14 124<258.158 403.842> 745 20G<68 211 451 594>
VStem: 68 143<161.016 765> 451 143<161.016 765>
LayerCount: 2
Back
Fore
SplineSet
380 835 m 1
 331 912 l 1
 280 835 l 1
 181 835 l 1
 277 986 l 1
 386 986 l 1
 481 835 l 1
 380 835 l 1
594 240 m 2
 594 73 495 -14 331 -14 c 0
 167 -14 68 73 68 240 c 2
 68 765 l 1
 211 765 l 1
 211 245 l 2
 211 157 255 110 331 110 c 0
 407 110 451 157 451 245 c 2
 451 765 l 1
 594 765 l 1
 594 240 l 2
EndSplineSet
Position2: "'cpsp' Capital Spacing lookup 0 subtable" dx=6 dy=0 dh=13 dv=0
EndChar

StartChar: Udieresis
Encoding: 220 220 107
Width: 660
VWidth: 1263
GlyphClass: 2
Flags: W
HStem: -14 124<258.158 403.842> 745 20G<68 211 451 594> 864 122<178 289 371 485>
VStem: 68 143<161.016 765> 178 111<864 986> 371 114<864 986> 451 143<161.016 765>
LayerCount: 2
Back
Fore
SplineSet
178 864 m 1xe8
 178 986 l 1
 289 986 l 1
 289 864 l 1
 178 864 l 1xe8
371 864 m 1xe4
 371 986 l 1
 485 986 l 1
 485 864 l 1
 371 864 l 1xe4
594 240 m 2xf2
 594 73 495 -14 331 -14 c 0
 167 -14 68 73 68 240 c 2
 68 765 l 1
 211 765 l 1
 211 245 l 2
 211 157 255 110 331 110 c 0
 407 110 451 157 451 245 c 2
 451 765 l 1
 594 765 l 1
 594 240 l 2xf2
EndSplineSet
Position2: "'cpsp' Capital Spacing lookup 0 subtable" dx=6 dy=0 dh=13 dv=0
EndChar

StartChar: Ugrave
Encoding: 217 217 108
Width: 660
VWidth: 1263
GlyphClass: 2
Flags: W
HStem: -14 124<258.158 403.842> 745 20G<68 211 451 594>
VStem: 68 143<161.016 765> 451 143<161.016 765>
LayerCount: 2
Back
Fore
SplineSet
297 839 m 1
 175.524590164 984.770491803 l 1
 312 984.770491803 l 1
 408 839 l 1
 297 839 l 1
594 240 m 2
 594 73 495 -14 331 -14 c 0
 167 -14 68 73 68 240 c 2
 68 765 l 1
 211 765 l 1
 211 245 l 2
 211 157 255 110 331 110 c 0
 407 110 451 157 451 245 c 2
 451 765 l 1
 594 765 l 1
 594 240 l 2
EndSplineSet
Position2: "'cpsp' Capital Spacing lookup 0 subtable" dx=6 dy=0 dh=13 dv=0
EndChar

StartChar: Uhungarumlaut
Encoding: 368 368 109
Width: 660
VWidth: 1263
GlyphClass: 2
Flags: W
HStem: -14 124<258.158 403.842> 745 20G<68 211 451 594>
VStem: 68 143<161.016 765> 451 143<161.016 765>
LayerCount: 2
Back
Fore
SplineSet
293 839 m 1
 205 839 l 1
 274 986 l 1
 385 986 l 1
 293 839 l 1
448 839 m 1
 361 839 l 1
 429 986 l 1
 542 986 l 1
 448 839 l 1
594 240 m 2
 594 73 495 -14 331 -14 c 0
 167 -14 68 73 68 240 c 2
 68 765 l 1
 211 765 l 1
 211 245 l 2
 211 157 255 110 331 110 c 0
 407 110 451 157 451 245 c 2
 451 765 l 1
 594 765 l 1
 594 240 l 2
EndSplineSet
Position2: "'cpsp' Capital Spacing lookup 0 subtable" dx=6 dy=0 dh=13 dv=0
EndChar

StartChar: Umacron
Encoding: 362 362 110
Width: 660
VWidth: 1263
GlyphClass: 2
Flags: W
HStem: -14 124<258.158 403.842> 745 20G<68 211 451 594> 847 98<188 474>
VStem: 68 143<161.016 765> 451 143<161.016 765>
LayerCount: 2
Back
Fore
SplineSet
188 847 m 1
 188 945 l 1
 474 945 l 1
 474 847 l 1
 188 847 l 1
594 240 m 2
 594 73 495 -14 331 -14 c 0
 167 -14 68 73 68 240 c 2
 68 765 l 1
 211 765 l 1
 211 245 l 2
 211 157 255 110 331 110 c 0
 407 110 451 157 451 245 c 2
 451 765 l 1
 594 765 l 1
 594 240 l 2
EndSplineSet
Position2: "'cpsp' Capital Spacing lookup 0 subtable" dx=6 dy=0 dh=13 dv=0
EndChar

StartChar: Uogonek
Encoding: 370 370 111
Width: 660
VWidth: 1263
GlyphClass: 2
Flags: W
HStem: -207 77<427.461 492.737> -191 61<427.461 494> -14 124<259.633 341.475> 745 20G<68 211 451 594>
VStem: 68 143<161.195 765> 309 109<-120.741 -30.4856> 451 143<162.641 765>
LayerCount: 2
Back
Fore
SplineSet
594 765 m 1xbe
 594 249 l 2
 594 123 543 40 452 5 c 1
 438 -10 418 -42 418 -72 c 0
 418 -101 432 -130 469 -130 c 2xbe
 494 -130 l 1
 494 -191 l 1x7e
 467 -201 444 -207 419 -207 c 0
 368 -207 309 -183 309 -106 c 0
 309 -67 323 -38 342 -14 c 1
 331 -14 l 2
 167 -14 68 77 68 249 c 2
 68 765 l 1
 211 765 l 1
 211 254 l 2
 211 159 255 110 331 110 c 0
 407 110 451 159 451 254 c 2
 451 765 l 1
 594 765 l 1xbe
EndSplineSet
Position2: "'cpsp' Capital Spacing lookup 0 subtable" dx=6 dy=0 dh=13 dv=0
EndChar

StartChar: Uring
Encoding: 366 366 112
Width: 660
VWidth: 1263
GlyphClass: 2
Flags: W
HStem: -14 124<258.158 403.842> 745 20G<68 211 451 594> 805 56<289.164 371.039> 964 55<288.953 371.039>
VStem: 68 143<161.016 765> 224 55<871.079 954.047> 381 57<869.94 954.19> 451 143<161.016 765>
LayerCount: 2
Back
Fore
SplineSet
331 1019 m 0
 390 1019 438 970 438 912 c 0
 438 853 390 805 331 805 c 0
 273 805 224 851 224 912 c 0
 224 971 272 1019 331 1019 c 0
331 964 m 0
 302 964 279 941 279 912 c 0
 279 883 302 861 331 861 c 0
 359 861 381 883 381 912 c 0
 381 941 359 964 331 964 c 0
594 240 m 2
 594 73 495 -14 331 -14 c 0
 167 -14 68 73 68 240 c 2
 68 765 l 1
 211 765 l 1
 211 245 l 2
 211 157 255 110 331 110 c 0
 407 110 451 157 451 245 c 2
 451 765 l 1
 594 765 l 1
 594 240 l 2
EndSplineSet
Position2: "'cpsp' Capital Spacing lookup 0 subtable" dx=6 dy=0 dh=13 dv=0
EndChar

StartChar: Utilde
Encoding: 360 360 113
Width: 660
VWidth: 1263
GlyphClass: 2
Flags: W
HStem: -14 124<258.158 403.842> 745 20G<68 211 451 594> 850 95<328.853 438.216> 890 96<222.784 331.086>
VStem: 68 143<161.016 765> 143 73<850 885.202> 445 73<950.426 986> 451 143<161.016 765>
LayerCount: 2
Back
Fore
SplineSet
518 986 m 1xd6
 518 924 486 850 408 850 c 0xe6
 354.434622406 849.183062315 311.751388248 889.053519299 260 890 c 0xd6
 236 890 221 880 216 850 c 1
 143 850 l 1xe6
 143 911 175 986 253 986 c 0xd6
 305.996163163 986.283599762 349.671792969 946.027631689 400 945 c 0xe6
 424 945 440 954 445 986 c 1
 518 986 l 1xd6
594 240 m 2xc9
 594 73 495 -14 331 -14 c 0
 167 -14 68 73 68 240 c 2
 68 765 l 1
 211 765 l 1
 211 245 l 2
 211 157 255 110 331 110 c 0
 407 110 451 157 451 245 c 2
 451 765 l 1
 594 765 l 1
 594 240 l 2xc9
EndSplineSet
Position2: "'cpsp' Capital Spacing lookup 0 subtable" dx=6 dy=0 dh=13 dv=0
EndChar

StartChar: V
Encoding: 86 86 114
Width: 611
VWidth: 1263
GlyphClass: 2
Flags: W
HStem: 0 21G<227.882 384.092> 745 20G<0 153.839 465.051 611>
LayerCount: 2
Back
Fore
SplineSet
0 765 m 1
 148 765 l 1
 308 217 l 1
 471 765 l 1
 611 765 l 1
 378 0 l 1
 234 0 l 1
 0 765 l 1
EndSplineSet
Position2: "'cpsp' Capital Spacing lookup 0 subtable" dx=6 dy=0 dh=13 dv=0
EndChar

StartChar: W
Encoding: 87 87 115
Width: 863
VWidth: 1263
GlyphClass: 2
Flags: W
HStem: 0 21G<162.634 315.18 548.697 701.34> 745 20G<0 144.641 356.008 525.638 736.051 863>
AnchorPoint: "Anchor-1" 0 0 basechar 0
AnchorPoint: "Anchor-0" 432 765 basechar 0
LayerCount: 2
Back
Fore
SplineSet
448 488 m 2
 439 527 435.46603473 595.484558315 435.46603473 595.484558315 c 1
 311 0 l 1
 167 0 l 1
 0 765 l 1
 141 765 l 1
 245.474119252 191.152235829 l 1
 360 765 l 1
 522 765 l 1
 626.53467606 190.353036818 l 1
 740 765 l 1
 863 765 l 1
 697 0 l 1
 553 0 l 1
 448 488 l 2
EndSplineSet
Position2: "'cpsp' Capital Spacing lookup 0 subtable" dx=6 dy=0 dh=13 dv=0
EndChar

StartChar: Wacute
Encoding: 7810 7810 116
Width: 863
VWidth: 1263
GlyphClass: 2
Flags: W
HStem: 0 21G<162.634 315.18 549.009 701.34> 745 20G<0 144.641 356.008 525.638 736.051 863>
LayerCount: 2
Back
Fore
SplineSet
466 839 m 1
 355 839 l 1
 451 986 l 1
 585 986 l 1
 466 839 l 1
553 0 m 1
 434.797210327 592.284692546 l 1
 311 0 l 1
 167 0 l 1
 0 765 l 1
 141 765 l 1
 245.474119252 191.152235829 l 1
 360 765 l 1
 522 765 l 1
 626.53467606 190.353036818 l 1
 740 765 l 1
 863 765 l 1
 697 0 l 1
 553 0 l 1
EndSplineSet
Position2: "'cpsp' Capital Spacing lookup 0 subtable" dx=6 dy=0 dh=13 dv=0
EndChar

StartChar: Wcircumflex
Encoding: 372 372 117
Width: 863
VWidth: 1263
GlyphClass: 2
Flags: W
HStem: 0 21G<162.634 315.18 548.697 701.34> 745 20G<0 144.641 356.008 525.638 736.051 863>
LayerCount: 2
Back
Fore
SplineSet
433 912 m 1
 383 835 l 1
 283 835 l 1
 379 986 l 1
 488 986 l 1
 582 835 l 1
 482 835 l 1
 433 912 l 1
448 488 m 2
 439 527 435.46603473 595.484558315 435.46603473 595.484558315 c 1
 311 0 l 1
 167 0 l 1
 0 765 l 1
 141 765 l 1
 245.474119252 191.152235829 l 1
 360 765 l 1
 522 765 l 1
 626.53467606 190.353036818 l 1
 740 765 l 1
 863 765 l 1
 697 0 l 1
 553 0 l 1
 448 488 l 2
EndSplineSet
Position2: "'cpsp' Capital Spacing lookup 0 subtable" dx=6 dy=0 dh=13 dv=0
EndChar

StartChar: Wdieresis
Encoding: 7812 7812 118
Width: 863
VWidth: 1263
GlyphClass: 2
Flags: W
HStem: 0 21G<162.634 315.18 549.009 701.34> 745 20G<0 144.641 356.008 525.638 736.051 863> 864 122<279 390 475 586>
VStem: 279 111<864 986> 475 111<864 986>
LayerCount: 2
Back
Fore
SplineSet
279 864 m 1
 279 986 l 1
 390 986 l 1
 390 864 l 1
 279 864 l 1
475 864 m 1
 475 986 l 1
 586 986 l 1
 586 864 l 1
 475 864 l 1
553 0 m 1
 434.797210327 592.284692546 l 1
 311 0 l 1
 167 0 l 1
 0 765 l 1
 141 765 l 1
 245.474119252 191.152235829 l 1
 360 765 l 1
 522 765 l 1
 626.53467606 190.353036818 l 1
 740 765 l 1
 863 765 l 1
 697 0 l 1
 553 0 l 1
EndSplineSet
Position2: "'cpsp' Capital Spacing lookup 0 subtable" dx=6 dy=0 dh=13 dv=0
EndChar

StartChar: Wgrave
Encoding: 7808 7808 119
Width: 863
VWidth: 1263
GlyphClass: 2
Flags: W
HStem: 0 21G<162.634 315.18 549.009 701.34> 745 20G<0 144.641 356.008 525.638 736.051 863>
LayerCount: 2
Back
Fore
SplineSet
399 839 m 1
 276.522429827 984.758430619 l 1
 413 984.758430619 l 1
 509 839 l 1
 399 839 l 1
553 0 m 1
 434.797210327 592.284692546 l 1
 311 0 l 1
 167 0 l 1
 0 765 l 1
 141 765 l 1
 245.474119252 191.152235829 l 1
 360 765 l 1
 522 765 l 1
 626.53467606 190.353036818 l 1
 740 765 l 1
 863 765 l 1
 697 0 l 1
 553 0 l 1
EndSplineSet
Position2: "'cpsp' Capital Spacing lookup 0 subtable" dx=6 dy=0 dh=13 dv=0
EndChar

StartChar: X
Encoding: 88 88 120
Width: 611
VWidth: 1263
GlyphClass: 2
Flags: W
HStem: 0 21G<0 159.588 440.689 610> 745 20G<20 189.32 430.36 590>
LayerCount: 2
Back
Fore
SplineSet
610 0 m 1
 451 0 l 1
 302 289 l 1
 149 0 l 1
 0 0 l 1
 216 402 l 1
 20 765 l 1
 179 765 l 1
 308 515 l 1
 441 765 l 1
 590 765 l 1
 392 404 l 1
 610 0 l 1
EndSplineSet
Position2: "'cpsp' Capital Spacing lookup 0 subtable" dx=6 dy=0 dh=13 dv=0
EndChar

StartChar: Y
Encoding: 89 89 121
Width: 611
VWidth: 1263
GlyphClass: 2
Flags: W
HStem: 0 21G<235 378> 745 20G<0 159.345 457.476 611>
VStem: 235 143<0 289>
AnchorPoint: "Anchor-1" 0 0 basechar 0
AnchorPoint: "Anchor-0" 306 765 basechar 0
LayerCount: 2
Back
Fore
SplineSet
235 0 m 1
 235 289 l 1
 0 765 l 1
 150 765 l 1
 307 429 l 1
 467 765 l 1
 611 765 l 1
 378 289 l 1
 378 0 l 1
 235 0 l 1
EndSplineSet
Position2: "'cpsp' Capital Spacing lookup 0 subtable" dx=6 dy=0 dh=13 dv=0
EndChar

StartChar: Yacute
Encoding: 221 221 122
Width: 611
VWidth: 1263
GlyphClass: 2
Flags: W
HStem: 0 21G<235 378> 745 20G<0 159.345 457.476 611>
VStem: 235 143<0 289>
LayerCount: 2
Back
Fore
SplineSet
340 839 m 1
 229 839 l 1
 325 986 l 1
 458 986 l 1
 340 839 l 1
378 0 m 1
 235 0 l 1
 235 289 l 1
 0 765 l 1
 150 765 l 1
 307 429 l 1
 467 765 l 1
 611 765 l 1
 378 289 l 1
 378 0 l 1
EndSplineSet
Position2: "'cpsp' Capital Spacing lookup 0 subtable" dx=6 dy=0 dh=13 dv=0
EndChar

StartChar: Ycircumflex
Encoding: 374 374 123
Width: 611
VWidth: 1263
GlyphClass: 2
Flags: W
HStem: 0 21G<235 378> 745 20G<0 159.345 457.476 611>
VStem: 235 143<0 289>
LayerCount: 2
Back
Fore
SplineSet
306 912 m 1
 255 835 l 1
 155 835 l 1
 251 986 l 1
 361 986 l 1
 456 835 l 1
 355 835 l 1
 306 912 l 1
235 0 m 1
 235 289 l 1
 0 765 l 1
 150 765 l 1
 307 429 l 1
 467 765 l 1
 611 765 l 1
 378 289 l 1
 378 0 l 1
 235 0 l 1
EndSplineSet
Position2: "'cpsp' Capital Spacing lookup 0 subtable" dx=6 dy=0 dh=13 dv=0
EndChar

StartChar: Ydieresis
Encoding: 376 376 124
Width: 611
VWidth: 1263
GlyphClass: 2
Flags: W
HStem: 0 21G<235 378> 745 20G<0 159.345 457.476 611> 864 122<152 264 347 458>
VStem: 152 112<864 986> 235 143<0 289> 347 111<864 986>
LayerCount: 2
Back
Fore
SplineSet
152 864 m 1xf0
 152 986 l 1
 264 986 l 1
 264 864 l 1
 152 864 l 1xf0
347 864 m 1xe4
 347 986 l 1
 458 986 l 1
 458 864 l 1
 347 864 l 1xe4
378 0 m 1xe8
 235 0 l 1
 235 289 l 1
 0 765 l 1
 150 765 l 1
 307 429 l 1
 467 765 l 1
 611 765 l 1
 378 289 l 1
 378 0 l 1xe8
EndSplineSet
Position2: "'cpsp' Capital Spacing lookup 0 subtable" dx=6 dy=0 dh=13 dv=0
EndChar

StartChar: Ygrave
Encoding: 7922 7922 125
Width: 611
VWidth: 1263
GlyphClass: 2
Flags: W
HStem: 0 21G<235 378> 745 20G<0 159.345 457.476 611>
VStem: 235 143<0 289>
LayerCount: 2
Back
Fore
SplineSet
272 839 m 1
 148.520381808 984.746434587 l 1
 285 984.746434587 l 1
 381 839 l 1
 272 839 l 1
378 0 m 1
 235 0 l 1
 235 289 l 1
 0 765 l 1
 150 765 l 1
 307 429 l 1
 467 765 l 1
 611 765 l 1
 378 289 l 1
 378 0 l 1
EndSplineSet
Position2: "'cpsp' Capital Spacing lookup 0 subtable" dx=6 dy=0 dh=13 dv=0
EndChar

StartChar: Z
Encoding: 90 90 126
Width: 559
VWidth: 1263
GlyphClass: 2
Flags: W
HStem: 0 128<213 536> 639 126<42 332>
AnchorPoint: "Anchor-1" 0 0 basechar 0
AnchorPoint: "Anchor-0" 280 765 basechar 0
LayerCount: 2
Back
Fore
SplineSet
536 128 m 1
 536 0 l 1
 18 0 l 1
 18 54 l 1
 332 639 l 1
 42 639 l 1
 42 765 l 1
 528 765 l 1
 528 710 l 1
 213 128 l 1
 536 128 l 1
EndSplineSet
Position2: "'cpsp' Capital Spacing lookup 0 subtable" dx=6 dy=0 dh=13 dv=0
EndChar

StartChar: Zacute
Encoding: 377 377 127
Width: 559
VWidth: 1263
GlyphClass: 2
Flags: W
HStem: 0 128<213 536> 639 126<42 332>
LayerCount: 2
Back
Fore
SplineSet
313 839 m 1
 203 839 l 1
 299 986 l 1
 433 986 l 1
 313 839 l 1
536 128 m 1
 536 0 l 1
 18 0 l 1
 18 54 l 1
 332 639 l 1
 42 639 l 1
 42 765 l 1
 528 765 l 1
 528 710 l 1
 213 128 l 1
 536 128 l 1
EndSplineSet
Position2: "'cpsp' Capital Spacing lookup 0 subtable" dx=6 dy=0 dh=13 dv=0
EndChar

StartChar: Zcaron
Encoding: 381 381 128
Width: 559
VWidth: 1263
GlyphClass: 2
Flags: W
HStem: 0 128<213 536> 639 126<42 332>
LayerCount: 2
Back
Fore
SplineSet
226 835 m 1
 130 986 l 1
 230 986 l 1
 280 909 l 1
 330 986 l 1
 429 986 l 1
 335 835 l 1
 226 835 l 1
536 128 m 1
 536 0 l 1
 18 0 l 1
 18 54 l 1
 332 639 l 1
 42 639 l 1
 42 765 l 1
 528 765 l 1
 528 710 l 1
 213 128 l 1
 536 128 l 1
EndSplineSet
Position2: "'cpsp' Capital Spacing lookup 0 subtable" dx=6 dy=0 dh=13 dv=0
EndChar

StartChar: Zdotaccent
Encoding: 379 379 129
Width: 559
VWidth: 1263
GlyphClass: 2
Flags: W
HStem: 0 128<213 536> 639 126<42 332> 858 128<220 340>
VStem: 220 120<858 986>
LayerCount: 2
Back
Fore
SplineSet
220 858 m 1
 220 986 l 1
 340 986 l 1
 340 858 l 1
 220 858 l 1
536 128 m 1
 536 0 l 1
 18 0 l 1
 18 54 l 1
 332 639 l 1
 42 639 l 1
 42 765 l 1
 528 765 l 1
 528 710 l 1
 213 128 l 1
 536 128 l 1
EndSplineSet
Position2: "'cpsp' Capital Spacing lookup 0 subtable" dx=6 dy=0 dh=13 dv=0
EndChar

StartChar: a
Encoding: 97 97 130
Width: 508
VWidth: 1263
GlyphClass: 2
Flags: W
HStem: -14 113<136.952 256.627 445.087 499.336> 5 95<445.139 500> 260 97<202.702 307> 491 110<189.796 295.313>
VStem: 15 138<111.339 220.253> 44 132<413 473.526> 307 135<135.174 260 357 480.119>
AnchorPoint: "Anchor-1" 0 0 basechar 0
AnchorPoint: "Anchor-0" 255 587 basechar 0
LayerCount: 2
Back
Fore
SplineSet
242 601 m 0xb6
 378 601 442 537 442 428 c 2
 442 139 l 2
 442 111 458 100 474 100 c 2
 500 100 l 1
 500 5 l 1x76
 486 -4 461 -14 421 -14 c 0
 368 -14 331 18 317 63 c 1
 283 16 241 -14 163 -14 c 0
 109 -14 15 16 15 152 c 0xba
 15 311 136 357 307 357 c 1
 307 418 l 2
 307 458 297 491 245 491 c 0
 191 491 176 457 176 429 c 2
 176 413 l 1
 44 413 l 1
 32.3007795073 529.798011894 112.168804571 598.722771495 242 601 c 0xb6
307 260 m 1
 229 260 153 240 153 164 c 0
 153 124 173 99 218 99 c 0xba
 282 99 307 158 307 226 c 2
 307 260 l 1
EndSplineSet
Substitution2: "Single Substitution lookup 40 subtable" ordfeminine
Substitution2: "'aalt' Access All Alternates lookup 0 subtable" ordfeminine
EndChar

StartChar: aacute
Encoding: 225 225 131
Width: 508
VWidth: 1263
GlyphClass: 2
Flags: W
HStem: -14 113<136.952 256.627 445.087 499.336> 5 95<445.139 500> 260 97<202.702 307> 491 110<189.796 295.313> 787 20G<248.027 395>
VStem: 15 138<111.339 220.253> 44 132<413 473.526> 307 135<135.174 260 357 480.119>
LayerCount: 2
Back
Fore
SplineSet
275 659 m 1x39
 165 659 l 1
 261 807 l 1
 395 807 l 1
 275 659 l 1x39
242 601 m 0
 378 601 442 537 442 428 c 2
 442 139 l 2
 442 111 458 100 474 100 c 2
 500 100 l 1
 500 5 l 1x7b
 486 -4 461 -14 421 -14 c 0
 368 -14 331 18 317 63 c 1
 283 16 241 -14 163 -14 c 0
 109 -14 15 16 15 152 c 0xbd
 15 311 136 357 307 357 c 1
 307 418 l 2
 307 458 297 491 245 491 c 0
 191 491 176 457 176 429 c 2
 176 413 l 1
 44 413 l 1xbb
 32.3007795073 529.798011894 112.168804571 598.722771495 242 601 c 0
307 260 m 1
 229 260 153 240 153 164 c 0
 153 124 173 99 218 99 c 0xbd
 282 99 307 158 307 226 c 2
 307 260 l 1
EndSplineSet
EndChar

StartChar: abreve
Encoding: 259 259 132
Width: 508
VWidth: 1263
GlyphClass: 2
Flags: W
HStem: -14 113<136.952 256.627 445.087 499.336> 5 95<445.139 500> 260 97<202.702 307> 491 110<189.796 295.313> 688 82<187.789 297.575> 787 20G<92 178.5 306.5 392>
VStem: 15 138<111.339 220.253> 44 132<413 473.526> 307 135<135.174 260 357 480.119>
LayerCount: 2
Back
Fore
SplineSet
392 807 m 1x3c80
 392 751 333 688 241 688 c 0
 149 688 92 751 92 807 c 1
 177 807 l 1
 180 792 206 770 241 770 c 0
 279 770 305 792 308 807 c 1
 392 807 l 1x3c80
242 601 m 0
 378 601 442 537 442 428 c 2
 442 139 l 2
 442 111 458 100 474 100 c 2
 500 100 l 1
 500 5 l 1x7d80
 486 -4 461 -14 421 -14 c 0
 368 -14 331 18 317 63 c 1
 283 16 241 -14 163 -14 c 0
 109 -14 15 16 15 152 c 0xbe80
 15 311 136 357 307 357 c 1
 307 418 l 2
 307 458 297 491 245 491 c 0
 191 491 176 457 176 429 c 2
 176 413 l 1
 44 413 l 1xbd80
 32.3007795073 529.798011894 112.168804571 598.722771495 242 601 c 0
307 260 m 1
 229 260 153 240 153 164 c 0
 153 124 173 99 218 99 c 0xbe80
 282 99 307 158 307 226 c 2
 307 260 l 1
EndSplineSet
EndChar

StartChar: acircumflex
Encoding: 226 226 133
Width: 508
VWidth: 1263
GlyphClass: 2
Flags: W
HStem: -14 113<136.952 256.627 445.087 499.336> 5 95<445.139 500> 260 97<202.702 307> 491 110<189.796 295.313> 787 20G<175.2 310.667>
VStem: 15 138<111.339 220.253> 44 132<413 473.526> 307 135<135.174 260 357 480.119>
LayerCount: 2
Back
Fore
SplineSet
242 734 m 1x39
 192 657 l 1
 92 657 l 1
 188 807 l 1
 298 807 l 1
 393 657 l 1
 293 657 l 1
 242 734 l 1x39
242 601 m 0
 378 601 442 537 442 428 c 2
 442 139 l 2
 442 111 458 100 474 100 c 2
 500 100 l 1
 500 5 l 1x7b
 486 -4 461 -14 421 -14 c 0
 368 -14 331 18 317 63 c 1
 283 16 241 -14 163 -14 c 0
 109 -14 15 16 15 152 c 0xbd
 15 311 136 357 307 357 c 1
 307 418 l 2
 307 458 297 491 245 491 c 0
 191 491 176 457 176 429 c 2
 176 413 l 1
 44 413 l 1xbb
 32.3007795073 529.798011894 112.168804571 598.722771495 242 601 c 0
307 260 m 1
 229 260 153 240 153 164 c 0
 153 124 173 99 218 99 c 0xbd
 282 99 307 158 307 226 c 2
 307 260 l 1
EndSplineSet
EndChar

StartChar: adieresis
Encoding: 228 228 134
Width: 508
VWidth: 1263
GlyphClass: 2
Flags: W
HStem: -14 113<136.952 256.627 445.087 499.336> 5 95<445.139 500> 260 97<202.702 307> 491 110<189.796 295.313> 686 121<90 201 284 395>
VStem: 15 138<111.339 220.253> 44 132<413 473.526> 90 111<686 807> 284 111<686 807> 307 135<135.174 260 357 480.119>
LayerCount: 2
Back
Fore
SplineSet
90 686 m 1x39
 90 807 l 1
 201 807 l 1
 201 686 l 1
 90 686 l 1x39
284 686 m 1x3880
 284 807 l 1
 395 807 l 1
 395 686 l 1
 284 686 l 1x3880
242 601 m 0
 378 601 442 537 442 428 c 2
 442 139 l 2
 442 111 458 100 474 100 c 2
 500 100 l 1
 500 5 l 1x7a40
 486 -4 461 -14 421 -14 c 0
 368 -14 331 18 317 63 c 1
 283 16 241 -14 163 -14 c 0
 109 -14 15 16 15 152 c 0xbc40
 15 311 136 357 307 357 c 1
 307 418 l 2
 307 458 297 491 245 491 c 0
 191 491 176 457 176 429 c 2
 176 413 l 1
 44 413 l 1xba40
 32.3007795073 529.798011894 112.168804571 598.722771495 242 601 c 0
307 260 m 1
 229 260 153 240 153 164 c 0
 153 124 173 99 218 99 c 0xbc40
 282 99 307 158 307 226 c 2
 307 260 l 1
EndSplineSet
EndChar

StartChar: agrave
Encoding: 224 224 135
Width: 508
VWidth: 1263
GlyphClass: 2
Flags: W
HStem: -14 113<136.952 256.627 445.087 499.336> 5 95<445.139 500> 260 97<202.702 307> 491 110<189.796 295.313>
VStem: 15 138<111.339 220.253> 44 132<413 473.526> 307 135<135.174 260 357 480.119>
LayerCount: 2
Back
Fore
SplineSet
208 659 m 1x32
 86.0327868852 805.360655738 l 1
 224 805.360655738 l 1
 320 659 l 1
 208 659 l 1x32
242 601 m 0
 378 601 442 537 442 428 c 2
 442 139 l 2
 442 111 458 100 474 100 c 2
 500 100 l 1
 500 5 l 1x76
 486 -4 461 -14 421 -14 c 0
 368 -14 331 18 317 63 c 1
 283 16 241 -14 163 -14 c 0
 109 -14 15 16 15 152 c 0xba
 15 311 136 357 307 357 c 1
 307 418 l 2
 307 458 297 491 245 491 c 0
 191 491 176 457 176 429 c 2
 176 413 l 1
 44 413 l 1xb6
 32.3007795073 529.798011894 112.168804571 598.722771495 242 601 c 0
307 260 m 1
 229 260 153 240 153 164 c 0
 153 124 173 99 218 99 c 0xba
 282 99 307 158 307 226 c 2
 307 260 l 1
EndSplineSet
EndChar

StartChar: amacron
Encoding: 257 257 136
Width: 508
VWidth: 1263
GlyphClass: 2
Flags: W
HStem: -14 113<136.952 256.627 445.087 499.336> 5 95<445.139 500> 260 97<202.702 307> 491 110<189.796 295.313> 669 96<100 385>
VStem: 15 138<111.339 220.253> 44 132<413 473.526> 307 135<135.174 260 357 480.119>
LayerCount: 2
Back
Fore
SplineSet
100 765 m 1x39
 385 765 l 1
 385 669 l 1
 100 669 l 1
 100 765 l 1x39
242 601 m 0
 378 601 442 537 442 428 c 2
 442 139 l 2
 442 111 458 100 474 100 c 2
 500 100 l 1
 500 5 l 1x7b
 486 -4 461 -14 421 -14 c 0
 368 -14 331 18 317 63 c 1
 283 16 241 -14 163 -14 c 0
 109 -14 15 16 15 152 c 0xbd
 15 311 136 357 307 357 c 1
 307 418 l 2
 307 458 297 491 245 491 c 0
 191 491 176 457 176 429 c 2
 176 413 l 1
 44 413 l 1xbb
 32.3007795073 529.798011894 112.168804571 598.722771495 242 601 c 0
307 260 m 1
 229 260 153 240 153 164 c 0
 153 124 173 99 218 99 c 0xbd
 282 99 307 158 307 226 c 2
 307 260 l 1
EndSplineSet
EndChar

StartChar: aogonek
Encoding: 261 261 137
Width: 508
VWidth: 1263
GlyphClass: 2
Flags: W
HStem: -207 77<475.386 540.737> -192 62<476.293 542> -14 113<136.952 256.627> 260 97<202.702 307> 491 110<189.796 295.313>
VStem: 15 138<111.339 220.253> 44 132<413 473.526> 307 135<135.174 260 357 480.119> 357 110<-121.361 -28.2889>
LayerCount: 2
Back
Fore
SplineSet
467 -207 m 0xb880
 418 -207 357 -184 357 -107 c 0
 357 -63 372 -34 392 -10 c 1
 354 -1 328 26 317 63 c 1
 283 16 241 -14 163 -14 c 0
 109 -14 15 16 15 152 c 0xbc80
 15 311 136 357 307 357 c 1
 307 418 l 2
 307 458 297 491 245 491 c 0
 191 491 176 457 176 429 c 2
 176 413 l 1
 44 413 l 1
 32.3007795073 529.798011894 112.168804571 598.722771495 242 601 c 0
 378 601 442 537 442 428 c 2
 442 139 l 2xbb
 442 111 458 100 474 100 c 2
 500 100 l 1
 500 5 l 1
 487 -11 467 -43 467 -73 c 0
 467 -102 480 -130 517 -130 c 2xb880
 542 -130 l 1
 542 -192 l 1x7880
 515 -202 492 -207 467 -207 c 0xb880
307 260 m 1x3d
 229 260 153 240 153 164 c 0
 153 124 173 99 218 99 c 0
 282 99 307 158 307 226 c 2
 307 260 l 1x3d
EndSplineSet
EndChar

StartChar: aring
Encoding: 229 229 138
Width: 508
VWidth: 1263
GlyphClass: 2
Flags: W
HStem: -14 113<136.952 256.627 445.087 499.336> 5 95<445.139 500> 260 97<202.702 307> 491 110<189.796 295.313> 626 56<200.495 282.439> 784 57<199.94 284.428>
VStem: 15 138<111.339 220.253> 44 132<413 473.526> 135 56<691.453 775.386> 293 57<691.875 775.175> 307 135<135.174 260 357 480.119>
LayerCount: 2
Back
Fore
SplineSet
242 841 m 0x3cc0
 303 841 350 792 350 734 c 0
 350 675 301 626 242 626 c 0
 184 626 135 673 135 734 c 0
 135 793 183 841 242 841 c 0x3cc0
242 784 m 0
 213 784 191 763 191 734 c 0
 191 705 213 682 242 682 c 0
 270 682 293 705 293 734 c 0
 293 763 270 784 242 784 c 0
242 601 m 0
 378 601 442 537 442 428 c 2
 442 139 l 2
 442 111 458 100 474 100 c 2
 500 100 l 1
 500 5 l 1x7d20
 486 -4 461 -14 421 -14 c 0
 368 -14 331 18 317 63 c 1
 283 16 241 -14 163 -14 c 0
 109 -14 15 16 15 152 c 0xbe20
 15 311 136 357 307 357 c 1
 307 418 l 2
 307 458 297 491 245 491 c 0
 191 491 176 457 176 429 c 2
 176 413 l 1
 44 413 l 1xbd20
 32.3007795073 529.798011894 112.168804571 598.722771495 242 601 c 0
307 260 m 1
 229 260 153 240 153 164 c 0
 153 124 173 99 218 99 c 0xbe20
 282 99 307 158 307 226 c 2
 307 260 l 1
EndSplineSet
EndChar

StartChar: aringacute
Encoding: 507 507 139
Width: 558
VWidth: 1263
GlyphClass: 2
Flags: W
HStem: -14 113<136.952 256.627 445.087 499.336> 5 95<445.139 500> 260 97<202.702 307> 491 110<189.796 295.313> 626 53<200.495 283.655> 779 55<199.94 284.428>
VStem: 15 138<111.339 220.253> 44 132<413 473.526> 135 56<688.729 770.259> 293 57<688.94 770.048> 307 135<135.174 260 357 480.119>
LayerCount: 2
Back
Fore
SplineSet
304 858 m 1x3c
 195 858 l 1
 278 986 l 1
 412 986 l 1
 304 858 l 1x3c
242 834 m 0
 303 834 350 786 350 730 c 0
 350 673 301 626 242 626 c 0
 184 626 135 672 135 730 c 0x3cc0
 135 787 183 834 242 834 c 0
242 779 m 0
 213 779 191 758 191 730 c 0
 191 701 213 679 242 679 c 0
 270 679 293 701 293 730 c 0
 293 758 270 779 242 779 c 0
242 601 m 0
 378 601 442 537 442 428 c 2
 442 139 l 2
 442 111 458 100 474 100 c 2
 500 100 l 1
 500 5 l 1x7d20
 486 -4 461 -14 421 -14 c 0
 368 -14 331 18 317 63 c 1
 283 16 241 -14 163 -14 c 0
 109 -14 15 16 15 152 c 0xbe20
 15 311 136 357 307 357 c 1
 307 418 l 2
 307 458 297 491 245 491 c 0
 191 491 176 457 176 429 c 2
 176 413 l 1
 44 413 l 1xbd20
 32.3007795073 529.798011894 112.168804571 598.722771495 242 601 c 0
307 260 m 1
 229 260 153 240 153 164 c 0
 153 124 173 99 218 99 c 0xbe20
 282 99 307 158 307 226 c 2
 307 260 l 1
EndSplineSet
EndChar

StartChar: atilde
Encoding: 227 227 140
Width: 508
VWidth: 1263
GlyphClass: 2
Flags: W
HStem: -14 113<136.952 256.627 445.087 499.336> 5 95<445.139 500> 260 97<202.702 307> 491 110<189.796 295.313> 671 94<241.708 347.652> 712 95<136.879 240.927>
VStem: 15 138<111.339 220.253> 44 132<413 473.526> 54 75<671 706.574> 307 135<135.174 260 357 480.119> 356 73<771.798 807>
LayerCount: 2
Back
Fore
SplineSet
429 807 m 1x34a0
 429 746 400 671 320 671 c 0x38a0
 266.566142258 670.593286905 223.823414303 710.8107485 172 712 c 0x34a0
 149 712 133 701 129 671 c 1
 54 671 l 1x38a0
 54 733 86 807 164 807 c 0x34a0
 218.259062678 807.070183784 261.296924346 766.434892962 313 765 c 0x38a0
 336 765 351 775 356 807 c 1
 429 807 l 1x34a0
242 601 m 0
 378 601 442 537 442 428 c 2
 442 139 l 2
 442 111 458 100 474 100 c 2
 500 100 l 1
 500 5 l 1x7140
 486 -4 461 -14 421 -14 c 0
 368 -14 331 18 317 63 c 1
 283 16 241 -14 163 -14 c 0
 109 -14 15 16 15 152 c 0xb240
 15 311 136 357 307 357 c 1
 307 418 l 2
 307 458 297 491 245 491 c 0
 191 491 176 457 176 429 c 2
 176 413 l 1
 44 413 l 1xb140
 32.3007795073 529.798011894 112.168804571 598.722771495 242 601 c 0
307 260 m 1
 229 260 153 240 153 164 c 0
 153 124 173 99 218 99 c 0xb240
 282 99 307 158 307 226 c 2
 307 260 l 1
EndSplineSet
EndChar

StartChar: ae
Encoding: 230 230 141
Width: 813
VWidth: 1263
GlyphClass: 2
Flags: W
HStem: -14 110<194.195 295.683 508.352 611.012> 260 97<227.947 332 474 630> 491 110<215.573 320.811 506.799 602.725>
VStem: 42 136<114.04 219.226> 71 130<413 473.008> 332 142<136.05 260 357 453.699> 630 140<357 458.376> 638 132<125.305 207>
AnchorPoint: "Anchor-1" 0 0 basechar 0
AnchorPoint: "Anchor-0" 408 587 basechar 0
LayerCount: 2
Back
Fore
SplineSet
558 601 m 0xec
 699 601 770 505 770 293 c 2
 770 260 l 1
 472 260 l 1
 473 155 496 96 563 96 c 0
 608 96 638 138 638 207 c 1
 770 207 l 1
 770 57 682 -14 563 -14 c 0
 485 -14 426 13 388 66 c 1
 345 19 293 -14 211 -14 c 0
 148 -14 42 16 42 152 c 0xf5
 42 311 161 357 332 357 c 1
 332 418 l 2
 332 458 323 491 272 491 c 0
 216 491 201 457 201 429 c 2
 201 413 l 1
 71 413 l 1
 56.5602792147 528.270980404 139.494265904 599.299483619 268 601 c 0
 335 601 385 581 418 544 c 1
 455 582 501 601 558 601 c 0xec
558 491 m 0
 501 491 478 442 474 357 c 1
 630 357 l 1xe6
 630 442 607 491 558 491 c 0
332 260 m 1
 255 260 178 240 178 164 c 0xf4
 178 124 198 99 245 99 c 0
 308 99 332 158 332 226 c 2
 332 260 l 1
EndSplineSet
EndChar

StartChar: aeacute
Encoding: 509 509 142
Width: 813
VWidth: 1263
GlyphClass: 2
Flags: W
HStem: -14 110<194.195 295.683 508.352 611.012> 260 97<227.947 332 474 630> 491 110<215.573 320.811 506.799 602.725> 787 20G<414.027 561>
VStem: 42 136<114.04 219.226> 71 130<413 473.008> 332 142<136.05 260 357 453.699> 630 140<357 458.376> 638 132<125.305 207>
LayerCount: 2
Back
Fore
SplineSet
441 659 m 1xf2
 331 659 l 1
 427 807 l 1
 561 807 l 1
 441 659 l 1xf2
558 601 m 0
 699 601 770 505 770 293 c 2
 770 260 l 1
 472 260 l 1
 473 155 496 96 563 96 c 0
 608 96 638 138 638 207 c 1
 770 207 l 1
 770 57 682 -14 563 -14 c 0
 485 -14 426 13 388 66 c 1
 345 19 293 -14 211 -14 c 0
 148 -14 42 16 42 152 c 0xfa80
 42 311 161 357 332 357 c 1
 332 418 l 2
 332 458 323 491 272 491 c 0
 216 491 201 457 201 429 c 2
 201 413 l 1
 71 413 l 1xf6
 56.5602792147 528.270980404 139.494265904 599.299483619 268 601 c 0
 335 601 385 581 418 544 c 1
 455 582 501 601 558 601 c 0
558 491 m 0
 501 491 478 442 474 357 c 1
 630 357 l 1xf3
 630 442 607 491 558 491 c 0
332 260 m 1
 255 260 178 240 178 164 c 0xfa
 178 124 198 99 245 99 c 0
 308 99 332 158 332 226 c 2
 332 260 l 1
EndSplineSet
EndChar

StartChar: b
Encoding: 98 98 143
Width: 559
VWidth: 1263
GlyphClass: 2
Flags: W
HStem: -14 123<249.096 336.827> 0 21G<62 178.278> 479 122<245.346 337.38> 787 20G<62 196>
VStem: 62 134<148.687 437.997 527 807> 374 140<149.241 438.836>
LayerCount: 2
Back
Fore
SplineSet
332 601 m 0x7c
 436 601 514 507 514 294 c 0
 514 82 441 -14 325 -14 c 0xbc
 269 -14 221 15 192 72 c 1
 173 0 l 1
 62 0 l 1
 62 807 l 1
 196 807 l 1
 196 527 l 1
 217 574 273 601 332 601 c 0x7c
284 479 m 0
 220 479 196 418 196 313 c 2
 196 273 l 2
 196 167 220 109 284 109 c 0
 350 109 374 167 374 273 c 2
 374 314 l 2
 374 420 350 479 284 479 c 0
EndSplineSet
EndChar

StartChar: c
Encoding: 99 99 144
Width: 508
VWidth: 1263
GlyphClass: 2
Flags: W
HStem: -14 114<219.63 313.176> 488 113<218.173 308.914>
VStem: 45 141<141.836 451.6> 336 133<126.495 221 366 454.61>
AnchorPoint: "Anchor-1" 255 0 basechar 0
AnchorPoint: "Anchor-0" 255 587 basechar 0
LayerCount: 2
Back
Fore
SplineSet
264 601 m 0
 389 601 469 530 469 366 c 1
 332 366 l 1
 332 448 309 488 264 488 c 0
 207 488 186 428 186 314 c 2
 186 273 l 2
 186 159 207 100 268 100 c 0
 316 100 336 140 336 221 c 1
 469 221 l 1
 469 57 391 -14 268 -14 c 0
 115 -14 45 82 45 293 c 0
 45 505 119 601 264 601 c 0
EndSplineSet
EndChar

StartChar: cacute
Encoding: 263 263 145
Width: 508
VWidth: 1263
GlyphClass: 2
Flags: W
HStem: -14 114<219.63 313.176> 488 113<218.173 308.914> 787 20G<271.027 419.964>
VStem: 45 141<141.836 451.6> 336 133<126.495 221 366 454.61>
LayerCount: 2
Back
Fore
SplineSet
419.964180302 807 m 1
 299 659 l 1
 188 659 l 1
 284 807 l 1
 419.964180302 807 l 1
264 601 m 0
 389 601 469 530 469 366 c 1
 332 366 l 1
 332 448 309 488 264 488 c 0
 207 488 186 428 186 314 c 2
 186 273 l 2
 186 159 207 100 268 100 c 0
 316 100 336 140 336 221 c 1
 469 221 l 1
 469 57 391 -14 268 -14 c 0
 115 -14 45 82 45 293 c 0
 45 505 119 601 264 601 c 0
EndSplineSet
EndChar

StartChar: ccaron
Encoding: 269 269 146
Width: 508
VWidth: 1263
GlyphClass: 2
Flags: W
HStem: -14 114<219.63 313.176> 488 113<218.173 308.914> 787 20G<115 228.727 301.273 416>
VStem: 45 141<141.836 451.6> 336 133<126.495 221 366 454.61>
LayerCount: 2
Back
Fore
SplineSet
115 807 m 1
 216 807 l 1
 265 730 l 1
 314 807 l 1
 416 807 l 1
 321 657 l 1
 211 657 l 1
 115 807 l 1
264 601 m 0
 389 601 469 530 469 366 c 1
 332 366 l 1
 332 448 309 488 264 488 c 0
 207 488 186 428 186 314 c 2
 186 273 l 2
 186 159 207 100 268 100 c 0
 316 100 336 140 336 221 c 1
 469 221 l 1
 469 57 391 -14 268 -14 c 0
 115 -14 45 82 45 293 c 0
 45 505 119 601 264 601 c 0
EndSplineSet
EndChar

StartChar: ccedilla
Encoding: 231 231 147
Width: 508
VWidth: 1263
GlyphClass: 2
Flags: W
HStem: -203 63<164.272 280.088> -195 55<163 254.589> -86 186<218.502 282.756> 488 113<218.173 308.914>
VStem: 45 141<138.264 451.6> 208 85<-40.1041 -10.405> 283 96<-137.848 -87.7718> 336 133<121.433 221 366 454.61>
LayerCount: 2
Back
Fore
SplineSet
264 601 m 0xbc
 389 601 469 530 469 366 c 1
 332 366 l 1
 332 448 309 488 264 488 c 0
 207 488 186 428 186 314 c 2
 186 273 l 2
 186 159 207 100 268 100 c 0
 316 100 336 140 336 221 c 1
 469 221 l 1
 469 68 400 -3 293 -13 c 1
 293 -37 l 1xbd
 341 -41 379 -61 379 -112 c 0
 379 -188 304 -203 256 -203 c 0xba
 226 -203 190 -200 163 -195 c 1
 163 -140 l 1x7a
 242 -140 l 2
 266 -140 283 -133 283 -112 c 0xba
 283 -94 274 -86 245 -86 c 2
 208 -86 l 1
 208 -9 l 1
 91 10 45 107 45 293 c 0
 45 505 119 601 264 601 c 0xbc
EndSplineSet
EndChar

StartChar: ccircumflex
Encoding: 265 265 148
Width: 508
VWidth: 1263
GlyphClass: 2
Flags: W
HStem: -14 114<219.63 313.176> 488 113<218.173 308.914> 787 20G<198.2 333.667>
VStem: 45 141<141.836 451.6> 336 133<126.495 221 366 454.61>
LayerCount: 2
Back
Fore
SplineSet
265 734 m 1
 216 657 l 1
 115 657 l 1
 211 807 l 1
 321 807 l 1
 416 657 l 1
 314 657 l 1
 265 734 l 1
264 601 m 0
 389 601 469 530 469 366 c 1
 332 366 l 1
 332 448 309 488 264 488 c 0
 207 488 186 428 186 314 c 2
 186 273 l 2
 186 159 207 100 268 100 c 0
 316 100 336 140 336 221 c 1
 469 221 l 1
 469 57 391 -14 268 -14 c 0
 115 -14 45 82 45 293 c 0
 45 505 119 601 264 601 c 0
EndSplineSet
EndChar

StartChar: cdotaccent
Encoding: 267 267 149
Width: 508
VWidth: 1263
GlyphClass: 2
Flags: W
HStem: -14 114<219.63 313.176> 488 113<218.173 308.914> 678 129<206 325>
VStem: 45 141<141.836 451.6> 206 119<678 807> 336 133<126.495 221 366 454.61>
LayerCount: 2
Back
Fore
SplineSet
206 807 m 1
 325 807 l 1
 325 678 l 1
 206 678 l 1
 206 807 l 1
264 601 m 0
 389 601 469 530 469 366 c 1
 332 366 l 1
 332 448 309 488 264 488 c 0
 207 488 186 428 186 314 c 2
 186 273 l 2
 186 159 207 100 268 100 c 0
 316 100 336 140 336 221 c 1
 469 221 l 1
 469 57 391 -14 268 -14 c 0
 115 -14 45 82 45 293 c 0
 45 505 119 601 264 601 c 0
EndSplineSet
EndChar

StartChar: d
Encoding: 100 100 150
Width: 559
VWidth: 1263
GlyphClass: 2
Flags: W
HStem: -14 123<222.889 313.921> 0 21G<382.389 498> 479 122<221.837 311.489> 787 20G<359 498>
VStem: 45 141<149.241 438.836> 359 139<141.467 445.396 527 807>
LayerCount: 2
Back
Fore
SplineSet
235 -14 m 0xbc
 119 -14 45 82 45 294 c 0
 45 507 123 601 227 601 c 0
 286 601 338 574 359 527 c 1
 359 807 l 1
 498 807 l 1
 498 0 l 1
 386 0 l 1x7c
 373 72 l 1
 344 15 291 -14 235 -14 c 0xbc
274 479 m 0
 210 479 186 420 186 314 c 2
 186 273 l 2
 186 167 210 109 274 109 c 0xbc
 340 109 364 167 364 273 c 2
 364 313 l 2
 364 418 340 479 274 479 c 0
EndSplineSet
EndChar

StartChar: eth
Encoding: 240 240 151
Width: 559
VWidth: 1263
GlyphClass: 2
Flags: W
HStem: -14 114<224.248 335.889> 488 113<224.89 301.683> 652 82<120 204.583> 686 81<410.923 489> 787 20G<145 295.5>
VStem: 45 141<148.845 440.434> 375 140<148.845 438.292>
LayerCount: 2
Back
Fore
SplineSet
515 293 m 0xde
 515 82 437 -14 280 -14 c 0
 123 -14 45 82 45 293 c 0
 45 495 124 601 249 601 c 0
 265 601 287 597 303 592 c 1
 303 596 l 1
 292 617 280 641 265 664 c 1
 120 652 l 1
 120 734 l 1
 205 734 l 1xee
 183.647216857 761.046838503 165.337272445 784.935654134 145 807 c 1
 288 807 l 1
 303 794 323 775 344 754 c 1
 489 767 l 1
 489 686 l 1
 405 686 l 1
 463 600 515 470 515 293 c 0xde
280 488 m 0
 211 488 186 428 186 314 c 2
 186 273 l 2
 186 159 211 100 280 100 c 0
 349 100 375 159 375 273 c 2
 375 314 l 2
 375 428 349 488 280 488 c 0
EndSplineSet
EndChar

StartChar: dcaron
Encoding: 271 271 152
Width: 658
VWidth: 1263
GlyphClass: 2
Flags: W
HStem: -14 123<222.889 313.921> 0 21G<382.389 498> 479 122<221.837 311.489> 745 20G<533 687> 787 20G<359 498>
VStem: 45 141<149.241 438.836> 359 139<141.467 445.396 527 807> 533 154<626 765>
LayerCount: 2
Back
Fore
SplineSet
235 -14 m 0xbf
 119 -14 45 82 45 294 c 0
 45 507 123 601 227 601 c 0
 286 601 338 574 359 527 c 1
 359 807 l 1
 498 807 l 1
 498 0 l 1
 386 0 l 1x7f
 373 72 l 1
 344 15 291 -14 235 -14 c 0xbf
533 613 m 1
 533 765 l 1
 687 765 l 1
 687 626 l 1
 613 438 l 1
 533 438 l 1
 594 613 l 1
 533 613 l 1
274 479 m 0
 210 479 186 420 186 314 c 2
 186 273 l 2
 186 167 210 109 274 109 c 0xbf
 340 109 364 167 364 273 c 2
 364 313 l 2
 364 418 340 479 274 479 c 0
EndSplineSet
EndChar

StartChar: dcroat
Encoding: 273 273 153
Width: 563
VWidth: 1263
GlyphClass: 2
Flags: W
HStem: -14 123<222.889 313.921> 0 21G<382.389 498> 479 122<221.837 311.489> 650 98<216 359 498 558> 787 20G<364 498>
VStem: 45 141<149.241 438.836> 364 134<148.687 437.997 527 650 748 807>
LayerCount: 2
Back
Fore
SplineSet
558 748 m 1xbe
 558 650 l 1
 498 650 l 1
 498 0 l 1
 386 0 l 1x7e
 373 72 l 1
 344 15 291 -14 235 -14 c 0
 119 -14 45 82 45 294 c 0
 45 507 123 601 227 601 c 0
 286 601 338 574 359 527 c 1
 359 650 l 1
 216 650 l 1
 216 748 l 1
 364 748 l 1
 364 807 l 1
 498 807 l 1
 498 748 l 1
 558 748 l 1xbe
274 479 m 0
 210 479 186 420 186 314 c 2
 186 273 l 2
 186 167 210 109 274 109 c 0xbe
 340 109 364 167 364 273 c 2
 364 313 l 2
 364 418 340 479 274 479 c 0
EndSplineSet
EndChar

StartChar: e
Encoding: 101 101 154
Width: 508
VWidth: 1263
GlyphClass: 2
Flags: W
HStem: -14 110<211.022 313.012> 260 97<176 332> 491 110<208.266 304.725>
VStem: 34 140<141.836 260 357 451.462> 332 140<357 458.376> 340 132<125.305 207>
AnchorPoint: "Anchor-1" 255 0 basechar 0
AnchorPoint: "Anchor-0" 255 587 basechar 0
LayerCount: 2
Back
Fore
SplineSet
260 601 m 0xf4
 401 601 472 505 472 293 c 2
 472 260 l 1
 174 260 l 1
 175 155 198 96 265 96 c 0
 310 96 340 138 340 207 c 1
 472 207 l 1
 472 57 384 -14 265 -14 c 0
 113 -14 34 82 34 293 c 0
 34 505 115 601 260 601 c 0xf4
260 491 m 0
 203 491 180 442 176 357 c 1
 332 357 l 1xf8
 332 442 309 491 260 491 c 0
EndSplineSet
EndChar

StartChar: eacute
Encoding: 233 233 155
Width: 508
VWidth: 1263
GlyphClass: 2
Flags: W
HStem: -14 110<211.022 313.012> 260 97<176 332> 491 110<208.266 304.725> 787 20G<261.027 408>
VStem: 34 140<141.836 260 357 451.462> 332 140<357 458.376> 340 132<125.305 207>
LayerCount: 2
Back
Fore
SplineSet
288 659 m 1xf8
 178 659 l 1
 274 807 l 1
 408 807 l 1
 288 659 l 1xf8
260 601 m 0
 401 601 472 505 472 293 c 2
 472 260 l 1
 174 260 l 1
 175 155 198 96 265 96 c 0
 310 96 340 138 340 207 c 1
 472 207 l 1xfa
 472 57 384 -14 265 -14 c 0
 113 -14 34 82 34 293 c 0
 34 505 115 601 260 601 c 0
260 491 m 0
 203 491 180 442 176 357 c 1
 332 357 l 1xfc
 332 442 309 491 260 491 c 0
EndSplineSet
EndChar

StartChar: ebreve
Encoding: 277 277 156
Width: 508
VWidth: 1263
GlyphClass: 2
Flags: W
HStem: -14 110<211.022 313.012> 260 97<176 332> 491 110<208.266 304.725> 688 82<198.769 311.453> 787 20G<106 190 320.5 404>
VStem: 34 140<141.836 260 357 451.462> 332 140<357 458.376> 340 132<125.305 207>
LayerCount: 2
Back
Fore
SplineSet
404 807 m 1xfc
 404 751 347 688 255 688 c 0
 163 688 106 751 106 807 c 1
 188 807 l 1
 192 792 217 770 255 770 c 0
 293 770 319 792 322 807 c 1
 404 807 l 1xfc
260 601 m 0
 401 601 472 505 472 293 c 2
 472 260 l 1
 174 260 l 1
 175 155 198 96 265 96 c 0
 310 96 340 138 340 207 c 1
 472 207 l 1xfd
 472 57 384 -14 265 -14 c 0
 113 -14 34 82 34 293 c 0
 34 505 115 601 260 601 c 0
260 491 m 0
 203 491 180 442 176 357 c 1
 332 357 l 1xfe
 332 442 309 491 260 491 c 0
EndSplineSet
EndChar

StartChar: ecaron
Encoding: 283 283 157
Width: 508
VWidth: 1263
GlyphClass: 2
Flags: W
HStem: -14 110<211.022 313.012> 260 97<176 332> 491 110<208.266 304.725> 787 20G<105 218.727 291.273 405>
VStem: 34 140<141.836 260 357 451.462> 332 140<357 458.376> 340 132<125.305 207>
LayerCount: 2
Back
Fore
SplineSet
105 807 m 1xf8
 206 807 l 1
 255 730 l 1
 304 807 l 1
 405 807 l 1
 311 657 l 1
 201 657 l 1
 105 807 l 1xf8
260 601 m 0
 401 601 472 505 472 293 c 2
 472 260 l 1
 174 260 l 1
 175 155 198 96 265 96 c 0
 310 96 340 138 340 207 c 1
 472 207 l 1xfa
 472 57 384 -14 265 -14 c 0
 113 -14 34 82 34 293 c 0
 34 505 115 601 260 601 c 0
260 491 m 0
 203 491 180 442 176 357 c 1
 332 357 l 1xfc
 332 442 309 491 260 491 c 0
EndSplineSet
EndChar

StartChar: ecircumflex
Encoding: 234 234 158
Width: 508
VWidth: 1263
GlyphClass: 2
Flags: W
HStem: -14 110<211.022 313.012> 260 97<176 332> 491 110<208.266 304.725> 787 20G<188.2 323.533>
VStem: 34 140<141.836 260 357 451.462> 332 140<357 458.376> 340 132<125.305 207>
LayerCount: 2
Back
Fore
SplineSet
255 734 m 1xf8
 206 657 l 1
 105 657 l 1
 201 807 l 1
 311 807 l 1
 405 657 l 1
 304 657 l 1
 255 734 l 1xf8
260 601 m 0
 401 601 472 505 472 293 c 2
 472 260 l 1
 174 260 l 1
 175 155 198 96 265 96 c 0
 310 96 340 138 340 207 c 1
 472 207 l 1xfa
 472 57 384 -14 265 -14 c 0
 113 -14 34 82 34 293 c 0
 34 505 115 601 260 601 c 0
260 491 m 0
 203 491 180 442 176 357 c 1
 332 357 l 1xfc
 332 442 309 491 260 491 c 0
EndSplineSet
EndChar

StartChar: edieresis
Encoding: 235 235 159
Width: 508
VWidth: 1263
GlyphClass: 2
Flags: W
HStem: -14 110<211.022 313.012> 260 97<176 332> 491 110<208.266 304.725> 686 121<101 213 297 409>
VStem: 34 140<141.836 260 357 451.462> 101 112<686 807> 297 112<686 807> 332 140<357 458.376> 340 132<125.305 207>
LayerCount: 2
Back
Fore
SplineSet
101 686 m 1xf4
 101 807 l 1
 213 807 l 1
 213 686 l 1
 101 686 l 1xf4
297 686 m 1xf2
 297 807 l 1
 409 807 l 1
 409 686 l 1
 297 686 l 1xf2
260 601 m 0
 401 601 472 505 472 293 c 2
 472 260 l 1
 174 260 l 1
 175 155 198 96 265 96 c 0
 310 96 340 138 340 207 c 1
 472 207 l 1
 472 57 384 -14 265 -14 c 0
 113 -14 34 82 34 293 c 0xf880
 34 505 115 601 260 601 c 0
260 491 m 0
 203 491 180 442 176 357 c 1
 332 357 l 1xf1
 332 442 309 491 260 491 c 0
EndSplineSet
EndChar

StartChar: edotaccent
Encoding: 279 279 160
Width: 508
VWidth: 1263
GlyphClass: 2
Flags: W
HStem: -14 110<211.022 313.012> 260 97<176 332> 491 110<208.266 304.725> 678 129<196 314>
VStem: 34 140<141.836 260 357 451.462> 196 118<678 807> 332 140<357 458.376> 340 132<125.305 207>
LayerCount: 2
Back
Fore
SplineSet
196 807 m 1xfc
 314 807 l 1
 314 678 l 1
 196 678 l 1
 196 807 l 1xfc
260 601 m 0
 401 601 472 505 472 293 c 2
 472 260 l 1
 174 260 l 1
 175 155 198 96 265 96 c 0
 310 96 340 138 340 207 c 1
 472 207 l 1xfd
 472 57 384 -14 265 -14 c 0
 113 -14 34 82 34 293 c 0
 34 505 115 601 260 601 c 0
260 491 m 0
 203 491 180 442 176 357 c 1
 332 357 l 1xfe
 332 442 309 491 260 491 c 0
EndSplineSet
EndChar

StartChar: egrave
Encoding: 232 232 161
Width: 508
VWidth: 1263
GlyphClass: 2
Flags: W
HStem: -14 110<211.022 313.012> 260 97<176 332> 491 110<208.266 304.725> 787 20G<101 248.973>
VStem: 34 140<141.836 260 357 451.462> 332 140<357 458.376> 340 132<125.305 207>
LayerCount: 2
Back
Fore
SplineSet
101 807 m 1xfc
 236 807 l 1
 332 659 l 1
 221 659 l 1
 101 807 l 1xfc
260 601 m 0
 401 601 472 505 472 293 c 2
 472 260 l 1
 174 260 l 1
 175 155 198 96 265 96 c 0
 310 96 340 138 340 207 c 1
 472 207 l 1xfa
 472 57 384 -14 265 -14 c 0
 113 -14 34 82 34 293 c 0
 34 505 115 601 260 601 c 0
260 491 m 0
 203 491 180 442 176 357 c 1
 332 357 l 1xfc
 332 442 309 491 260 491 c 0
EndSplineSet
EndChar

StartChar: emacron
Encoding: 275 275 162
Width: 508
VWidth: 1263
GlyphClass: 2
Flags: W
HStem: -14 110<211.022 313.012> 260 97<176 332> 491 110<208.266 304.725> 669 96<112 398>
VStem: 34 140<141.836 260 357 451.462> 332 140<357 458.376> 340 132<125.305 207>
LayerCount: 2
Back
Fore
SplineSet
112 765 m 1xf8
 398 765 l 1
 398 669 l 1
 112 669 l 1
 112 765 l 1xf8
260 601 m 0
 401 601 472 505 472 293 c 2
 472 260 l 1
 174 260 l 1
 175 155 198 96 265 96 c 0
 310 96 340 138 340 207 c 1
 472 207 l 1xfa
 472 57 384 -14 265 -14 c 0
 113 -14 34 82 34 293 c 0
 34 505 115 601 260 601 c 0
260 491 m 0
 203 491 180 442 176 357 c 1
 332 357 l 1xfc
 332 442 309 491 260 491 c 0
EndSplineSet
EndChar

StartChar: eogonek
Encoding: 281 281 163
Width: 508
VWidth: 1263
GlyphClass: 2
Flags: W
HStem: -207 77<336.461 400.828> -191 61<337.045 402> 260 97<174 331> 491 110<207.596 304.225>
VStem: 34 139<139.838 260 357 451.462> 217 110<-120.741 -29.232> 331 141<357 458.376> 338 133<123.857 207>
LayerCount: 2
Back
Fore
SplineSet
264 96 m 0xbe
 309 96 338 138 338 207 c 1
 471 207 l 1
 471 101 427 35 360 5 c 1
 347 -10 327 -42 327 -72 c 0
 327 -101 341 -130 378 -130 c 2xbd
 402 -130 l 1
 402 -191 l 1x7d
 377 -201 352 -207 328 -207 c 0
 277 -207 217 -183 217 -106 c 0
 217 -64 231 -37 250 -13 c 1
 109 -7 34 90 34 293 c 0
 34 505 115 601 260 601 c 0
 401 601 472 505 472 293 c 2
 472 260 l 1
 173 260 l 1
 174 155 197 96 264 96 c 0xbe
331 357 m 1x3e
 331 442 308 491 259 491 c 0
 202 491 178 442 174 357 c 1
 331 357 l 1x3e
EndSplineSet
EndChar

StartChar: f
Encoding: 102 102 164
Width: 304
VWidth: 1263
GlyphClass: 2
Flags: W
HStem: 0 21G<69 203> 475 112<10 69 203 304> 703 113<208.35 302.999> 703 100<208.509 304>
VStem: 69 134<0 475 587 694.997>
LayerCount: 2
Back
Fore
SplineSet
207 816 m 0xe8
 239 816 283 809 304 803 c 1
 304 703 l 1xd8
 250 703 l 2
 220 703 203 687 203 655 c 2
 203 587 l 1
 304 587 l 1
 304 475 l 1
 203 475 l 1
 203 0 l 1
 69 0 l 1
 69 475 l 1
 10 475 l 1
 10 587 l 1
 69 587 l 1
 69 659 l 2
 69 736 101 816 207 816 c 0xe8
EndSplineSet
EndChar

StartChar: g
Encoding: 103 103 165
Width: 559
VWidth: 1263
GlyphClass: 2
Flags: W
HStem: -203 102<162.176 404.983> 6 124<183.512 408.191> 201 100<219.881 332.651> 501 100<221.495 334.942>
VStem: 18 135<-90.7735 -4.71544> 45 136<132.959 197.395> 61 134<326.826 473.619> 361 134<327.392 474.299> 418 135<-88.9848 -4.88967> 432 111<623.099 686>
AnchorPoint: "Anchor-1" 0 0 basechar 0
AnchorPoint: "Anchor-0" 280 587 basechar 0
LayerCount: 2
Back
Fore
SplineSet
543 686 m 1xf240
 543 601 506 554 447 536 c 1
 477 503 495 456 495 400 c 0
 495 280 418 201 277 201 c 2
 221 201 l 2
 197 201 181 185 181 165 c 0xf5
 181 145 196 130 216 130 c 2
 418 130 l 2
 493 130 553 72 553 -23 c 0
 553 -132 467 -203 362 -203 c 2
 148 -203 l 2
 76 -203 18 -149 18 -68 c 0xf880
 18 -10 50 28 92 52 c 1
 63 70 45 100 45 139 c 0xf4
 45 191 84 226 131 242 c 1
 84 276 61 332 61 400 c 0
 61 521 137 601 277 601 c 0
 314 601 347 595 375 584 c 1
 419 617 432 665 432 686 c 1
 543 686 l 1xf240
277 501 m 0
 223 501 195 463 195 400 c 0xf3
 195 338 223 301 277 301 c 0
 333 301 361 338 361 400 c 0
 361 463 333 501 277 501 c 0
207 6 m 2
 177 6 153 -18 153 -47 c 0
 153 -81 177 -101 207 -101 c 2
 357 -101 l 2
 390 -101 418 -81 418 -47 c 0xf880
 418 -14 392 6 362 6 c 2
 207 6 l 2
EndSplineSet
EndChar

StartChar: gbreve
Encoding: 287 287 166
Width: 559
VWidth: 1263
GlyphClass: 2
Flags: W
HStem: -203 102<162.176 404.983> 6 124<183.512 408.191> 201 100<219.881 332.651> 501 100<221.495 334.942> 688 82<223.232 335.453> 787 20G<130 214.5 344.5 428>
VStem: 18 135<-90.7735 -4.71544> 45 136<132.959 197.395> 61 134<326.826 473.619> 361 134<327.392 474.299> 418 135<-88.9848 -4.88967> 432 111<623.099 686>
LayerCount: 2
Back
Fore
SplineSet
428 807 m 1xfc
 428 751 371 688 279 688 c 0
 188 688 130 751 130 807 c 1
 213 807 l 1
 216 792 242 770 279 770 c 0
 317 770 343 792 346 807 c 1
 428 807 l 1xfc
543 686 m 1xfc90
 543 601 506 554 447 536 c 1
 477 503 495 456 495 400 c 0
 495 280 418 201 277 201 c 2
 221 201 l 2
 197 201 181 185 181 165 c 0xfd40
 181 145 196 130 216 130 c 2
 418 130 l 2
 493 130 553 72 553 -23 c 0
 553 -132 467 -203 362 -203 c 2
 148 -203 l 2
 76 -203 18 -149 18 -68 c 0xfe20
 18 -10 50 28 92 52 c 1
 63 70 45 100 45 139 c 0xfd
 45 191 84 226 131 242 c 1
 84 276 61 332 61 400 c 0
 61 521 137 601 277 601 c 0
 314 601 347 595 375 584 c 1
 419 617 432 665 432 686 c 1
 543 686 l 1xfc90
277 501 m 0
 223 501 195 463 195 400 c 0xfcc0
 195 338 223 301 277 301 c 0
 333 301 361 338 361 400 c 0
 361 463 333 501 277 501 c 0
207 6 m 2
 177 6 153 -18 153 -47 c 0
 153 -81 177 -101 207 -101 c 2
 357 -101 l 2
 390 -101 418 -81 418 -47 c 0xfe20
 418 -14 392 6 362 6 c 2
 207 6 l 2
EndSplineSet
EndChar

StartChar: gcircumflex
Encoding: 285 285 167
Width: 559
VWidth: 1263
GlyphClass: 2
Flags: W
HStem: -203 102<162.176 404.983> 6 124<183.512 408.191> 201 100<219.881 332.651> 501 100<221.495 334.942> 787 20G<213.2 347.533>
VStem: 18 135<-90.7735 -4.71544> 45 136<132.959 197.395> 61 134<326.826 473.619> 361 134<327.392 474.299> 418 135<-88.9848 -4.88967> 456 87<611.449 686>
LayerCount: 2
Back
Fore
SplineSet
280 734 m 1xf8
 230 657 l 1
 130 657 l 1
 226 807 l 1
 335 807 l 1
 429 657 l 1
 330 657 l 1
 280 734 l 1xf8
543 686 m 1xf920
 543 601 506 554 447 536 c 1
 477 503 495 456 495 400 c 0
 495 280 418 201 277 201 c 2
 221 201 l 2
 197 201 181 185 181 165 c 0xfa80
 181 145 196 130 216 130 c 2
 418 130 l 2
 493 130 553 72 553 -23 c 0
 553 -132 467 -203 362 -203 c 2
 148 -203 l 2
 76 -203 18 -149 18 -68 c 0xfc40
 18 -10 50 28 92 52 c 1
 63 70 45 100 45 139 c 0xfa
 45 191 84 226 131 242 c 1
 84 276 61 332 61 400 c 0
 61 521 137 601 277 601 c 0
 314 601 347 595 375 584 c 1
 456 588 456 663 456 686 c 1
 543 686 l 1xf920
277 501 m 0
 223 501 195 463 195 400 c 0xf980
 195 338 223 301 277 301 c 0
 333 301 361 338 361 400 c 0
 361 463 333 501 277 501 c 0
207 6 m 2
 177 6 153 -18 153 -47 c 0
 153 -81 177 -101 207 -101 c 2
 357 -101 l 2
 390 -101 418 -81 418 -47 c 0xfc40
 418 -14 392 6 362 6 c 2
 207 6 l 2
EndSplineSet
EndChar

StartChar: gcommaaccent
Encoding: 291 291 168
Width: 559
VWidth: 1263
GlyphClass: 2
Flags: W
HStem: -203 102<162.176 404.983> 6 124<183.512 408.191> 201 100<219.881 332.651> 501 100<221.495 334.942>
VStem: 18 135<-90.7735 -4.71544> 45 136<132.959 197.395> 61 134<326.826 473.619> 197 139<659 784> 361 134<327.392 474.299> 418 135<-88.9848 -4.88967> 432 111<623.099 686>
LayerCount: 2
Back
Fore
SplineSet
336 796 m 1xf1
 336 659 l 1
 197 659 l 1
 197 784 l 1
 249 890 l 1
 322 890 l 1
 282 796 l 1
 336 796 l 1xf1
543 686 m 1xf320
 543 601 506 554 447 536 c 1
 477 503 495 456 495 400 c 0
 495 280 418 201 277 201 c 2
 221 201 l 2
 197 201 181 185 181 165 c 0xf580
 181 145 196 130 216 130 c 2
 418 130 l 2
 493 130 553 72 553 -23 c 0
 553 -132 467 -203 362 -203 c 2
 148 -203 l 2
 76 -203 18 -149 18 -68 c 0xf940
 18 -10 50 28 92 52 c 1
 63 70 45 100 45 139 c 0xf5
 45 191 84 226 131 242 c 1
 84 276 61 332 61 400 c 0
 61 521 137 601 277 601 c 0
 314 601 347 595 375 584 c 1
 419 617 432 665 432 686 c 1
 543 686 l 1xf320
277 501 m 0
 223 501 195 463 195 400 c 0xf380
 195 338 223 301 277 301 c 0
 333 301 361 338 361 400 c 0
 361 463 333 501 277 501 c 0
207 6 m 2
 177 6 153 -18 153 -47 c 0
 153 -81 177 -101 207 -101 c 2
 357 -101 l 2
 390 -101 418 -81 418 -47 c 0xf940
 418 -14 392 6 362 6 c 2
 207 6 l 2
EndSplineSet
EndChar

StartChar: gdotaccent
Encoding: 289 289 169
Width: 559
VWidth: 1263
GlyphClass: 2
Flags: W
HStem: -203 102<162.176 404.983> 6 124<183.512 408.191> 201 100<219.881 332.651> 501 100<221.495 334.942> 678 129<220 340>
VStem: 18 135<-90.7735 -4.71544> 45 136<132.959 197.395> 61 134<326.826 473.619> 220 120<678 807> 361 134<327.392 474.299> 418 135<-88.9848 -4.88967> 432 111<623.099 686>
LayerCount: 2
Back
Fore
SplineSet
220 807 m 1xf880
 340 807 l 1
 340 678 l 1
 220 678 l 1
 220 807 l 1xf880
543 686 m 1xf990
 543 601 506 554 447 536 c 1
 477 503 495 456 495 400 c 0
 495 280 418 201 277 201 c 2
 221 201 l 2
 197 201 181 185 181 165 c 0xfac0
 181 145 196 130 216 130 c 2
 418 130 l 2
 493 130 553 72 553 -23 c 0
 553 -132 467 -203 362 -203 c 2
 148 -203 l 2
 76 -203 18 -149 18 -68 c 0xfca0
 18 -10 50 28 92 52 c 1
 63 70 45 100 45 139 c 0xfa80
 45 191 84 226 131 242 c 1
 84 276 61 332 61 400 c 0
 61 521 137 601 277 601 c 0
 314 601 347 595 375 584 c 1
 419 617 432 665 432 686 c 1
 543 686 l 1xf990
277 501 m 0
 223 501 195 463 195 400 c 0xf9c0
 195 338 223 301 277 301 c 0
 333 301 361 338 361 400 c 0
 361 463 333 501 277 501 c 0
207 6 m 2
 177 6 153 -18 153 -47 c 0
 153 -81 177 -101 207 -101 c 2
 357 -101 l 2
 390 -101 418 -81 418 -47 c 0xfca0
 418 -14 392 6 362 6 c 2
 207 6 l 2
EndSplineSet
EndChar

StartChar: h
Encoding: 104 104 170
Width: 559
VWidth: 1263
GlyphClass: 2
Flags: W
HStem: 0 21G<62 196 364 498> 479 122<258.599 387.12> 787 20G<62 196>
VStem: 62 134<0 438.966 524 807> 364 134<0 454.466>
AnchorPoint: "Anchor-1" 0 0 basechar 0
AnchorPoint: "Anchor-0" 280 587 basechar 0
LayerCount: 2
Back
Fore
SplineSet
342 601 m 0
 432 601 498 551 498 412 c 2
 498 0 l 1
 364 0 l 1
 364 375 l 2
 364 451 335 479 287 479 c 0
 235 479 196 428 196 361 c 2
 196 0 l 1
 62 0 l 1
 62 807 l 1
 196 807 l 1
 196 524 l 1
 223 562 273 601 342 601 c 0
EndSplineSet
EndChar

StartChar: hbar
Encoding: 295 295 171
Width: 559
VWidth: 1263
GlyphClass: 2
Flags: W
HStem: 0 21G<62 196 364 498> 479 122<258.599 387.12> 650 98<0 62 196 342> 787 20G<62 196>
VStem: 62 134<0 438.966 524 650 748 807> 364 134<0 454.466>
LayerCount: 2
Back
Fore
SplineSet
342 748 m 1
 342 650 l 1
 196 650 l 1
 196 524 l 1
 223 562 273 601 342 601 c 0
 432 601 498 551 498 412 c 2
 498 0 l 1
 364 0 l 1
 364 375 l 2
 364 451 335 479 287 479 c 0
 235 479 196 428 196 361 c 2
 196 0 l 1
 62 0 l 1
 62 650 l 1
 0 650 l 1
 0 748 l 1
 62 748 l 1
 62 807 l 1
 196 807 l 1
 196 748 l 1
 342 748 l 1
EndSplineSet
EndChar

StartChar: hcircumflex
Encoding: 293 293 172
Width: 559
VWidth: 1263
GlyphClass: 2
Flags: W
HStem: 0 21G<62 196 364 498> 479 122<258.599 387.12> 787 20G<62 196>
VStem: 62 134<0 438.966 524 807> 364 134<0 454.466>
LayerCount: 2
Back
Fore
SplineSet
126 912 m 1
 76 835 l 1
 -24 835 l 1
 72 986 l 1
 181 986 l 1
 275 835 l 1
 176 835 l 1
 126 912 l 1
342 601 m 0
 432 601 498 551 498 412 c 2
 498 0 l 1
 364 0 l 1
 364 375 l 2
 364 451 335 479 287 479 c 0
 235 479 196 428 196 361 c 2
 196 0 l 1
 62 0 l 1
 62 807 l 1
 196 807 l 1
 196 524 l 1
 223 562 273 601 342 601 c 0
EndSplineSet
EndChar

StartChar: i
Encoding: 105 105 173
Width: 255
VWidth: 1263
GlyphClass: 2
Flags: W
HStem: 0 21G<61 195> 567 20G<61 195> 686 121<61 195>
VStem: 61 134<0 587 686 807>
LayerCount: 2
Back
Fore
SplineSet
61 807 m 1
 195 807 l 1
 195 686 l 1
 61 686 l 1
 61 807 l 1
61 587 m 1
 195 587 l 1
 195 0 l 1
 61 0 l 1
 61 587 l 1
EndSplineSet
EndChar

StartChar: dotlessi
Encoding: 305 305 174
Width: 255
VWidth: 1263
GlyphClass: 2
Flags: W
HStem: 0 21G<61 195> 567 20G<61 195>
VStem: 61 134<0 587>
AnchorPoint: "Anchor-1" 0 0 basechar 0
AnchorPoint: "Anchor-0" 128 587 basechar 0
LayerCount: 2
Back
Fore
SplineSet
61 587 m 1
 195 587 l 1
 195 0 l 1
 61 0 l 1
 61 587 l 1
EndSplineSet
EndChar

StartChar: iacute
Encoding: 237 237 175
Width: 255
VWidth: 1263
GlyphClass: 2
Flags: W
HStem: 0 21G<61 195> 567 20G<61 195> 787 20G<134.027 280>
VStem: 61 134<0 587>
LayerCount: 2
Back
Fore
SplineSet
162 659 m 1
 51 659 l 1
 147 807 l 1
 280 807 l 1
 162 659 l 1
61 0 m 1
 61 587 l 1
 195 587 l 1
 195 0 l 1
 61 0 l 1
EndSplineSet
EndChar

StartChar: ibreve
Encoding: 301 301 176
Width: 255
VWidth: 1263
GlyphClass: 2
Flags: W
HStem: 0 21G<61 195> 567 20G<61 195> 688 82<71.9095 184.453> 787 20G<-23 63.5 193.5 277>
VStem: 61 134<0 587>
LayerCount: 2
Back
Fore
SplineSet
277 807 m 1
 277 751 220 688 128 688 c 0
 36 688 -23 751 -23 807 c 1
 62 807 l 1
 65 792 91 770 128 770 c 0
 166 770 192 792 195 807 c 1
 277 807 l 1
61 587 m 1
 195 587 l 1
 195 0 l 1
 61 0 l 1
 61 587 l 1
EndSplineSet
EndChar

StartChar: icircumflex
Encoding: 238 238 177
Width: 255
VWidth: 1263
GlyphClass: 2
Flags: W
HStem: 0 21G<61 195> 567 20G<61 195> 787 20G<60.0667 195.667>
VStem: 61 134<0 587>
LayerCount: 2
Back
Fore
SplineSet
129 734 m 1
 78 657 l 1
 -24 657 l 1
 73 807 l 1
 183 807 l 1
 278 657 l 1
 178 657 l 1
 129 734 l 1
61 587 m 1
 195 587 l 1
 195 0 l 1
 61 0 l 1
 61 587 l 1
EndSplineSet
EndChar

StartChar: idieresis
Encoding: 239 239 178
Width: 255
VWidth: 1263
GlyphClass: 2
Flags: W
HStem: 0 21G<61 195> 567 20G<61 195> 686 121<-25 86 169 282>
VStem: -25 111<686 807> 61 134<0 587> 169 113<686 807>
LayerCount: 2
Back
Fore
SplineSet
-25 686 m 1xf0
 -25 807 l 1
 86 807 l 1
 86 686 l 1
 -25 686 l 1xf0
169 686 m 1xe4
 169 807 l 1
 282 807 l 1
 282 686 l 1
 169 686 l 1xe4
61 0 m 1xe8
 61 587 l 1
 195 587 l 1
 195 0 l 1
 61 0 l 1xe8
EndSplineSet
EndChar

StartChar: igrave
Encoding: 236 236 179
Width: 255
VWidth: 1263
GlyphClass: 2
Flags: W
HStem: 0 21G<61 195> 567 20G<61 195>
VStem: 61 134<0 587>
LayerCount: 2
Back
Fore
SplineSet
93 659 m 1
 -28.9672131148 805.360655738 l 1
 109 805.360655738 l 1
 205 659 l 1
 93 659 l 1
61 0 m 1
 61 587 l 1
 195 587 l 1
 195 0 l 1
 61 0 l 1
EndSplineSet
EndChar

StartChar: ij
Encoding: 307 307 180
Width: 508
VWidth: 1263
GlyphClass: 2
Flags: W
HStem: -203 112<214.093 306.828> -189 98<213 306.527> 0 21G<61 195> 567 20G<61 195 314 448> 686 121<61 195 314 448>
VStem: 61 134<0 587 686 807> 314 134<-81.3962 587 686 807>
LayerCount: 2
Back
Fore
SplineSet
61 686 m 1x3e
 61 807 l 1
 195 807 l 1
 195 686 l 1
 61 686 l 1x3e
314 686 m 1
 314 807 l 1
 448 807 l 1
 448 686 l 1
 314 686 l 1
61 0 m 1
 61 587 l 1
 195 587 l 1
 195 0 l 1
 61 0 l 1
448 -45 m 2
 448 -123 419 -203 313 -203 c 0xbe
 279 -203 236 -197 213 -189 c 1
 213 -91 l 1x7e
 263 -91 l 2xbe
 297 -91 314 -72 314 -37 c 2
 314 587 l 1
 448 587 l 1
 448 -45 l 2
EndSplineSet
EndChar

StartChar: imacron
Encoding: 299 299 181
Width: 255
VWidth: 1263
GlyphClass: 2
Flags: W
HStem: 0 21G<61 195> 567 20G<61 195> 669 96<-15 270>
VStem: 61 134<0 587>
LayerCount: 2
Back
Fore
SplineSet
-15 765 m 1
 270 765 l 1
 270 669 l 1
 -15 669 l 1
 -15 765 l 1
61 587 m 1
 195 587 l 1
 195 0 l 1
 61 0 l 1
 61 587 l 1
EndSplineSet
EndChar

StartChar: iogonek
Encoding: 303 303 182
Width: 255
VWidth: 1263
GlyphClass: 2
Flags: W
HStem: -212 77<168.793 234.738> -197 62<168.959 236> 567 20G<61 195> 678 129<68 188>
VStem: 52 108<-125.867 -33.1699> 61 134<0 587> 68 120<678 807>
LayerCount: 2
Back
Fore
SplineSet
68 678 m 1x32
 68 807 l 1
 188 807 l 1
 188 678 l 1
 68 678 l 1x32
160 -78 m 0xb8
 160 -107 174 -135 211 -135 c 2xb8
 236 -135 l 1
 236 -197 l 1x78
 209 -207 187 -212 162 -212 c 0
 111 -212 52 -188 52 -111 c 0xb8
 52 -59 73 -28 101 0 c 1
 61 0 l 1
 61 587 l 1
 195 587 l 1
 195 0 l 1xb4
 181 -15 160 -46 160 -78 c 0xb8
EndSplineSet
EndChar

StartChar: itilde
Encoding: 297 297 183
Width: 255
VWidth: 1263
GlyphClass: 2
Flags: W
HStem: 0 21G<61 195> 567 20G<61 195> 671 94<129.376 233.121> 712 95<21.8789 127.143>
VStem: -61 75<671 706.574> 61 134<0 587> 241 75<771.798 807>
LayerCount: 2
Back
Fore
SplineSet
316 807 m 1xde
 316 746 284 671 206 671 c 0xee
 152.799420462 670.853350274 110.161109013 711.145635265 58 712 c 0xde
 34 712 19 701 14 671 c 1
 -61 671 l 1xee
 -61 733 -29 807 49 807 c 0xde
 104.156396206 807.583796984 145.968911062 767.120660604 198 765 c 0xee
 222 765 236 775 241 807 c 1
 316 807 l 1xde
61 587 m 1
 195 587 l 1
 195 0 l 1
 61 0 l 1
 61 587 l 1
EndSplineSet
EndChar

StartChar: j
Encoding: 106 106 184
Width: 255
VWidth: 1263
GlyphClass: 2
Flags: W
HStem: -203 112<-40.8619 53.459> -189 98<-42 53.1687> 567 20G<61 195> 686 121<61 195>
VStem: 61 134<-81.3962 587 686 807>
LayerCount: 2
Back
Fore
SplineSet
61 807 m 1x38
 195 807 l 1
 195 686 l 1
 61 686 l 1
 61 807 l 1x38
195 -45 m 2
 195 -123 165 -203 58 -203 c 0xb8
 24 -203 -18 -197 -42 -189 c 1
 -42 -91 l 1x78
 8 -91 l 2xb8
 43 -91 61 -72 61 -37 c 2
 61 587 l 1
 195 587 l 1
 195 -45 l 2
EndSplineSet
EndChar

StartChar: jcircumflex
Encoding: 309 309 185
Width: 255
VWidth: 1263
GlyphClass: 2
Flags: W
HStem: -203 112<-40.8619 53.459> -189 98<-42 53.1687> 567 20G<61 195> 787 20G<62.2 198.4>
VStem: 61 134<-81.3962 587>
LayerCount: 2
Back
Fore
SplineSet
130 734 m 1x38
 80 657 l 1
 -21 657 l 1
 75 807 l 1
 186 807 l 1
 279 657 l 1
 179 657 l 1
 130 734 l 1x38
195 -45 m 2
 195 -123 165 -203 58 -203 c 0xb8
 24 -203 -18 -197 -42 -189 c 1
 -42 -91 l 1x78
 8 -91 l 2xb8
 43 -91 61 -72 61 -37 c 2
 61 587 l 1
 195 587 l 1
 195 -45 l 2
EndSplineSet
EndChar

StartChar: k
Encoding: 107 107 186
Width: 508
VWidth: 1263
GlyphClass: 2
Flags: W
HStem: 0 21G<61 195 351.41 510> 567 20G<344.923 501> 787 20G<61 195>
VStem: 61 134<0 183 354 807>
AnchorPoint: "Anchor-1" 255 0 basechar 0
AnchorPoint: "Anchor-0" 0 0 basechar 0
LayerCount: 2
Back
Fore
SplineSet
195 0 m 1
 61 0 l 1
 61 807 l 1
 195 807 l 1
 195 354 l 1
 359 587 l 1
 501 587 l 1
 327 349 l 1
 510 0 l 1
 361 0 l 1
 244 244 l 1
 195 183 l 1
 195 0 l 1
EndSplineSet
EndChar

StartChar: kcommaaccent
Encoding: 311 311 187
Width: 508
VWidth: 1263
GlyphClass: 2
Flags: W
HStem: 0 21G<61 195 351.41 510> 567 20G<344.923 501> 787 20G<61 195>
VStem: 61 134<0 183 354 807> 187 136<-187 -62>
LayerCount: 2
Back
Fore
SplineSet
195 0 m 1xf0
 61 0 l 1
 61 807 l 1
 195 807 l 1
 195 354 l 1
 359 587 l 1
 501 587 l 1
 327 349 l 1
 510 0 l 1
 361 0 l 1
 244 244 l 1
 195 183 l 1
 195 0 l 1xf0
187 -198 m 1xe8
 187 -62 l 1
 323 -62 l 1
 323 -187 l 1
 274 -293 l 1
 201 -293 l 1
 240 -198 l 1
 187 -198 l 1xe8
EndSplineSet
EndChar

StartChar: kgreenlandic
Encoding: 312 312 188
Width: 510
VWidth: 1263
GlyphClass: 2
Flags: W
HStem: 0 21G<61 195 351.41 510> 567 20G<61 195 344.923 501>
VStem: 61 134<0 183 354 587>
LayerCount: 2
Back
Fore
SplineSet
195 0 m 1
 61 0 l 1
 61 587 l 1
 195 587 l 1
 195 354 l 1
 359 587 l 1
 501 587 l 1
 327 349 l 1
 510 0 l 1
 361 0 l 1
 244 244 l 1
 195 183 l 1
 195 0 l 1
EndSplineSet
EndChar

StartChar: l
Encoding: 108 108 189
Width: 255
VWidth: 1263
GlyphClass: 2
Flags: W
HStem: 0 21G<61 195> 787 20G<61 195>
VStem: 61 134<0 807>
AnchorPoint: "Anchor-1" 128 0 basechar 0
AnchorPoint: "Anchor-0" 128 587 basechar 0
LayerCount: 2
Back
Fore
SplineSet
61 807 m 1
 195 807 l 1
 195 0 l 1
 61 0 l 1
 61 807 l 1
EndSplineSet
EndChar

StartChar: lacute
Encoding: 314 314 190
Width: 255
VWidth: 1263
GlyphClass: 2
Flags: W
HStem: 0 21G<61 195> 787 20G<61 195>
VStem: 61 134<0 807>
LayerCount: 2
Back
Fore
SplineSet
162 839 m 1
 51 839 l 1
 147 986 l 1
 280 986 l 1
 162 839 l 1
61 0 m 1
 61 807 l 1
 195 807 l 1
 195 0 l 1
 61 0 l 1
EndSplineSet
EndChar

StartChar: lcaron
Encoding: 318 318 191
Width: 352
VWidth: 1263
GlyphClass: 2
Flags: W
HStem: 0 21G<61 195> 745 20G<253 407> 787 20G<61 195>
VStem: 61 134<0 807> 253 154<626 765>
LayerCount: 2
Back
Fore
SplineSet
61 807 m 1
 195 807 l 1
 195 0 l 1
 61 0 l 1
 61 807 l 1
253 613 m 1
 253 765 l 1
 407 765 l 1
 407 626 l 1
 332 438 l 1
 253 438 l 1
 313 613 l 1
 253 613 l 1
EndSplineSet
EndChar

StartChar: lcommaaccent
Encoding: 316 316 192
Width: 255
VWidth: 1263
GlyphClass: 2
Flags: W
HStem: 0 21G<61 195> 787 20G<61 195>
VStem: 61 134<-187 -62 0 807>
LayerCount: 2
Back
Fore
SplineSet
61 807 m 1
 195 807 l 1
 195 0 l 1
 61 0 l 1
 61 807 l 1
59 -198 m 1
 59 -62 l 1
 197 -62 l 1
 197 -187 l 1
 147 -293 l 1
 73 -293 l 1
 114 -198 l 1
 59 -198 l 1
EndSplineSet
EndChar

StartChar: ldot
Encoding: 320 320 193
Width: 372
VWidth: 1263
GlyphClass: 2
Flags: W
HStem: 0 21G<61 195> 311 146<237 373> 787 20G<61 195>
VStem: 61 134<0 807> 237 136<311 457>
LayerCount: 2
Back
Fore
SplineSet
61 807 m 1
 195 807 l 1
 195 0 l 1
 61 0 l 1
 61 807 l 1
237 457 m 1
 373 457 l 1
 373 311 l 1
 237 311 l 1
 237 457 l 1
EndSplineSet
Ligature2: "Ligature Substitution lookup 39 subtable" l periodcentered
EndChar

StartChar: lslash
Encoding: 322 322 194
Width: 255
VWidth: 1263
GlyphClass: 2
Flags: W
HStem: 0 21G<61 195> 787 20G<61 195>
VStem: 61 134<0 258 365 378 485 807>
LayerCount: 2
Back
Fore
SplineSet
195 0 m 1
 61 0 l 1
 61 258 l 1
 -15 191 l 1
 -15 298 l 1
 61 365 l 1
 61 807 l 1
 195 807 l 1
 195 485 l 1
 283 563 l 1
 283 456 l 1
 195 378 l 1
 195 0 l 1
EndSplineSet
EndChar

StartChar: m
Encoding: 109 109 195
Width: 813
VWidth: 1263
GlyphClass: 2
Flags: W
HStem: 0 21G<62 196 342 475 621 755> 479 122<252.983 361 526.741 652.5> 567 20G<62 176.889>
VStem: 62 134<0 443.893> 342 133<0 445.2> 621 134<0 460.604>
CounterMasks: 1 1c
LayerCount: 2
Back
Fore
SplineSet
611 601 m 0xdc
 694 601 755 553 755 412 c 2
 755 0 l 1
 621 0 l 1
 621 375 l 2
 621 451 601 479 556 479 c 0
 513 479 475 436 475 370 c 2
 475 0 l 1
 342 0 l 1
 342 375 l 2
 342 451 320 479 275 479 c 0xdc
 230 479 196 430 196 361 c 2
 196 0 l 1
 62 0 l 1
 62 587 l 1
 173 587 l 1xbc
 187 515 l 1
 215 560 268 601 332 601 c 0
 390 601 435 576 458 515 c 1
 488 560 540 601 611 601 c 0xdc
EndSplineSet
EndChar

StartChar: n
Encoding: 110 110 196
Width: 559
VWidth: 1263
GlyphClass: 2
Flags: W
HStem: 0 21G<62 196 364 498> 479 122<256.873 387.12> 567 20G<62 176.889>
VStem: 62 134<0 438.966> 364 134<0 454.466>
AnchorPoint: "Anchor-1" 280 0 basechar 0
AnchorPoint: "Anchor-0" 280 587 basechar 0
LayerCount: 2
Back
Fore
SplineSet
342 601 m 0xd8
 432 601 498 551 498 412 c 2
 498 0 l 1
 364 0 l 1
 364 375 l 2
 364 451 335 479 287 479 c 0xd8
 235 479 196 428 196 361 c 2
 196 0 l 1
 62 0 l 1
 62 587 l 1
 173 587 l 1xb8
 187 515 l 1
 217 560 271 601 342 601 c 0xd8
EndSplineSet
Substitution2: "'sups' Superscript lookup 11 subtable" nsuperior
Substitution2: "'aalt' Access All Alternates lookup 0 subtable" nsuperior
EndChar

StartChar: nacute
Encoding: 324 324 197
Width: 559
VWidth: 1263
GlyphClass: 2
Flags: W
HStem: 0 21G<62 196 364 498> 479 122<256.873 387.12> 567 20G<62 176.889> 787 20G<286.027 433>
VStem: 62 134<0 438.966> 364 134<0 454.466>
LayerCount: 2
Back
Fore
SplineSet
313 659 m 1x9c
 203 659 l 1
 299 807 l 1
 433 807 l 1
 313 659 l 1x9c
342 601 m 0xdc
 432 601 498 551 498 412 c 2
 498 0 l 1
 364 0 l 1
 364 375 l 2
 364 451 335 479 287 479 c 0xdc
 235 479 196 428 196 361 c 2
 196 0 l 1
 62 0 l 1
 62 587 l 1
 173 587 l 1xbc
 187 515 l 1
 217 560 271 601 342 601 c 0xdc
EndSplineSet
EndChar

StartChar: napostrophe
Encoding: 329 329 198
Width: 755
VWidth: 1263
GlyphClass: 2
Flags: W
HStem: 0 21G<256 390 560 693> 479 122<451.649 582.858> 567 20G<256 372.333> 745 20G<75 213>
VStem: 75 138<640 765> 256 134<0 438.966> 560 133<0 454.466>
LayerCount: 2
Back
Fore
SplineSet
75 629 m 1x9e
 75 765 l 1
 213 765 l 1
 213 640 l 1
 163 534 l 1
 91 534 l 1
 130 629 l 1
 75 629 l 1x9e
537 601 m 0xde
 628 601 693 551 693 412 c 2
 693 0 l 1
 560 0 l 1
 560 375 l 2
 560 451 530 479 482 479 c 0xde
 429 479 390 428 390 361 c 2
 390 0 l 1
 256 0 l 1
 256 587 l 1
 369 587 l 1xbe
 381 515 l 1
 410 560 468 601 537 601 c 0xde
EndSplineSet
EndChar

StartChar: ncaron
Encoding: 328 328 199
Width: 559
VWidth: 1263
GlyphClass: 2
Flags: W
HStem: 0 21G<62 196 364 498> 479 122<256.873 387.12> 567 20G<62 176.889> 787 20G<130 242.987 317.013 429>
VStem: 62 134<0 438.966> 364 134<0 454.466>
LayerCount: 2
Back
Fore
SplineSet
130 807 m 1x9c
 230 807 l 1
 280 730 l 1
 330 807 l 1
 429 807 l 1
 335 657 l 1
 226 657 l 1
 130 807 l 1x9c
342 601 m 0xdc
 432 601 498 551 498 412 c 2
 498 0 l 1
 364 0 l 1
 364 375 l 2
 364 451 335 479 287 479 c 0xdc
 235 479 196 428 196 361 c 2
 196 0 l 1
 62 0 l 1
 62 587 l 1
 173 587 l 1xbc
 187 515 l 1
 217 560 271 601 342 601 c 0xdc
EndSplineSet
EndChar

StartChar: ncommaaccent
Encoding: 326 326 200
Width: 559
VWidth: 1263
GlyphClass: 2
Flags: W
HStem: 0 21G<62 196 364 498> 479 122<256.873 387.12> 567 20G<62 176.889>
VStem: 62 134<0 438.966> 211 138<-187 -62> 364 134<0 454.466>
CounterMasks: 1 1c
LayerCount: 2
Back
Fore
SplineSet
342 601 m 0xdc
 432 601 498 551 498 412 c 2
 498 0 l 1
 364 0 l 1
 364 375 l 2
 364 451 335 479 287 479 c 0xdc
 235 479 196 428 196 361 c 2
 196 0 l 1
 62 0 l 1
 62 587 l 1
 173 587 l 1xbc
 187 515 l 1
 217 560 271 601 342 601 c 0xdc
211 -198 m 1
 211 -62 l 1
 349 -62 l 1
 349 -187 l 1
 298 -293 l 1
 226 -293 l 1
 265 -198 l 1
 211 -198 l 1
EndSplineSet
EndChar

StartChar: eng
Encoding: 331 331 201
Width: 559
VWidth: 1263
GlyphClass: 2
Flags: W
HStem: -203 112<264.092 356.512> -189 98<263 356.303> 0 21G<62 196> 479 122<256.873 387.12> 567 20G<62 176.889>
VStem: 62 134<0 438.966> 364 134<-81.3962 454.466>
LayerCount: 2
Back
Fore
SplineSet
342 601 m 0x36
 432 601 498 551 498 412 c 2
 498 -45 l 2
 498 -123 468 -203 361 -203 c 0xb6
 328 -203 286 -197 263 -189 c 1
 263 -91 l 1x66
 312 -91 l 2
 346 -91 364 -72 364 -37 c 2
 364 375 l 2
 364 451 335 479 287 479 c 0xb6
 235 479 196 428 196 361 c 2
 196 0 l 1
 62 0 l 1
 62 587 l 1
 173 587 l 1x2e
 187 515 l 1
 217 560 271 601 342 601 c 0x36
EndSplineSet
EndChar

StartChar: ntilde
Encoding: 241 241 202
Width: 559
VWidth: 1263
GlyphClass: 2
Flags: W
HStem: 0 21G<62 196 364 498> 479 122<256.873 387.12> 567 20G<62 176.889> 671 94<279.708 387.839> 712 95<174.879 279.708>
VStem: 62 134<0 438.966> 92 75<671 706.574> 364 134<0 454.466> 394 73<771.798 807>
LayerCount: 2
Back
Fore
SplineSet
467 807 m 1x8a80
 467 746 437 671 357 671 c 0x9280
 303.992488817 670.716400238 261.670057666 710.972368311 210 712 c 0x8a80
 187 712 171 701 167 671 c 1
 92 671 l 1x9280
 92 733 124 807 202 807 c 0x8a80
 256.259062678 807.070183784 299.296924346 766.434892962 351 765 c 0x9280
 374 765 390 775 394 807 c 1
 467 807 l 1x8a80
342 601 m 0xc5
 432 601 498 551 498 412 c 2
 498 0 l 1
 364 0 l 1
 364 375 l 2
 364 451 335 479 287 479 c 0xc5
 235 479 196 428 196 361 c 2
 196 0 l 1
 62 0 l 1
 62 587 l 1
 173 587 l 1xa5
 187 515 l 1
 217 560 271 601 342 601 c 0xc5
EndSplineSet
EndChar

StartChar: o
Encoding: 111 111 203
Width: 559
VWidth: 1263
GlyphClass: 2
Flags: W
HStem: -14 114<224.248 335.889> 488 113<224.248 335.889>
VStem: 45 141<148.845 443.75> 375 140<148.845 437.759>
AnchorPoint: "Anchor-1" 0 0 basechar 0
AnchorPoint: "Anchor-0" 280 587 basechar 0
LayerCount: 2
Back
Fore
SplineSet
280 601 m 0
 437 601 515 505 515 293 c 0
 515 82 437 -14 280 -14 c 0
 123 -14 45 82 45 293 c 0
 45 505 123 601 280 601 c 0
280 488 m 0
 211 488 186 428 186 314 c 2
 186 273 l 2
 186 159 211 100 280 100 c 0
 349 100 375 159 375 273 c 2
 375 314 l 2
 375 428 349 488 280 488 c 0
EndSplineSet
Substitution2: "Single Substitution lookup 40 subtable" ordmasculine
Substitution2: "'aalt' Access All Alternates lookup 0 subtable" ordmasculine
EndChar

StartChar: oacute
Encoding: 243 243 204
Width: 559
VWidth: 1263
GlyphClass: 2
Flags: W
HStem: -14 114<224.248 335.889> 488 113<224.248 335.889> 787 20G<286.027 433>
VStem: 45 141<148.845 443.75> 375 140<148.845 437.759>
LayerCount: 2
Back
Fore
SplineSet
313 659 m 1
 203 659 l 1
 299 807 l 1
 433 807 l 1
 313 659 l 1
280 601 m 0
 437 601 515 505 515 293 c 0
 515 82 437 -14 280 -14 c 0
 123 -14 45 82 45 293 c 0
 45 505 123 601 280 601 c 0
280 488 m 0
 211 488 186 428 186 314 c 2
 186 273 l 2
 186 159 211 100 280 100 c 0
 349 100 375 159 375 273 c 2
 375 314 l 2
 375 428 349 488 280 488 c 0
EndSplineSet
EndChar

StartChar: obreve
Encoding: 335 335 205
Width: 559
VWidth: 1263
GlyphClass: 2
Flags: W
HStem: -14 114<224.248 335.889> 488 113<224.248 335.889> 688 82<223.232 335.453> 787 20G<130 214.5 344.5 428>
VStem: 45 141<148.845 443.75> 375 140<148.845 437.759>
LayerCount: 2
Back
Fore
SplineSet
428 807 m 1
 428 751 371 688 279 688 c 0
 188 688 130 751 130 807 c 1
 213 807 l 1
 216 792 242 770 279 770 c 0
 317 770 343 792 346 807 c 1
 428 807 l 1
280 601 m 0
 437 601 515 505 515 293 c 0
 515 82 437 -14 280 -14 c 0
 123 -14 45 82 45 293 c 0
 45 505 123 601 280 601 c 0
280 488 m 0
 211 488 186 428 186 314 c 2
 186 273 l 2
 186 159 211 100 280 100 c 0
 349 100 375 159 375 273 c 2
 375 314 l 2
 375 428 349 488 280 488 c 0
EndSplineSet
EndChar

StartChar: ocircumflex
Encoding: 244 244 206
Width: 559
VWidth: 1263
GlyphClass: 2
Flags: W
HStem: -14 114<224.248 335.889> 488 113<224.248 335.889> 787 20G<213.2 347.533>
VStem: 45 141<148.845 443.75> 375 140<148.845 437.759>
LayerCount: 2
Back
Fore
SplineSet
280 734 m 1
 230 657 l 1
 130 657 l 1
 226 807 l 1
 335 807 l 1
 429 657 l 1
 330 657 l 1
 280 734 l 1
280 601 m 0
 437 601 515 505 515 293 c 0
 515 82 437 -14 280 -14 c 0
 123 -14 45 82 45 293 c 0
 45 505 123 601 280 601 c 0
280 488 m 0
 211 488 186 428 186 314 c 2
 186 273 l 2
 186 159 211 100 280 100 c 0
 349 100 375 159 375 273 c 2
 375 314 l 2
 375 428 349 488 280 488 c 0
EndSplineSet
EndChar

StartChar: odieresis
Encoding: 246 246 207
Width: 559
VWidth: 1263
GlyphClass: 2
Flags: W
HStem: -14 114<224.248 335.889> 488 113<224.248 335.889> 686 121<126 237 322 433>
VStem: 45 141<148.845 443.75> 126 111<686 807> 322 111<686 807> 375 140<148.845 437.759>
LayerCount: 2
Back
Fore
SplineSet
126 686 m 1xe8
 126 807 l 1
 237 807 l 1
 237 686 l 1
 126 686 l 1xe8
322 686 m 1xe4
 322 807 l 1
 433 807 l 1
 433 686 l 1
 322 686 l 1xe4
280 601 m 0
 437 601 515 505 515 293 c 0
 515 82 437 -14 280 -14 c 0
 123 -14 45 82 45 293 c 0xf2
 45 505 123 601 280 601 c 0
280 488 m 0
 211 488 186 428 186 314 c 2
 186 273 l 2
 186 159 211 100 280 100 c 0
 349 100 375 159 375 273 c 2
 375 314 l 2
 375 428 349 488 280 488 c 0
EndSplineSet
EndChar

StartChar: ograve
Encoding: 242 242 208
Width: 559
VWidth: 1263
GlyphClass: 2
Flags: W
HStem: -14 114<224.248 335.889> 488 113<224.248 335.889>
VStem: 45 141<148.845 443.75> 375 140<148.845 437.759>
LayerCount: 2
Back
Fore
SplineSet
245 659 m 1
 123.032786885 805.360655738 l 1
 260 805.360655738 l 1
 356 659 l 1
 245 659 l 1
280 601 m 0
 437 601 515 505 515 293 c 0
 515 82 437 -14 280 -14 c 0
 123 -14 45 82 45 293 c 0
 45 505 123 601 280 601 c 0
280 488 m 0
 211 488 186 428 186 314 c 2
 186 273 l 2
 186 159 211 100 280 100 c 0
 349 100 375 159 375 273 c 2
 375 314 l 2
 375 428 349 488 280 488 c 0
EndSplineSet
EndChar

StartChar: ohungarumlaut
Encoding: 337 337 209
Width: 559
VWidth: 1263
GlyphClass: 2
Flags: W
HStem: -14 114<224.248 335.889> 488 113<224.248 335.889> 787 20G<214.541 335 370.676 491>
VStem: 45 141<148.845 443.75> 375 140<148.845 437.759>
LayerCount: 2
Back
Fore
SplineSet
154 659 m 1
 224 807 l 1
 335 807 l 1
 242 659 l 1
 154 659 l 1
311 659 m 1
 380 807 l 1
 491 807 l 1
 399 659 l 1
 311 659 l 1
280 601 m 0
 437 601 515 505 515 293 c 0
 515 82 437 -14 280 -14 c 0
 123 -14 45 82 45 293 c 0
 45 505 123 601 280 601 c 0
280 488 m 0
 211 488 186 428 186 314 c 2
 186 273 l 2
 186 159 211 100 280 100 c 0
 349 100 375 159 375 273 c 2
 375 314 l 2
 375 428 349 488 280 488 c 0
EndSplineSet
EndChar

StartChar: omacron
Encoding: 333 333 210
Width: 559
VWidth: 1263
GlyphClass: 2
Flags: W
HStem: -14 114<224.248 335.889> 488 113<224.248 335.889> 669 96<138 422>
VStem: 45 141<148.845 443.75> 375 140<148.845 437.759>
LayerCount: 2
Back
Fore
SplineSet
138 765 m 1
 422 765 l 1
 422 669 l 1
 138 669 l 1
 138 765 l 1
280 601 m 0
 437 601 515 505 515 293 c 0
 515 82 437 -14 280 -14 c 0
 123 -14 45 82 45 293 c 0
 45 505 123 601 280 601 c 0
280 488 m 0
 211 488 186 428 186 314 c 2
 186 273 l 2
 186 159 211 100 280 100 c 0
 349 100 375 159 375 273 c 2
 375 314 l 2
 375 428 349 488 280 488 c 0
EndSplineSet
EndChar

StartChar: oslash
Encoding: 248 248 211
Width: 559
VWidth: 1263
GlyphClass: 2
Flags: W
HStem: -14 114<226.38 335.889> 488 113<224.248 331.649>
VStem: 45 141<208.492 443.75> 375 140<148.845 382.851>
AnchorPoint: "Anchor-1" 0 0 basechar 0
AnchorPoint: "Anchor-0" 280 587 basechar 0
LayerCount: 2
Back
Fore
SplineSet
515 293 m 0
 515 82 437 -14 280 -14 c 0
 236 -14 199 -5 167 10 c 1
 141 -35 l 1
 58 -35 l 1
 109 56 l 1
 67 107 45 184 45 293 c 0
 45 505 123 601 280 601 c 0
 323 601 362 592 392 577 c 1
 417 623 l 1
 500 623 l 1
 451 533 l 1
 494 482 515 403 515 293 c 0
280 488 m 0
 211 488 186 428 186 314 c 2
 186 273 l 2
 186 246 187 225 188 205 c 1
 332 470 l 1
 319 481 301 488 280 488 c 0
280 100 m 0
 349 100 375 159 375 273 c 2
 375 314 l 2
 375 341 373 364 370 385 c 1
 226 119 l 1
 240 106 257 100 280 100 c 0
EndSplineSet
EndChar

StartChar: oslashacute
Encoding: 511 511 212
Width: 559
VWidth: 1263
GlyphClass: 2
Flags: W
HStem: -14 114<226.38 335.889> 488 113<224.248 331.649> 787 20G<286.027 433>
VStem: 45 141<208.492 443.75> 375 140<148.845 382.851>
LayerCount: 2
Back
Fore
SplineSet
313 659 m 1
 203 659 l 1
 299 807 l 1
 433 807 l 1
 313 659 l 1
515 293 m 0
 515 82 437 -14 280 -14 c 0
 236 -14 199 -5 167 10 c 1
 141 -35 l 1
 58 -35 l 1
 109 56 l 1
 67 107 45 184 45 293 c 0
 45 505 123 601 280 601 c 0
 323 601 362 592 392 577 c 1
 417 623 l 1
 500 623 l 1
 451 533 l 1
 494 482 515 403 515 293 c 0
280 488 m 0
 211 488 186 428 186 314 c 2
 186 273 l 2
 186 246 187 225 188 205 c 1
 332 470 l 1
 319 481 301 488 280 488 c 0
280 100 m 0
 349 100 375 159 375 273 c 2
 375 314 l 2
 375 341 373 364 370 385 c 1
 226 119 l 1
 240 106 257 100 280 100 c 0
EndSplineSet
EndChar

StartChar: otilde
Encoding: 245 245 213
Width: 559
VWidth: 1263
GlyphClass: 2
Flags: W
HStem: -14 114<224.248 335.889> 488 113<224.248 335.889> 671 94<279.708 387.839> 712 95<174.879 279.708>
VStem: 45 141<148.845 443.75> 92 75<671 706.574> 375 140<148.845 437.759> 394 73<771.798 807>
LayerCount: 2
Back
Fore
SplineSet
467 807 m 1xd5
 467 746 437 671 357 671 c 0xe5
 303.992488817 670.716400238 261.670057666 710.972368311 210 712 c 0xd5
 187 712 171 701 167 671 c 1
 92 671 l 1xe5
 92 733 124 807 202 807 c 0xd5
 256.259062678 807.070183784 299.296924346 766.434892962 351 765 c 0xe5
 374 765 390 775 394 807 c 1
 467 807 l 1xd5
280 601 m 0
 437 601 515 505 515 293 c 0
 515 82 437 -14 280 -14 c 0
 123 -14 45 82 45 293 c 0xca
 45 505 123 601 280 601 c 0
280 488 m 0
 211 488 186 428 186 314 c 2
 186 273 l 2
 186 159 211 100 280 100 c 0
 349 100 375 159 375 273 c 2
 375 314 l 2
 375 428 349 488 280 488 c 0
EndSplineSet
EndChar

StartChar: oe
Encoding: 339 339 214
Width: 863
VWidth: 1263
GlyphClass: 2
Flags: W
HStem: -14 114<224.248 336.453 548.609 655.527> 260 97<517 673> 491 110<229.471 332.978 550.046 645.986>
VStem: 45 141<148.845 443.75> 375 140<144.005 260 357 443.75> 673 140<357 458.376> 681 132<125.305 207>
AnchorPoint: "Anchor-1" 0 0 basechar 0
AnchorPoint: "Anchor-0" 432 587 basechar 0
LayerCount: 2
Back
Fore
SplineSet
601 601 m 0xfa
 744 601 813 505 813 293 c 2
 813 260 l 1
 515 260 l 1
 516 155 540 96 606 96 c 0
 651 96 681 138 681 207 c 1
 813 207 l 1
 813 57 726 -14 606 -14 c 0
 537 -14 484 10 446 59 c 1
 407 10 351 -14 280 -14 c 0
 123 -14 45 82 45 293 c 0
 45 505 123 601 280 601 c 0
 351 601 407 578 445 527 c 1
 483 578 534 601 601 601 c 0xfa
601 491 m 0
 544 491 522 442 517 357 c 1
 673 357 l 1xfc
 673 442 650 491 601 491 c 0
280 488 m 0
 211 488 186 428 186 314 c 2
 186 273 l 2
 186 159 211 100 280 100 c 0
 349 100 375 159 375 273 c 2
 375 314 l 2
 375 428 349 488 280 488 c 0
EndSplineSet
EndChar

StartChar: p
Encoding: 112 112 215
Width: 559
VWidth: 1263
GlyphClass: 2
Flags: W
HStem: -14 123<249.974 337.38> 479 122<245.63 336.827> 567 20G<62 176.889>
VStem: 62 139<-193 61 141.874 446.126> 374 140<148.687 437.759>
LayerCount: 2
Back
Fore
SplineSet
325 601 m 0xd8
 441 601 514 505 514 293 c 0
 514 80 436 -14 332 -14 c 0
 273 -14 222 14 201 61 c 1
 201 -193 l 1
 62 -193 l 1
 62 587 l 1
 173 587 l 1xb8
 187 515 l 1
 216 572 269 601 325 601 c 0xd8
284 479 m 0xd8
 220 479 196 420 196 314 c 2
 196 274 l 2
 196 168 220 109 284 109 c 0
 350 109 374 167 374 273 c 2
 374 314 l 2
 374 420 350 479 284 479 c 0xd8
EndSplineSet
EndChar

StartChar: thorn
Encoding: 254 254 216
Width: 559
VWidth: 1263
GlyphClass: 2
Flags: W
HStem: -14 123<249.974 337.38> 479 122<249.632 336.827> 787 20G<62 196>
VStem: 62 134<-193 61 149.164 438.836 522 807> 374 140<148.687 437.759>
LayerCount: 2
Back
Fore
SplineSet
325 601 m 0
 441 601 514 505 514 293 c 0
 514 80 436 -14 332 -14 c 0
 273 -14 222 14 201 61 c 1
 201 -193 l 1
 62 -193 l 1
 62 807 l 1
 196 807 l 1
 196 522 l 1
 225 575 272 601 325 601 c 0
374 314 m 2
 374 420 350 479 284 479 c 0
 220 479 196 420 196 314 c 2
 196 274 l 2
 196 168 220 109 284 109 c 0
 350 109 374 167 374 273 c 2
 374 314 l 2
EndSplineSet
EndChar

StartChar: q
Encoding: 113 113 217
Width: 559
VWidth: 1263
GlyphClass: 2
Flags: W
HStem: -14 123<221.837 311.741> 479 122<222.889 311.548> 567 20G<381 498>
VStem: 45 141<148.687 437.759> 364 134<-193 61 149.164 438.836>
LayerCount: 2
Back
Fore
SplineSet
235 601 m 0xd8
 291 601 339 572 368 515 c 1
 386 587 l 1
 498 587 l 1xb8
 498 -193 l 1
 364 -193 l 1
 364 61 l 1
 343 14 286 -14 227 -14 c 0
 123 -14 45 80 45 293 c 0
 45 505 119 601 235 601 c 0xd8
274 479 m 0xd8
 210 479 186 420 186 314 c 2
 186 273 l 2
 186 167 210 109 274 109 c 0
 340 109 364 168 364 274 c 2
 364 314 l 2
 364 420 340 479 274 479 c 0xd8
EndSplineSet
EndChar

StartChar: r
Encoding: 114 114 218
Width: 356
VWidth: 1263
GlyphClass: 2
Flags: W
HStem: 0 21G<62 196> 462 139<238.019 351.985> 567 20G<62 176.488>
VStem: 62 134<0 420.422>
AnchorPoint: "Anchor-1" 178 0 basechar 0
AnchorPoint: "Anchor-0" 178 587 basechar 0
LayerCount: 2
Back
Fore
SplineSet
297 601 m 0xd0
 332 601 352 592 352 592 c 1
 352 462 l 1
 304 462 l 2xd0
 246 462 196 431 196 327 c 2
 196 0 l 1
 62 0 l 1
 62 587 l 1
 173 587 l 1xb0
 188 501 l 1
 203 550 238 601 297 601 c 0xd0
EndSplineSet
EndChar

StartChar: racute
Encoding: 341 341 219
Width: 356
VWidth: 1263
GlyphClass: 2
Flags: W
HStem: 0 21G<62 196> 462 139<238.019 351.985> 567 20G<62 176.488> 787 20G<130.027 278>
VStem: 62 134<0 420.422>
LayerCount: 2
Back
Fore
SplineSet
159 659 m 1x98
 47 659 l 1
 143 807 l 1
 278 807 l 1
 159 659 l 1x98
297 601 m 0xd8
 332 601 352 592 352 592 c 1
 352 462 l 1
 304 462 l 2xd8
 246 462 196 431 196 327 c 2
 196 0 l 1
 62 0 l 1
 62 587 l 1
 173 587 l 1xb8
 188 501 l 1
 203 550 238 601 297 601 c 0xd8
EndSplineSet
EndChar

StartChar: rcaron
Encoding: 345 345 220
Width: 356
VWidth: 1263
GlyphClass: 2
Flags: W
HStem: 0 21G<62 196> 462 139<238.019 351.985> 567 20G<62 176.488> 787 20G<-25 87.987 161.273 274>
VStem: 62 134<0 420.422>
LayerCount: 2
Back
Fore
SplineSet
-25 807 m 1x98
 75 807 l 1
 125 730 l 1
 174 807 l 1
 274 807 l 1
 179 657 l 1
 71 657 l 1
 -25 807 l 1x98
297 601 m 0xd8
 332 601 352 592 352 592 c 1
 352 462 l 1
 304 462 l 2xd8
 246 462 196 431 196 327 c 2
 196 0 l 1
 62 0 l 1
 62 587 l 1
 173 587 l 1xb8
 188 501 l 1
 203 550 238 601 297 601 c 0xd8
EndSplineSet
EndChar

StartChar: rcommaaccent
Encoding: 343 343 221
Width: 356
VWidth: 1263
GlyphClass: 2
Flags: W
HStem: 0 21G<62 196> 462 139<238.019 351.985> 567 20G<62 176.488>
VStem: 62 134<0 420.422> 66 139<-187 -62>
LayerCount: 2
Back
Fore
SplineSet
297 601 m 0xd0
 332 601 352 592 352 592 c 1
 352 462 l 1
 304 462 l 2xd0
 246 462 196 431 196 327 c 2
 196 0 l 1
 62 0 l 1
 62 587 l 1
 173 587 l 1xb0
 188 501 l 1
 203 550 238 601 297 601 c 0xd0
66 -198 m 1x88
 66 -62 l 1
 205 -62 l 1
 205 -187 l 1
 153 -293 l 1
 81 -293 l 1
 120 -198 l 1
 66 -198 l 1x88
EndSplineSet
EndChar

StartChar: s
Encoding: 115 115 222
Width: 508
VWidth: 1263
GlyphClass: 2
Flags: W
HStem: -14 110<204.028 316.746> 491 110<196.509 299.666>
VStem: 38 136<124.239 187> 45 137<391.986 475.381> 332 137<114.575 206.644>
AnchorPoint: "Anchor-1" 255 0 basechar 0
AnchorPoint: "Anchor-0" 255 587 basechar 0
LayerCount: 2
Back
Fore
SplineSet
255 601 m 0xd8
 375.095738154 600.018991302 468.687141607 534.824049618 453 416 c 1
 317 416 l 1
 316 465 291 491 251 491 c 0
 209 491 182 468 182 433 c 0xd8
 182 386 230 374 288 360 c 0
 369 339 469 313 469 177 c 0
 469 34 375 -14 250 -14 c 0
 110.385262352 -13.0861954706 30.3353964363 65.98082695 38 187 c 1
 174 187 l 1xe8
 175 125 216 96 255 96 c 0
 290 96 332 111 332 159 c 0
 332 212 281 228 220 244 c 0
 140 267 45 292 45 422 c 0
 45 542 139 601 255 601 c 0xd8
EndSplineSet
EndChar

StartChar: sacute
Encoding: 347 347 223
Width: 508
VWidth: 1263
GlyphClass: 2
Flags: W
HStem: -14 110<204.028 316.746> 491 110<196.509 299.666> 787 20G<261.027 408>
VStem: 38 136<124.239 187> 45 137<391.986 475.381> 332 137<114.575 206.644>
LayerCount: 2
Back
Fore
SplineSet
288 659 m 1xe4
 178 659 l 1
 274 807 l 1
 408 807 l 1
 288 659 l 1xe4
255 601 m 0
 375.095738154 600.018991302 468.687141607 534.824049618 453 416 c 1
 317 416 l 1
 316 465 291 491 251 491 c 0
 209 491 182 468 182 433 c 0xec
 182 386 230 374 288 360 c 0
 369 339 469 313 469 177 c 0
 469 34 375 -14 250 -14 c 0
 110.385262352 -13.0861954706 30.3353964363 65.98082695 38 187 c 1
 174 187 l 1xf4
 175 125 216 96 255 96 c 0
 290 96 332 111 332 159 c 0
 332 212 281 228 220 244 c 0
 140 267 45 292 45 422 c 0xec
 45 542 139 601 255 601 c 0
EndSplineSet
EndChar

StartChar: scaron
Encoding: 353 353 224
Width: 508
VWidth: 1263
GlyphClass: 2
Flags: W
HStem: -14 110<204.028 316.746> 491 110<196.509 299.666> 787 20G<105 218.727 291.273 405>
VStem: 38 136<124.239 187> 45 137<391.986 475.381> 332 137<114.575 206.644>
LayerCount: 2
Back
Fore
SplineSet
201 657 m 1xe4
 105 807 l 1
 206 807 l 1
 255 730 l 1
 304 807 l 1
 405 807 l 1
 311 657 l 1
 201 657 l 1xe4
255 601 m 0
 375.095738154 600.018991302 468.687141607 534.824049618 453 416 c 1
 317 416 l 1
 316 465 291 491 251 491 c 0
 209 491 182 468 182 433 c 0xec
 182 386 230 374 288 360 c 0
 369 339 469 313 469 177 c 0
 469 34 375 -14 250 -14 c 0
 110.385262352 -13.0861954706 30.3353964363 65.98082695 38 187 c 1
 174 187 l 1xf4
 175 125 216 96 255 96 c 0
 290 96 332 111 332 159 c 0
 332 212 281 228 220 244 c 0
 140 267 45 292 45 422 c 0xec
 45 542 139 601 255 601 c 0
EndSplineSet
EndChar

StartChar: scedilla
Encoding: 351 351 225
Width: 508
VWidth: 1263
GlyphClass: 2
Flags: W
HStem: -203 63<149.27 264.957> -195 55<148 239.453> -86 182<201.693 264.988> 491 110<196.509 299.666>
VStem: 38 136<125.858 187> 45 137<391.986 475.381> 192 85<-40.1041 -11.02> 266 96<-137.957 -87.7718> 332 137<113.848 206.644>
LayerCount: 2
Back
Fore
SplineSet
255 601 m 0xb480
 375.095738154 600.018991302 468.687141607 534.824049618 453 416 c 1
 317 416 l 1
 316 465 291 491 251 491 c 0
 209 491 182 468 182 433 c 0
 182 386 230 374 288 360 c 0
 369 339 469 313 469 177 c 0
 469 43 388 -5 277 -13 c 1
 277 -37 l 1xb680
 325 -41 362 -61 362 -112 c 0
 362 -188 289 -203 241 -203 c 0xb1
 208 -203 175 -200 148 -195 c 1
 148 -140 l 1x71
 226 -140 l 2
 251 -140 266 -133 266 -112 c 0xb1
 266 -94 257 -86 229 -86 c 2
 192 -86 l 1
 192 -10 l 1
 82.807638449 6.09287695991 31.7338728376 79.3745967472 38 187 c 1
 174 187 l 1xba
 175 125 216 96 255 96 c 0
 290 96 332 111 332 159 c 0
 332 212 281 228 220 244 c 0
 140 267 45 292 45 422 c 0
 45 542 139 601 255 601 c 0xb480
EndSplineSet
Substitution2: "'locl' Localized Forms in Latin lookup 6 subtable" scommaaccent
Substitution2: "'locl' Localized Forms in Latin lookup 5 subtable" scommaaccent
Substitution2: "'aalt' Access All Alternates lookup 0 subtable" scommaaccent
EndChar

StartChar: scircumflex
Encoding: 349 349 226
Width: 508
VWidth: 1263
GlyphClass: 2
Flags: W
HStem: -14 110<204.028 316.746> 491 110<196.509 299.666> 787 20G<188.2 323.533>
VStem: 38 136<124.239 187> 45 137<391.986 475.381> 332 137<114.575 206.644>
LayerCount: 2
Back
Fore
SplineSet
304 657 m 1xe4
 255 734 l 1
 206 657 l 1
 105 657 l 1
 201 807 l 1
 311 807 l 1
 405 657 l 1
 304 657 l 1xe4
255 601 m 0
 375.095738154 600.018991302 468.687141607 534.824049618 453 416 c 1
 317 416 l 1
 316 465 291 491 251 491 c 0
 209 491 182 468 182 433 c 0xec
 182 386 230 374 288 360 c 0
 369 339 469 313 469 177 c 0
 469 34 375 -14 250 -14 c 0
 110.385262352 -13.0861954706 30.3353964363 65.98082695 38 187 c 1
 174 187 l 1xf4
 175 125 216 96 255 96 c 0
 290 96 332 111 332 159 c 0
 332 212 281 228 220 244 c 0
 140 267 45 292 45 422 c 0xec
 45 542 139 601 255 601 c 0
EndSplineSet
EndChar

StartChar: scommaaccent
Encoding: 537 537 227
Width: 508
VWidth: 1263
GlyphClass: 2
Flags: W
HStem: -14 110<204.028 316.746> 491 110<196.509 299.666>
VStem: 38 136<124.239 187> 45 137<391.986 475.381> 186 139<-187 -62> 332 137<114.575 206.644>
AnchorPoint: "Anchor-1" 255 0 basechar 0
AnchorPoint: "Anchor-0" 255 587 basechar 0
LayerCount: 2
Back
Fore
SplineSet
255 601 m 0xdc
 375.095738154 600.018991302 468.687141607 534.824049618 453 416 c 1
 317 416 l 1
 316 465 291 491 251 491 c 0
 209 491 182 468 182 433 c 0xdc
 182 386 230 374 288 360 c 0
 369 339 469 313 469 177 c 0
 469 34 375 -14 250 -14 c 0
 110.385262352 -13.0861954706 30.3353964363 65.98082695 38 187 c 1
 174 187 l 1xec
 175 125 216 96 255 96 c 0
 290 96 332 111 332 159 c 0
 332 212 281 228 220 244 c 0
 140 267 45 292 45 422 c 0
 45 542 139 601 255 601 c 0xdc
186 -198 m 1
 186 -62 l 1
 325 -62 l 1
 325 -187 l 1
 273 -293 l 1
 201 -293 l 1
 241 -198 l 1
 186 -198 l 1
EndSplineSet
EndChar

StartChar: germandbls
Encoding: 223 223 228
Width: 559
VWidth: 1263
GlyphClass: 2
Flags: W
HStem: 0 114<232 343.987> 361 127<232 332.438> 707 114<216.048 340.65>
VStem: 44 134<0 666.647> 370 135<528.312 675.957> 393 135<163.176 314.215>
LayerCount: 2
Back
Fore
SplineSet
284 821 m 0xf8
 410 821 505 742 505 611 c 0xf8
 505 538 461 466 399 441 c 1
 399 437 l 1
 475 409 528 325 528 239 c 0
 528 95 429 0 304 0 c 2
 232 0 l 1
 232 114 l 1
 290 114 l 2
 347 114 393 172 393 240 c 0xf4
 393 307 347 361 290 361 c 2
 232 361 l 1
 232 488 l 1
 287 488 l 2
 332 488 370 543 370 609 c 0
 370 667 339 707 278 707 c 0
 219 707 178 666 178 590 c 2
 178 0 l 1
 44 0 l 1
 44 581 l 2
 44 752 149 821 284 821 c 0xf8
EndSplineSet
EndChar

StartChar: longs
Encoding: 383 383 229
Width: 255
VWidth: 1263
GlyphClass: 2
Flags: W
HStem: 0 21G<69 203> 475 112<10 69> 703 113<208.35 302.999> 703 100<208.509 304>
VStem: 10 193<475 587> 69 134<0 475 587 694.997>
LayerCount: 2
Back
Fore
SplineSet
207 816 m 0xe4
 239 816 283 809 304 803 c 1
 304 703 l 1xd4
 250 703 l 2
 220 703 203 687 203 655 c 2
 203 0 l 1
 69 0 l 1
 69 475 l 1xe4
 10 475 l 1
 10 587 l 1xe8
 69 587 l 1
 69 659 l 2
 69 736 101 816 207 816 c 0xe4
EndSplineSet
EndChar

StartChar: t
Encoding: 116 116 230
Width: 304
VWidth: 1263
GlyphClass: 2
Flags: W
HStem: -14 114<208.35 287.098> 0 100<208.35 288> 475 112<10 69 203 288>
VStem: 69 134<107.604 475 587 642.333> 90 113<697.667 753>
AnchorPoint: "Anchor-1" 184 0 basechar 0
AnchorPoint: "Anchor-0" 0 0 basechar 0
LayerCount: 2
Back
Fore
SplineSet
288 475 m 1xb0
 203 475 l 1
 203 148 l 2
 203 116 220 100 250 100 c 2xb0
 288 100 l 1
 288 0 l 1x70
 269 -6 234 -14 207 -14 c 0
 101 -14 69 66 69 144 c 2
 69 475 l 1
 10 475 l 1
 10 587 l 1
 69 587 l 1xb0
 90 753 l 1
 203 753 l 1xa8
 203 587 l 1
 288 587 l 1
 288 475 l 1xb0
EndSplineSet
EndChar

StartChar: tbar
Encoding: 359 359 231
Width: 304
VWidth: 1263
GlyphClass: 2
Flags: W
HStem: -14 114<208.35 287.098> 0 100<208.35 288> 293 97<13 69 203 284> 475 112<10 69 203 288>
VStem: 10 278<293 390 475 587> 69 134<107.604 293 390 475 587 642.333> 90 113<697.667 753>
LayerCount: 2
Back
Fore
SplineSet
288 587 m 1xb8
 288 475 l 1xb8
 203 475 l 1
 203 390 l 1
 284 390 l 1
 284 293 l 1
 203 293 l 1
 203 148 l 2
 203 116 220 100 250 100 c 2xb4
 288 100 l 1
 288 0 l 1x78
 269 -6 234 -14 207 -14 c 0
 101 -14 69 66 69 144 c 2
 69 293 l 1
 13 293 l 1
 13 390 l 1
 69 390 l 1
 69 475 l 1xb4
 10 475 l 1
 10 587 l 1xb8
 69 587 l 1xb4
 90 753 l 1
 203 753 l 1xb2
 203 587 l 1xb4
 288 587 l 1xb8
EndSplineSet
EndChar

StartChar: tcaron
Encoding: 357 357 232
Width: 438
VWidth: 1263
GlyphClass: 2
Flags: W
HStem: -14 114<208.35 287.098> 0 100<208.35 288> 475 112<10 69 203 288> 745 20G<335 489>
VStem: 69 134<107.604 475 587 642.333> 90 113<697.667 753> 335 154<626 765>
LayerCount: 2
Back
Fore
SplineSet
335 613 m 1x32
 335 765 l 1
 489 765 l 1
 489 626 l 1
 428 475 l 1
 349 475 l 1
 397 613 l 1
 335 613 l 1x32
288 475 m 1
 203 475 l 1
 203 148 l 2
 203 116 220 100 250 100 c 2xba
 288 100 l 1
 288 0 l 1x7a
 269 -6 234 -14 207 -14 c 0
 101 -14 69 66 69 144 c 2
 69 475 l 1
 10 475 l 1
 10 587 l 1
 69 587 l 1xba
 90 753 l 1
 203 753 l 1xb6
 203 587 l 1xba
 288 587 l 1
 288 475 l 1
EndSplineSet
EndChar

StartChar: uni0163
Encoding: 355 355 233
Width: 304
VWidth: 1263
GlyphClass: 2
Flags: W
HStem: -203 63<76.2707 191.957> -195 55<75 166.499> -14 114<207.35 286.098> 0 100<207.35 287> 475 112<9 68 202 287>
VStem: 68 134<105.168 475 587 645.1> 88 114<694.9 753> 193 96<-138.059 -87.8416>
AnchorPoint: "Anchor-1" 184 0 basechar 0
AnchorPoint: "Anchor-0" 0 0 basechar 0
LayerCount: 2
Back
Fore
SplineSet
289 -112 m 0x29
 289 -188 216 -203 168 -203 c 0xa9
 136 -203 102 -200 75 -195 c 1
 75 -140 l 1x49
 154 -140 l 2
 178 -140 193 -133 193 -112 c 0x89
 193 -94 184 -86 155 -86 c 2
 119 -86 l 1
 130 5 l 1
 83 33 68 88 68 144 c 2
 68 475 l 1
 9 475 l 1
 9 587 l 1
 68 587 l 1x8c
 88 753 l 1
 202 753 l 1x8a
 202 587 l 1
 287 587 l 1
 287 475 l 1
 202 475 l 1
 202 148 l 2
 202 116 219 100 249 100 c 2xac
 287 100 l 1
 287 0 l 1x1c
 268 -6 233 -14 206 -14 c 1
 206 -37 l 1
 253.540493543 -41.1938732231 289 -61.3546326077 289 -112 c 0x29
EndSplineSet
Substitution2: "'locl' Localized Forms in Latin lookup 6 subtable" uni021B
Substitution2: "'locl' Localized Forms in Latin lookup 5 subtable" uni021B
Substitution2: "'aalt' Access All Alternates lookup 0 subtable" uni021B
EndChar

StartChar: uni021B
Encoding: 539 539 234
Width: 304
VWidth: 1263
GlyphClass: 2
Flags: W
HStem: -14 114<208.35 287.098> 0 100<208.35 288> 475 112<10 69 203 288>
VStem: 69 134<107.604 475 587 642.333> 83 139<-187 -62> 90 113<697.667 753>
LayerCount: 2
Back
Fore
SplineSet
288 475 m 1xb0
 203 475 l 1
 203 148 l 2
 203 116 220 100 250 100 c 2xb0
 288 100 l 1
 288 0 l 1x70
 269 -6 234 -14 207 -14 c 0
 101 -14 69 66 69 144 c 2
 69 475 l 1
 10 475 l 1
 10 587 l 1
 69 587 l 1xb0
 90 753 l 1
 203 753 l 1xa4
 203 587 l 1
 288 587 l 1
 288 475 l 1xb0
83 -198 m 1x28
 83 -62 l 1
 222 -62 l 1
 222 -187 l 1
 171 -293 l 1
 99 -293 l 1
 139 -198 l 1
 83 -198 l 1x28
EndSplineSet
EndChar

StartChar: u
Encoding: 117 117 235
Width: 559
VWidth: 1263
GlyphClass: 2
Flags: W
HStem: -14 123<171.8 302.842> 0 21G<382.389 498> 567 20G<62 196 364 498>
VStem: 62 134<133.5 587> 364 134<147.73 587>
AnchorPoint: "Anchor-1" 0 0 basechar 0
AnchorPoint: "Anchor-0" 280 587 basechar 0
LayerCount: 2
Back
Fore
SplineSet
217 -14 m 0xb8
 127 -14 62 37 62 176 c 2
 62 587 l 1
 196 587 l 1
 196 212 l 2
 196 136 222 109 273 109 c 0xb8
 325 109 364 158 364 224 c 2
 364 587 l 1
 498 587 l 1
 498 0 l 1
 386 0 l 1x78
 373 72 l 1
 343 27 288 -14 217 -14 c 0xb8
EndSplineSet
EndChar

StartChar: uacute
Encoding: 250 250 236
Width: 559
VWidth: 1263
GlyphClass: 2
Flags: W
HStem: -14 123<171.8 302.842> 0 21G<382.389 498> 567 20G<62 196 364 498> 787 20G<286.027 433>
VStem: 62 134<133.5 587> 364 134<147.73 587>
LayerCount: 2
Back
Fore
SplineSet
313 659 m 1x3c
 203 659 l 1
 299 807 l 1
 433 807 l 1
 313 659 l 1x3c
217 -14 m 0xbc
 127 -14 62 37 62 176 c 2
 62 587 l 1
 196 587 l 1
 196 212 l 2
 196 136 222 109 273 109 c 0xbc
 325 109 364 158 364 224 c 2
 364 587 l 1
 498 587 l 1
 498 0 l 1
 386 0 l 1x7c
 373 72 l 1
 343 27 288 -14 217 -14 c 0xbc
EndSplineSet
EndChar

StartChar: ubreve
Encoding: 365 365 237
Width: 559
VWidth: 1263
GlyphClass: 2
Flags: W
HStem: -14 123<171.8 302.842> 0 21G<382.389 498> 567 20G<62 196 364 498> 688 82<223.232 335.453> 787 20G<130 214.5 344.5 428>
VStem: 62 134<133.5 587> 364 134<147.73 587>
LayerCount: 2
Back
Fore
SplineSet
428 807 m 1x3e
 428 751 371 688 279 688 c 0
 188 688 130 751 130 807 c 1
 213 807 l 1
 216 792 242 770 279 770 c 0
 317 770 343 792 346 807 c 1
 428 807 l 1x3e
217 -14 m 0xbe
 127 -14 62 37 62 176 c 2
 62 587 l 1
 196 587 l 1
 196 212 l 2
 196 136 222 109 273 109 c 0xbe
 325 109 364 158 364 224 c 2
 364 587 l 1
 498 587 l 1
 498 0 l 1
 386 0 l 1x7e
 373 72 l 1
 343 27 288 -14 217 -14 c 0xbe
EndSplineSet
EndChar

StartChar: ucircumflex
Encoding: 251 251 238
Width: 559
VWidth: 1263
GlyphClass: 2
Flags: W
HStem: -14 123<171.8 302.842> 0 21G<382.389 498> 567 20G<62 196 364 498> 787 20G<213.2 347.533>
VStem: 62 134<133.5 587> 364 134<147.73 587>
LayerCount: 2
Back
Fore
SplineSet
280 734 m 1x3c
 230 657 l 1
 130 657 l 1
 226 807 l 1
 335 807 l 1
 429 657 l 1
 330 657 l 1
 280 734 l 1x3c
217 -14 m 0xbc
 127 -14 62 37 62 176 c 2
 62 587 l 1
 196 587 l 1
 196 212 l 2
 196 136 222 109 273 109 c 0xbc
 325 109 364 158 364 224 c 2
 364 587 l 1
 498 587 l 1
 498 0 l 1
 386 0 l 1x7c
 373 72 l 1
 343 27 288 -14 217 -14 c 0xbc
EndSplineSet
EndChar

StartChar: udieresis
Encoding: 252 252 239
Width: 559
VWidth: 1263
GlyphClass: 2
Flags: W
HStem: -14 123<171.8 302.842> 0 21G<382.389 498> 567 20G<62 196 364 498> 686 121<126 237 322 433>
VStem: 62 134<133.5 587> 126 111<686 807> 322 111<686 807> 364 134<147.73 587>
LayerCount: 2
Back
Fore
SplineSet
126 686 m 1x34
 126 807 l 1
 237 807 l 1
 237 686 l 1
 126 686 l 1x34
322 686 m 1x32
 322 807 l 1
 433 807 l 1
 433 686 l 1
 322 686 l 1x32
217 -14 m 0xb9
 127 -14 62 37 62 176 c 2
 62 587 l 1
 196 587 l 1
 196 212 l 2
 196 136 222 109 273 109 c 0xb9
 325 109 364 158 364 224 c 2
 364 587 l 1
 498 587 l 1
 498 0 l 1
 386 0 l 1x79
 373 72 l 1
 343 27 288 -14 217 -14 c 0xb9
EndSplineSet
EndChar

StartChar: ugrave
Encoding: 249 249 240
Width: 559
VWidth: 1263
GlyphClass: 2
Flags: W
HStem: -14 123<171.8 302.842> 0 21G<382.389 498> 567 20G<62 196 364 498>
VStem: 62 134<133.5 587> 364 134<147.73 587>
LayerCount: 2
Back
Fore
SplineSet
245 659 m 1x38
 123.032786885 805.360655738 l 1
 260 805.360655738 l 1
 356 659 l 1
 245 659 l 1x38
217 -14 m 0xb8
 127 -14 62 37 62 176 c 2
 62 587 l 1
 196 587 l 1
 196 212 l 2
 196 136 222 109 273 109 c 0xb8
 325 109 364 158 364 224 c 2
 364 587 l 1
 498 587 l 1
 498 0 l 1
 386 0 l 1x78
 373 72 l 1
 343 27 288 -14 217 -14 c 0xb8
EndSplineSet
EndChar

StartChar: uhungarumlaut
Encoding: 369 369 241
Width: 559
VWidth: 1263
GlyphClass: 2
Flags: W
HStem: -14 123<171.8 302.842> 0 21G<382.389 498> 567 20G<62 196 364 498> 787 20G<214.541 335 370.676 491>
VStem: 62 134<133.5 587> 364 134<147.73 587>
LayerCount: 2
Back
Fore
SplineSet
242 659 m 1x3c
 154 659 l 1
 224 807 l 1
 335 807 l 1
 242 659 l 1x3c
399 659 m 1
 311 659 l 1
 380 807 l 1
 491 807 l 1
 399 659 l 1
217 -14 m 0xbc
 127 -14 62 37 62 176 c 2
 62 587 l 1
 196 587 l 1
 196 212 l 2
 196 136 222 109 273 109 c 0xbc
 325 109 364 158 364 224 c 2
 364 587 l 1
 498 587 l 1
 498 0 l 1
 386 0 l 1x7c
 373 72 l 1
 343 27 288 -14 217 -14 c 0xbc
EndSplineSet
EndChar

StartChar: umacron
Encoding: 363 363 242
Width: 559
VWidth: 1263
GlyphClass: 2
Flags: W
HStem: -14 123<171.8 302.842> 0 21G<382.389 498> 567 20G<62 196 364 498> 669 96<138 422>
VStem: 62 134<133.5 587> 364 134<147.73 587>
LayerCount: 2
Back
Fore
SplineSet
138 765 m 1x3c
 422 765 l 1
 422 669 l 1
 138 669 l 1
 138 765 l 1x3c
217 -14 m 0xbc
 127 -14 62 37 62 176 c 2
 62 587 l 1
 196 587 l 1
 196 212 l 2
 196 136 222 109 273 109 c 0xbc
 325 109 364 158 364 224 c 2
 364 587 l 1
 498 587 l 1
 498 0 l 1
 386 0 l 1x7c
 373 72 l 1
 343 27 288 -14 217 -14 c 0xbc
EndSplineSet
EndChar

StartChar: uogonek
Encoding: 371 371 243
Width: 559
VWidth: 1263
GlyphClass: 2
Flags: W
HStem: -212 77<473.063 537.829> -197 62<473.876 539> -14 123<171.8 302.842> 567 20G<62 196 364 498>
VStem: 62 134<133.5 587> 355 110<-126.222 -33.8117> 364 134<147.73 587>
LayerCount: 2
Back
Fore
SplineSet
539 -135 m 1x7c
 539 -197 l 1x7c
 514 -207 490 -212 466 -212 c 0
 414 -212 355 -188 355 -111 c 0xbc
 355 -59 377 -28 404 0 c 1
 386 0 l 1
 373 72 l 1
 343 27 288 -14 217 -14 c 0
 127 -14 62 37 62 176 c 2
 62 587 l 1
 196 587 l 1
 196 212 l 2
 196 136 222 109 273 109 c 0
 325 109 364 158 364 224 c 2
 364 587 l 1
 498 587 l 1
 498 0 l 1xba
 485 -15 465 -46 465 -78 c 0
 465 -107 477 -135 515 -135 c 2xbc
 539 -135 l 1x7c
EndSplineSet
EndChar

StartChar: uring
Encoding: 367 367 244
Width: 559
VWidth: 1263
GlyphClass: 2
Flags: W
HStem: -14 123<171.8 302.842> 0 21G<382.389 498> 567 20G<62 196 364 498> 626 56<238.495 321.986> 784 57<237.94 322.77>
VStem: 62 134<133.5 587> 173 56<691.453 775.386> 332 56<692.241 773.629> 364 134<147.73 587>
LayerCount: 2
Back
Fore
SplineSet
280 841 m 0x3b
 341 841 388 792 388 734 c 0
 388 675 339 626 280 626 c 0
 222 626 173 673 173 734 c 0
 173 793 221 841 280 841 c 0x3b
280 784 m 0
 251 784 229 763 229 734 c 0
 229 705 251 682 280 682 c 0
 308 682 332 705 332 734 c 0
 332 763 308 784 280 784 c 0
217 -14 m 0xbc80
 127 -14 62 37 62 176 c 2
 62 587 l 1
 196 587 l 1
 196 212 l 2
 196 136 222 109 273 109 c 0xbc80
 325 109 364 158 364 224 c 2
 364 587 l 1
 498 587 l 1
 498 0 l 1
 386 0 l 1x7c80
 373 72 l 1
 343 27 288 -14 217 -14 c 0xbc80
EndSplineSet
EndChar

StartChar: utilde
Encoding: 361 361 245
Width: 559
VWidth: 1263
GlyphClass: 2
Flags: W
HStem: -14 123<171.8 302.842> 0 21G<382.389 498> 567 20G<62 196 364 498> 671 94<279.708 387.839> 712 95<174.879 279.708>
VStem: 62 134<133.5 587> 92 75<671 706.574> 364 134<147.73 587> 394 73<771.798 807>
LayerCount: 2
Back
Fore
SplineSet
467 807 m 1x2a80
 467 746 437 671 357 671 c 0x3280
 303.992488817 670.716400238 261.670057666 710.972368311 210 712 c 0x2a80
 187 712 171 701 167 671 c 1
 92 671 l 1x3280
 92 733 124 807 202 807 c 0x2a80
 256.259062678 807.070183784 299.296924346 766.434892962 351 765 c 0x3280
 374 765 390 775 394 807 c 1
 467 807 l 1x2a80
217 -14 m 0xa5
 127 -14 62 37 62 176 c 2
 62 587 l 1
 196 587 l 1
 196 212 l 2
 196 136 222 109 273 109 c 0xa5
 325 109 364 158 364 224 c 2
 364 587 l 1
 498 587 l 1
 498 0 l 1
 386 0 l 1x65
 373 72 l 1
 343 27 288 -14 217 -14 c 0xa5
EndSplineSet
EndChar

StartChar: v
Encoding: 118 118 246
Width: 508
VWidth: 1263
GlyphClass: 2
Flags: W
HStem: 0 21G<180.799 328.235> 567 20G<5 151.032 364.127 505>
LayerCount: 2
Back
Fore
SplineSet
187 0 m 1
 5 587 l 1
 145 587 l 1
 254.239030023 224.786374134 l 1
 258.239030023 203.786374134 253 180 258 159 c 1
 262 180 257.648899187 204.398953989 263.625804581 224.752739925 c 2
 370 587 l 1
 505 587 l 1
 322 0 l 1
 187 0 l 1
EndSplineSet
EndChar

StartChar: w
Encoding: 119 119 247
Width: 712
VWidth: 1263
GlyphClass: 2
Flags: W
HStem: 0 21G<139.128 283.043 429.857 574.804> 567 20G<1 139.647 288.95 432.033 582.802 711>
AnchorPoint: "Anchor-1" 0 0 basechar 0
AnchorPoint: "Anchor-0" 356 587 basechar 0
LayerCount: 2
Back
Fore
SplineSet
376 280 m 2
 363 339 364.905947592 425.008372295 364.905947592 425.008372295 c 1
 279 0 l 1
 144 0 l 1
 1 587 l 1
 135 587 l 1
 191 346 l 2
 209 266 207.263462642 163.566488969 207.263462642 163.566488969 c 1
 293 587 l 1
 428 587 l 1
 477 344 l 1
 490 287 498.021751825 163.044817518 498.021751825 163.044817518 c 1
 587 587 l 1
 711 587 l 1
 570 0 l 1
 434 0 l 1
 376 280 l 2
EndSplineSet
EndChar

StartChar: wacute
Encoding: 7811 7811 248
Width: 712
VWidth: 1263
GlyphClass: 2
Flags: W
HStem: 0 21G<139.128 283.043 429.857 574.804> 567 20G<1 139.647 288.95 432.033 582.802 711> 787 20G<362.027 510>
LayerCount: 2
Back
Fore
SplineSet
390 659 m 1
 279 659 l 1
 375 807 l 1
 510 807 l 1
 390 659 l 1
434 0 m 1
 376 280 l 2
 363 339 364.905947592 425.008372295 364.905947592 425.008372295 c 1
 279 0 l 1
 144 0 l 1
 1 587 l 1
 135 587 l 1
 191 346 l 2
 209 266 207.263462642 163.566488969 207.263462642 163.566488969 c 1
 293 587 l 1
 428 587 l 1
 477 344 l 1
 490 287 498.021751825 163.044817518 498.021751825 163.044817518 c 1
 587 587 l 1
 711 587 l 1
 570 0 l 1
 434 0 l 1
EndSplineSet
EndChar

StartChar: wcircumflex
Encoding: 373 373 249
Width: 712
VWidth: 1263
GlyphClass: 2
Flags: W
HStem: 0 21G<139.128 283.043 429.857 574.804> 567 20G<1 139.647 288.95 432.033 582.802 711> 787 20G<290.2 424.533>
LayerCount: 2
Back
Fore
SplineSet
357 734 m 1
 307 657 l 1
 207 657 l 1
 303 807 l 1
 412 807 l 1
 506 657 l 1
 407 657 l 1
 357 734 l 1
376 280 m 2
 363 339 364.905947592 425.008372295 364.905947592 425.008372295 c 1
 279 0 l 1
 144 0 l 1
 1 587 l 1
 135 587 l 1
 191 346 l 2
 209 266 207.263462642 163.566488969 207.263462642 163.566488969 c 1
 293 587 l 1
 428 587 l 1
 477 344 l 1
 490 287 498.021751825 163.044817518 498.021751825 163.044817518 c 1
 587 587 l 1
 711 587 l 1
 570 0 l 1
 434 0 l 1
 376 280 l 2
EndSplineSet
EndChar

StartChar: wdieresis
Encoding: 7813 7813 250
Width: 712
VWidth: 1263
GlyphClass: 2
Flags: W
HStem: 0 21G<139.128 283.043 429.857 574.804> 567 20G<1 139.647 288.95 432.033 582.802 711> 686 121<203 314 399 510>
VStem: 203 111<686 807> 399 111<686 807>
LayerCount: 2
Back
Fore
SplineSet
203 686 m 1
 203 807 l 1
 314 807 l 1
 314 686 l 1
 203 686 l 1
399 686 m 1
 399 807 l 1
 510 807 l 1
 510 686 l 1
 399 686 l 1
434 0 m 1
 376 280 l 2
 363 339 364.905947592 425.008372295 364.905947592 425.008372295 c 1
 279 0 l 1
 144 0 l 1
 1 587 l 1
 135 587 l 1
 191 346 l 2
 209 266 207.263462642 163.566488969 207.263462642 163.566488969 c 1
 293 587 l 1
 428 587 l 1
 477 344 l 1
 490 287 498.021751825 163.044817518 498.021751825 163.044817518 c 1
 587 587 l 1
 711 587 l 1
 570 0 l 1
 434 0 l 1
EndSplineSet
EndChar

StartChar: wgrave
Encoding: 7809 7809 251
Width: 712
VWidth: 1263
GlyphClass: 2
Flags: W
HStem: 0 21G<139.128 283.043 429.857 574.804> 567 20G<1 139.647 288.95 432.033 582.802 711>
LayerCount: 2
Back
Fore
SplineSet
322 659 m 1
 200.032786885 805.360655738 l 1
 337 805.360655738 l 1
 433 659 l 1
 322 659 l 1
434 0 m 1
 376 280 l 2
 363 339 364.905947592 425.008372295 364.905947592 425.008372295 c 1
 279 0 l 1
 144 0 l 1
 1 587 l 1
 135 587 l 1
 191 346 l 2
 209 266 207.263462642 163.566488969 207.263462642 163.566488969 c 1
 293 587 l 1
 428 587 l 1
 477 344 l 1
 490 287 498.021751825 163.044817518 498.021751825 163.044817518 c 1
 587 587 l 1
 711 587 l 1
 570 0 l 1
 434 0 l 1
EndSplineSet
EndChar

StartChar: x
Encoding: 120 120 252
Width: 508
VWidth: 1263
GlyphClass: 2
Flags: W
HStem: 0 21G<5 159.769 341.949 504> 567 20G<19 181.235 340.059 495>
LayerCount: 2
Back
Fore
SplineSet
504 0 m 1
 352 0 l 1
 254 195 l 1
 149 0 l 1
 5 0 l 1
 176 303 l 1
 19 587 l 1
 171 587 l 1
 258 417 l 1
 351 587 l 1
 495 587 l 1
 336 307 l 1
 504 0 l 1
EndSplineSet
EndChar

StartChar: y
Encoding: 121 121 253
Width: 508
VWidth: 1263
GlyphClass: 2
Flags: W
HStem: -203 112<49 161.294> 567 20G<5 153.4 364.783 505>
AnchorPoint: "Anchor-1" 0 0 basechar 0
AnchorPoint: "Anchor-0" 255 587 basechar 0
LayerCount: 2
Back
Fore
SplineSet
136 -203 m 0
 82 -203 49 -194 49 -193 c 2
 49 -91 l 1
 110 -91 l 2
 148 -91 185 -64 200 0 c 1
 5 587 l 1
 147 587 l 1
 235 312 l 2
 245 279 250 245 256 211 c 0
 259 193 254.771681416 178.624778761 258.771681416 160.624778761 c 1
 370 587 l 1
 505 587 l 1
 344 30 l 2
 307 -98 248 -203 136 -203 c 0
EndSplineSet
EndChar

StartChar: yacute
Encoding: 253 253 254
Width: 508
VWidth: 1263
GlyphClass: 2
Flags: W
HStem: -203 112<49 161.294> 567 20G<5 153.4 364.783 505> 787 20G<261.027 408>
LayerCount: 2
Back
Fore
SplineSet
288 659 m 1
 178 659 l 1
 274 807 l 1
 408 807 l 1
 288 659 l 1
136 -203 m 0
 82 -203 49 -194 49 -193 c 2
 49 -91 l 1
 110 -91 l 2
 148 -91 185 -64 200 0 c 1
 5 587 l 1
 147 587 l 1
 235 312 l 2
 245 279 250 245 256 211 c 0
 259 193 254.771681416 178.624778761 258.771681416 160.624778761 c 1
 370 587 l 1
 505 587 l 1
 344 30 l 2
 307 -98 248 -203 136 -203 c 0
EndSplineSet
EndChar

StartChar: ycircumflex
Encoding: 375 375 255
Width: 508
VWidth: 1263
GlyphClass: 2
Flags: W
HStem: -203 112<49 161.294> 567 20G<5 153.4 364.783 505> 787 20G<188.2 323.533>
LayerCount: 2
Back
Fore
SplineSet
255 734 m 1
 206 657 l 1
 105 657 l 1
 201 807 l 1
 311 807 l 1
 405 657 l 1
 304 657 l 1
 255 734 l 1
136 -203 m 0
 82 -203 49 -194 49 -193 c 2
 49 -91 l 1
 110 -91 l 2
 148 -91 185 -64 200 0 c 1
 5 587 l 1
 147 587 l 1
 235 312 l 2
 245 279 250 245 256 211 c 0
 259 193 254.771681416 178.624778761 258.771681416 160.624778761 c 1
 370 587 l 1
 505 587 l 1
 344 30 l 2
 307 -98 248 -203 136 -203 c 0
EndSplineSet
EndChar

StartChar: ydieresis
Encoding: 255 255 256
Width: 508
VWidth: 1263
GlyphClass: 2
Flags: W
HStem: -203 112<49 161.294> 567 20G<5 153.4 364.783 505> 686 121<101 213 297 409>
VStem: 101 112<686 807> 297 112<686 807>
LayerCount: 2
Back
Fore
SplineSet
101 686 m 1
 101 807 l 1
 213 807 l 1
 213 686 l 1
 101 686 l 1
297 686 m 1
 297 807 l 1
 409 807 l 1
 409 686 l 1
 297 686 l 1
136 -203 m 0
 82 -203 49 -194 49 -193 c 2
 49 -91 l 1
 110 -91 l 2
 148 -91 185 -64 200 0 c 1
 5 587 l 1
 147 587 l 1
 235 312 l 2
 245 279 250 245 256 211 c 0
 259 193 254.771681416 178.624778761 258.771681416 160.624778761 c 1
 370 587 l 1
 505 587 l 1
 344 30 l 2
 307 -98 248 -203 136 -203 c 0
EndSplineSet
EndChar

StartChar: ygrave
Encoding: 7923 7923 257
Width: 508
VWidth: 1263
GlyphClass: 2
Flags: W
HStem: -203 112<49 161.294> 567 20G<5 153.4 364.783 505> 787 20G<101 248.973>
LayerCount: 2
Back
Fore
SplineSet
101 807 m 1
 236 807 l 1
 332 659 l 1
 221 659 l 1
 101 807 l 1
136 -203 m 0
 82 -203 49 -194 49 -193 c 2
 49 -91 l 1
 110 -91 l 2
 148 -91 185 -64 200 0 c 1
 5 587 l 1
 147 587 l 1
 235 312 l 2
 245 279 250 245 256 211 c 0
 259 193 254.771681416 178.624778761 258.771681416 160.624778761 c 1
 370 587 l 1
 505 587 l 1
 344 30 l 2
 307 -98 248 -203 136 -203 c 0
EndSplineSet
EndChar

StartChar: z
Encoding: 122 122 258
Width: 457
VWidth: 1263
GlyphClass: 2
Flags: W
HStem: 0 112<201 438> 475 112<34 248>
AnchorPoint: "Anchor-1" 0 0 basechar 0
AnchorPoint: "Anchor-0" 229 587 basechar 0
LayerCount: 2
Back
Fore
SplineSet
438 112 m 1
 438 0 l 1
 20 0 l 1
 20 57 l 1
 248 475 l 1
 34 475 l 1
 34 587 l 1
 429 587 l 1
 429 532 l 1
 201 112 l 1
 438 112 l 1
EndSplineSet
EndChar

StartChar: zacute
Encoding: 378 378 259
Width: 457
VWidth: 1263
GlyphClass: 2
Flags: W
HStem: 0 112<201 438> 475 112<34 248> 787 20G<235.027 381>
LayerCount: 2
Back
Fore
SplineSet
263 659 m 1
 152 659 l 1
 248 807 l 1
 381 807 l 1
 263 659 l 1
438 112 m 1
 438 0 l 1
 20 0 l 1
 20 57 l 1
 248 475 l 1
 34 475 l 1
 34 587 l 1
 429 587 l 1
 429 532 l 1
 201 112 l 1
 438 112 l 1
EndSplineSet
EndChar

StartChar: zcaron
Encoding: 382 382 260
Width: 457
VWidth: 1263
GlyphClass: 2
Flags: W
HStem: 0 112<201 438> 475 112<34 248> 787 20G<80 192.247 266.273 380>
LayerCount: 2
Back
Fore
SplineSet
80 807 m 1
 179 807 l 1
 230 730 l 1
 279 807 l 1
 380 807 l 1
 284 657 l 1
 176 657 l 1
 80 807 l 1
438 112 m 1
 438 0 l 1
 20 0 l 1
 20 57 l 1
 248 475 l 1
 34 475 l 1
 34 587 l 1
 429 587 l 1
 429 532 l 1
 201 112 l 1
 438 112 l 1
EndSplineSet
EndChar

StartChar: zdotaccent
Encoding: 380 380 261
Width: 457
VWidth: 1263
GlyphClass: 2
Flags: W
HStem: 0 112<201 438> 475 112<34 248> 678 129<169 289>
VStem: 169 120<678 807>
LayerCount: 2
Back
Fore
SplineSet
169 807 m 1
 289 807 l 1
 289 678 l 1
 169 678 l 1
 169 807 l 1
438 112 m 1
 438 0 l 1
 20 0 l 1
 20 57 l 1
 248 475 l 1
 34 475 l 1
 34 587 l 1
 429 587 l 1
 429 532 l 1
 201 112 l 1
 438 112 l 1
EndSplineSet
EndChar

StartChar: fi
Encoding: 64257 64257 262
Width: 559
VWidth: 1263
GlyphClass: 3
Flags: W
HStem: 0 21G<69 203 365 499> 475 112<10 69 203 304> 686 121<365 499> 703 113<208.35 302.999> 703 100<208.509 304>
VStem: 69 134<0 475 587 694.997> 365 134<0 587 686 807>
LayerCount: 2
Back
Fore
SplineSet
207 816 m 0xd6
 239 816 283 809 304 803 c 1
 304 703 l 1xce
 250 703 l 2
 220 703 203 687 203 655 c 2
 203 587 l 1
 304 587 l 1
 304 475 l 1
 203 475 l 1
 203 0 l 1
 69 0 l 1
 69 475 l 1
 10 475 l 1
 10 587 l 1
 69 587 l 1
 69 659 l 2
 69 736 101 816 207 816 c 0xd6
365 807 m 1xe6
 499 807 l 1
 499 686 l 1
 365 686 l 1
 365 807 l 1xe6
365 587 m 1
 499 587 l 1
 499 0 l 1
 365 0 l 1
 365 587 l 1
EndSplineSet
Ligature2: "'liga' Standard Ligatures lookup 14 subtable" f i
EndChar

StartChar: fl
Encoding: 64258 64258 263
Width: 559
VWidth: 1263
GlyphClass: 3
Flags: W
HStem: 0 21G<69 203 365 499> 475 112<10 69 203 304> 703 113<208.35 302.999> 703 100<208.509 304> 787 20G<365 499>
VStem: 69 134<0 475 587 694.997> 365 134<0 807>
LayerCount: 2
Back
Fore
SplineSet
207 816 m 0xe6
 239 816 283 809 304 803 c 1
 304 703 l 1xd6
 250 703 l 2
 220 703 203 687 203 655 c 2
 203 587 l 1
 304 587 l 1
 304 475 l 1
 203 475 l 1
 203 0 l 1
 69 0 l 1
 69 475 l 1
 10 475 l 1
 10 587 l 1
 69 587 l 1
 69 659 l 2
 69 736 101 816 207 816 c 0xe6
365 807 m 1xce
 499 807 l 1
 499 0 l 1
 365 0 l 1
 365 807 l 1xce
EndSplineSet
Ligature2: "'liga' Standard Ligatures lookup 14 subtable" f l
EndChar

StartChar: ordfeminine
Encoding: 170 170 264
Width: 338
VWidth: 1263
GlyphClass: 2
Flags: W
HStem: 405 80<96.3946 190.902 303.494 341.527> 417 69<304.133 342> 590 65<130.773 207> 741 79<132.625 204.265>
VStem: 15 97<488.696 570.211> 35 94<693 737.008> 207 96<497.184 590 655 737.78>
LayerCount: 2
Back
Fore
SplineSet
168 820 m 0xb6
 260 820 303 777 303 702 c 2
 303 513 l 2
 303 494 314 486 325 486 c 2
 342 486 l 1
 342 417 l 1x76
 332 412 316 405 289 405 c 0
 254 405 229 427 220 457 c 1
 197 425 168 405 115 405 c 0
 78 405 15 425 15 517 c 0xba
 15 623 95 655 207 655 c 1
 207 697 l 2
 207 721 203 741 171 741 c 0
 138 741 129 721 129 705 c 2
 129 693 l 1
 35 693 l 1
 26.4578748049 771.882701768 81.546809556 818.914160599 168 820 c 0xb6
207 590 m 1
 159 590 112 576 112 524 c 0
 112 500 125 485 153 485 c 0xba
 192 485 207 523 207 567 c 2
 207 590 l 1
EndSplineSet
EndChar

StartChar: ordmasculine
Encoding: 186 186 265
Width: 333
VWidth: 1263
GlyphClass: 2
Flags: W
HStem: 404 82<127.516 211.126> 738 82<130.165 210.606>
VStem: 11 100<504.136 718.728> 229 99<504.136 718.728>
LayerCount: 2
Back
Fore
SplineSet
169 820 m 0
 275 820 328 755 328 611 c 0
 328 468 275 404 169 404 c 0
 63 404 11 468 11 611 c 0
 11 755 63 820 169 820 c 0
169 738 m 0
 126 738 111 698 111 626 c 2
 111 597 l 2
 111 524 126 486 169 486 c 0
 213 486 229 524 229 597 c 2
 229 626 l 2
 229 698 213 738 169 738 c 0
EndSplineSet
EndChar

StartChar: nsuperior
Encoding: 8319 8319 266
Width: 362
VWidth: 1263
GlyphClass: 2
Flags: W
HStem: 734 86<160.689 254.64>
VStem: 34 96<416 718.182> 34 81<763 811> 232 96<416 727.857>
LayerCount: 2
Back
Fore
SplineSet
224 820 m 0xb0
 285 820 328 785 328 692 c 2
 328 416 l 1
 232 416 l 1
 232 668 l 2
 232 716 216 734 187 734 c 0
 154 734 130 701 130 659 c 2
 130 416 l 1
 34 416 l 1xd0
 34 811 l 1
 115 811 l 1
 115 763 l 1
 129 763 l 1
 148 793 179 820 224 820 c 0xb0
EndSplineSet
EndChar

StartChar: Delta
Encoding: 916 916 267
Width: 658
VWidth: 1263
GlyphClass: 2
Flags: W
HStem: 0 128<172 469> 745 20G<234.542 414.43>
LayerCount: 2
Back
Fore
SplineSet
634 0 m 1
 14 0 l 1
 14 62 l 1
 241 765 l 1
 408 765 l 1
 634 62 l 1
 634 0 l 1
172 128 m 1
 469 128 l 1
 322 604 l 1
 172 128 l 1
EndSplineSet
Position2: "'cpsp' Capital Spacing lookup 0 subtable" dx=6 dy=0 dh=13 dv=0
EndChar

StartChar: Omega
Encoding: 937 937 268
Width: 857
VWidth: 1263
GlyphClass: 2
Flags: W
HStem: 0 128<110 218.793 635.211 745> 0 91<341.439 385 470 517.084> 657 122<346.865 508.541>
VStem: 110 145<243.334 545.445> 599 146<246.286 545.445>
LayerCount: 2
Back
Fore
SplineSet
717 128 m 2xb8
 745 128 l 1
 745 0 l 1xb8
 470 0 l 1
 470 91 l 1
 556 112 599 200 599 331 c 2
 599 410 l 2
 599 563 542 657 428 657 c 0
 313 657 255 563 255 410 c 2
 255 331 l 2
 255 201 300 115 385 91 c 1
 385 0 l 1x78
 110 0 l 1
 110 128 l 1
 138 128 l 1
 160.677327539 125.496530545 194.382986074 114.75038611 220 111 c 1
 153 168 110 258 110 383 c 0
 110 653 230 779 428 779 c 0
 625 779 745 653 745 383 c 0
 745 258 701 168 634 111 c 1
 659.709644406 114.986166697 693.699764586 128 717 128 c 2xb8
EndSplineSet
Position2: "'cpsp' Capital Spacing lookup 0 subtable" dx=6 dy=0 dh=13 dv=0
EndChar

StartChar: mu
Encoding: 956 956 269
Width: 559
VWidth: 1263
GlyphClass: 2
Flags: W
HStem: 0 21G<382.389 498> 567 20G<62 196 364 498>
VStem: 62 134<-193 -5 129.064 587> 364 134<147.73 587>
LayerCount: 2
Back
Fore
SplineSet
373 72 m 1
 342.509143847 16.6225901408 272.915218113 -34.8303784719 196 -5 c 1
 196 -193 l 1
 62 -193 l 1
 62 587 l 1
 196 587 l 1
 196 212 l 2
 196 136 222 109 273 109 c 0
 325 109 364 158 364 224 c 2
 364 587 l 1
 498 587 l 1
 498 0 l 1
 386 0 l 1
 373 72 l 1
EndSplineSet
EndChar

StartChar: pi
Encoding: 960 960 270
Width: 700
VWidth: 1263
GlyphClass: 2
Flags: W
HStem: 0 21G<85 235.5 424 562> 475 112<45.6754 157 288.744 413 547 649>
VStem: 157 133<255.867 475> 413 134<1.60412 475>
LayerCount: 2
Back
Fore
SplineSet
547 174 m 2
 547 82 553 34 562 0 c 1
 429 0 l 1
 419 18 413 74 413 164 c 2
 413 475 l 1
 290 475 l 1
 282 341 254 92 217 0 c 1
 85 0 l 1
 122 111 153 341 157 475 c 1
 88 475 62 470 35 460 c 1
 23 553 l 1
 52 574 105 587 201 587 c 2
 649 587 l 1
 649 475 l 1
 547 475 l 1
 547 174 l 2
EndSplineSet
EndChar

StartChar: uni0904
Encoding: 2308 2308 271
Width: 807
VWidth: 1263
GlyphClass: 2
Flags: W
HStem: 0 21G<586 720> 54 113<193.724 285.749> 275 118<446 585> 368 111<192 273.985> 648 117<482 585 720 820> 669 112<199.475 282.572> 868 116<255.31 580.945>
VStem: 39 137<183.2 273> 52 135<567 655.193> 296 138<500.687 657.77> 306 140<186.013 274.274> 586 134<0 275 393 648 765 863.681>
AnchorPoint: "Anchor-5" 0 0 basechar 0
AnchorPoint: "Anchor-4" 416 0 basechar 0
AnchorPoint: "Anchor-3" 653 0 basechar 0
AnchorPoint: "Anchor-2" 654 765 basechar 0
LayerCount: 2
Back
Fore
SplineSet
720 648 m 1xead0
 720 0 l 1
 586 0 l 1
 586 275 l 1
 446 275 l 1
 446 256 l 2
 446 131 364 54 240 54 c 0
 98.1462749911 54.4598758807 17.78403229 141.098029132 39 273 c 1
 176 273 l 1
 176 245 l 2
 176 194 199 167 241 167 c 0
 280 167 306 196 306 263 c 0xeb30
 306 346 269 368 229 368 c 2
 192 368 l 1
 192 479 l 1
 230 479 l 2
 269 479 296 513 296 586 c 0
 296 642 278 669 241 669 c 0
 204 669 187 642 187 590 c 2
 187 567 l 1
 52 567 l 1
 27.2971252606 697.041200263 112.013549884 780.246193127 240 781 c 0xd6d0
 357 781 434 713 434 590 c 0
 434 508 398 461 344 431 c 1
 344 427 l 1
 363 419 380 408 395 393 c 1
 585 393 l 1
 585 648 l 1
 482 648 l 1
 482 765 l 1
 586 765 l 1
 586 836 l 2
 586 859 574 868 549 868 c 2
 287 868 l 2
 168 868 117 912 117 1017 c 2
 117 1045 l 1
 251 1045 l 1
 251 1017 l 2
 251 994 262 984 287 984 c 2
 549 984 l 2
 669 984 720 940 720 836 c 2
 720 765 l 1
 820 765 l 1
 820 648 l 1
 720 648 l 1xead0
EndSplineSet
MultipleSubs2: "'nukt' Nukta Forms lookup 18 subtable" adeva eshortvowelsigndeva
EndChar

StartChar: uni0972
Encoding: 2418 2418 272
Width: 807
VWidth: 1263
GlyphClass: 2
Flags: W
HStem: 0 21G<586 720> 54 113<193.724 285.749> 275 118<446 585> 368 111<192 273.985> 648 117<482 585 720 821> 669 112<199.475 282.572> 801 96<594.733 706.975>
VStem: 39 137<183.2 273> 52 135<567 655.193> 296 138<500.687 657.77> 306 140<186.013 274.274> 450 116<925.443 1002> 586 134<0 275 393 648> 736 118<925.005 1002>
AnchorPoint: "Anchor-5" 0 0 basechar 0
AnchorPoint: "Anchor-4" 416 0 basechar 0
AnchorPoint: "Anchor-3" 652 0 basechar 0
AnchorPoint: "Anchor-2" 652 765 basechar 0
LayerCount: 2
Back
Fore
SplineSet
650 801 m 0xc21c
 526 801 450 883 450 1002 c 1
 566 1002 l 1
 566 929 601 897 650 897 c 0
 703 897 736 929 736 1002 c 1
 854 1002 l 1
 854 883 776 801 650 801 c 0xc21c
821 765 m 1xeadc
 821 648 l 1
 720 648 l 1
 720 0 l 1
 586 0 l 1
 586 275 l 1
 446 275 l 1
 446 256 l 2
 446 131 364 54 240 54 c 0
 98.1462749911 54.4598758807 17.78403229 141.098029132 39 273 c 1
 176 273 l 1
 176 245 l 2
 176 194 199 167 241 167 c 0
 280 167 306 196 306 263 c 0xeb3c
 306 346 269 368 229 368 c 2
 192 368 l 1
 192 479 l 1
 230 479 l 2
 269 479 296 513 296 586 c 0
 296 642 278 669 241 669 c 0
 204 669 187 642 187 590 c 2
 187 567 l 1
 52 567 l 1
 27.2971252606 697.041200263 112.013549884 780.246193127 240 781 c 0xd6dc
 357 781 434 713 434 590 c 0
 434 508 398 461 344 431 c 1
 344 427 l 1
 363 419 380 408 395 393 c 1
 585 393 l 1
 585 648 l 1
 482 648 l 1
 482 765 l 1
 821 765 l 1xeadc
EndSplineSet
MultipleSubs2: "'nukt' Nukta Forms lookup 18 subtable" adeva ecandravowelsigndeva
EndChar

StartChar: adeva
Encoding: 2309 2309 273
Width: 807
VWidth: 1263
GlyphClass: 2
Flags: W
HStem: 0 21G<586 720> 54 113<193.724 285.749> 275 118<446 585> 368 111<192 273.985> 648 117<482 585 720 820> 669 112<199.475 282.572>
VStem: 39 137<183.2 273> 52 135<567 655.193> 296 138<500.687 657.77> 306 140<186.013 274.274> 586 134<0 275 393 648>
AnchorPoint: "Anchor-5" 0 0 basechar 0
AnchorPoint: "Anchor-4" 416 0 basechar 0
AnchorPoint: "Anchor-3" 652 0 basechar 0
AnchorPoint: "Anchor-2" 652 765 basechar 0
LayerCount: 2
Back
Fore
SplineSet
720 648 m 1xe9a0
 720 0 l 1
 586 0 l 1
 586 275 l 1
 446 275 l 1
 446 256 l 2
 446 131 364 54 240 54 c 0
 98.1462749911 54.4598758807 17.78403229 141.098029132 39 273 c 1
 176 273 l 1
 176 245 l 2
 176 194 199 167 241 167 c 0
 280 167 306 196 306 263 c 0xea60
 306 346 269 368 229 368 c 2
 192 368 l 1
 192 479 l 1
 230 479 l 2
 269 479 296 513 296 586 c 0
 296 642 278 669 241 669 c 0
 204 669 187 642 187 590 c 2
 187 567 l 1
 52 567 l 1
 27.2971252606 697.041200263 112.013549884 780.246193127 240 781 c 0xd5a0
 357 781 434 713 434 590 c 0
 434 508 398 461 344 431 c 1
 344 427 l 1
 363 419 380 408 395 393 c 1
 585 393 l 1
 585 648 l 1
 482 648 l 1
 482 765 l 1
 820 765 l 1
 820 648 l 1
 720 648 l 1xe9a0
EndSplineSet
EndChar

StartChar: aadeva
Encoding: 2310 2310 274
Width: 1132
VWidth: 1263
GlyphClass: 2
Flags: W
HStem: 0 21G<586 720 904 1038> 54 113<193.724 285.749> 275 118<446 585> 368 111<192 273.985> 648 117<482 585 720 904 1038 1146> 669 112<199.475 282.572>
VStem: 39 137<183.2 273> 52 135<567 655.193> 296 138<500.687 657.77> 306 140<186.013 274.274> 586 134<0 275 393 648> 904 134<0 648>
AnchorPoint: "Anchor-5" 0 0 basechar 0
AnchorPoint: "Anchor-4" 416 0 basechar 0
AnchorPoint: "Anchor-3" 975 0 basechar 0
AnchorPoint: "Anchor-2" 975 765 basechar 0
LayerCount: 2
Back
Fore
SplineSet
1038 648 m 1xe9b0
 1038 0 l 1
 904 0 l 1
 904 648 l 1
 720 648 l 1
 720 0 l 1
 586 0 l 1
 586 275 l 1
 446 275 l 1
 446 256 l 2
 446 131 364 54 240 54 c 0
 98.1462749911 54.4598758807 17.78403229 141.098029132 39 273 c 1
 176 273 l 1
 176 245 l 2
 176 194 199 167 241 167 c 0
 280 167 306 196 306 263 c 0xea70
 306 346 269 368 229 368 c 2
 192 368 l 1
 192 479 l 1
 230 479 l 2
 269 479 296 513 296 586 c 0
 296 642 278 669 241 669 c 0
 204 669 187 642 187 590 c 2
 187 567 l 1
 52 567 l 1
 27.2971252606 697.041200263 112.013549884 780.246193127 240 781 c 0xd5b0
 357 781 434 713 434 590 c 0
 434 508 398 461 344 431 c 1
 344 427 l 1
 363 419 380 408 395 393 c 1
 585 393 l 1
 585 648 l 1
 482 648 l 1
 482 765 l 1
 1146 765 l 1
 1146 648 l 1
 1038 648 l 1xe9b0
EndSplineSet
MultipleSubs2: "'nukt' Nukta Forms lookup 18 subtable" adeva uni093E
EndChar

StartChar: ideva
Encoding: 2311 2311 275
Width: 575
VWidth: 1263
GlyphClass: 2
Flags: W
HStem: -15 111<229.955 378.249> 234 116<220.901 377.379> 447 118<220.901 349> 648 117<-13 349 482 589>
VStem: 48 123<-101 16> 76 136<361.016 436.262> 349 133<565 648> 397 136<116.32 215.678>
AnchorPoint: "Anchor-5" 0 0 basechar 0
AnchorPoint: "Anchor-4" 0 0 basechar 0
AnchorPoint: "Anchor-3" 307 0 basechar 0
AnchorPoint: "Anchor-2" 416 765 basechar 0
LayerCount: 2
Back
Fore
SplineSet
288 447 m 2xf6
 239 447 212 432 212 398 c 0xf6
 212 364 239 350 288 350 c 2
 331 350 l 2
 445 350 533 313 533 179 c 0
 533 34 435 -15 312 -15 c 0
 254 -15 208 -4 171 16 c 1
 171 -101 l 1
 48 -101 l 1
 48 187 l 1
 195 187 l 1
 195 133 238 96 306 96 c 0
 367 96 397 119 397 168 c 0xf9
 397 227 348 234 304 234 c 2
 292 234 l 2
 168 234 76 276 76 399 c 0
 76 522 168 565 292 565 c 2
 349 565 l 1
 349 648 l 1
 -13 648 l 1
 -13 765 l 1
 589 765 l 1
 589 648 l 1
 482 648 l 1
 482 447 l 1
 288 447 l 2xf6
EndSplineSet
EndChar

StartChar: iideva
Encoding: 2312 2312 276
Width: 575
VWidth: 1263
GlyphClass: 2
Flags: W
HStem: -15 111<230.955 379.249> 234 116<221.901 383.097> 447 118<221.901 350> 648 117<-11 342 482 589> 927 118<476.586 572>
VStem: 49 123<-101 16> 77 136<361.016 436.619> 312 134<784.025 900.425> 350 132<565 648> 398 136<116.32 216.233>
AnchorPoint: "Anchor-5" 0 0 basechar 0
AnchorPoint: "Anchor-4" 0 0 basechar 0
AnchorPoint: "Anchor-3" 380 0 basechar 0
AnchorPoint: "Anchor-2" 380 765 basechar 0
LayerCount: 2
Back
Fore
SplineSet
213 398 m 0xfa80
 213 364 240 350 289 350 c 2
 332 350 l 2
 446 350 534 313 534 179 c 0
 534 34 436 -15 313 -15 c 0
 255 -15 209 -4 172 16 c 1
 172 -101 l 1
 49 -101 l 1
 49 187 l 1
 196 187 l 1
 196 133 239 96 307 96 c 0
 368 96 398 119 398 168 c 0xfc40
 398 227 350 234 306 234 c 2
 293 234 l 2
 169 234 77 276 77 399 c 0
 77 522 169 565 293 565 c 2
 350 565 l 1
 350 648 l 1xfa80
 -11 648 l 1
 -11 765 l 1
 342 765 l 1
 322 807 312 847 312 882 c 0
 312 982 402 1045 536 1045 c 2
 572 1045 l 1
 572 927 l 1
 558 927 l 2
 483 927 446 898 446 846 c 0xf9
 446 819 452 794 467 765 c 1
 589 765 l 1
 589 648 l 1
 482 648 l 1
 482 447 l 1
 288 447 l 2
 239 447 213 432 213 398 c 0xfa80
EndSplineSet
MultipleSubs2: "'nukt' Nukta Forms lookup 18 subtable" ideva uni0930094D
EndChar

StartChar: udeva
Encoding: 2313 2313 277
Width: 524
VWidth: 1263
GlyphClass: 2
Flags: W
HStem: 53 112<188.125 315.66> 361 101<207 301.172> 648 117<-13 309.813 437 537>
VStem: 28 134<194.359 285> 328 134<489.609 630.245> 342 134<190.395 332.205>
AnchorPoint: "Anchor-5" 0 0 basechar 0
AnchorPoint: "Anchor-4" 0 0 basechar 0
AnchorPoint: "Anchor-3" 263 0 basechar 0
AnchorPoint: "Anchor-2" 263 765 basechar 0
LayerCount: 2
Back
Fore
SplineSet
537 648 m 1xf8
 437 648 l 1
 453 624 462 595 462 560 c 0xf8
 462 502 421 446 362 419 c 1
 362 416 l 1
 430 392 476 326 476 249 c 0
 476 132 388 53 255 53 c 0
 119 53 28 140 28 240 c 0
 28 259 29 271 32 285 c 1
 162 285 l 1
 162 261 l 2
 162 199 191 165 253 165 c 0
 310 165 342 194 342 255 c 0xf4
 342 341 299 361 245 361 c 2
 207 361 l 1
 207 462 l 1
 246 462 l 2
 295 462 328 496 328 567 c 0
 328 621 302 648 251 648 c 2
 -13 648 l 1
 -13 765 l 1
 537 765 l 1
 537 648 l 1xf8
EndSplineSet
EndChar

StartChar: uudeva
Encoding: 2314 2314 278
Width: 822
VWidth: 1263
GlyphClass: 2
Flags: W
HStem: 53 123<558 628.247> 53 112<188.835 332.211> 350 122<515.058 633.278> 361 101<207 301.172> 648 117<-13 309.813 437 835>
VStem: 28 135<190.903 285> 328 134<489.665 630.317> 661 133<208.57 325.367>
LayerCount: 2
Back
Fore
SplineSet
28 240 m 0x6f
 28 259 29 271 32 285 c 1
 163 285 l 1
 163 261 l 2
 163 194 193 165 265 165 c 0
 323 165 361 195 361 258 c 0
 361 341 306 361 245 361 c 2
 207 361 l 1
 207 462 l 1
 246 462 l 2x5f
 295 462 328 497 328 565 c 0
 328 622 302 648 251 648 c 2
 -13 648 l 1
 -13 765 l 1
 835 765 l 1
 835 648 l 1
 437 648 l 1
 453 624 462 595 462 560 c 0
 462 502 421 446 362 419 c 1
 362 416 l 1
 383 407 405 394 421 376 c 1
 444 425 490 472 582 472 c 0
 710 472 794 394 794 261 c 0
 794 116 702 53 578 53 c 0
 572 53 566 55 558 56 c 1
 558 176 l 1xaf
 620.424141556 177.052302884 661 209.267750131 661 269 c 0
 661 317 630 350 578 350 c 0
 500.22476766 350.216016085 489.510587714 295.134001217 475 232 c 0
 455 150 426 54 255 53 c 0
 119 53 28 140 28 240 c 0x6f
EndSplineSet
EndChar

StartChar: rvocalicdeva
Encoding: 2315 2315 279
Width: 930
VWidth: 1263
GlyphClass: 2
Flags: W
HStem: 0 21G<371 505> 445 112<37.7134 169.683> 445 102<37 117.225> 648 117<-13 371 505 943>
VStem: 371 134<0 201 385 648> 620 134<116.159 194.199> 724 123<296.365 361 490 542>
AnchorPoint: "Anchor-5" 0 0 basechar 0
AnchorPoint: "Anchor-4" 0 0 basechar 0
AnchorPoint: "Anchor-3" 438 0 basechar 0
AnchorPoint: "Anchor-2" 438 765 basechar 0
LayerCount: 2
Back
Fore
SplineSet
724 542 m 1xda
 847 542 l 1
 847 207 l 1xda
 822 207 l 2
 780 207 754 189 754 154 c 0
 754 119 780 101 822 101 c 0
 852 101 883 110 903 119 c 1
 903 4 l 1
 778.386571698 -48.8349928911 619.653797327 11.697213102 620 154 c 0xdc
 620 230 665 282 724 307 c 1
 724 361 l 1
 505 256 l 1
 505 0 l 1
 371 0 l 1
 371 201 l 1
 38 40 l 1
 38 171 l 1
 265 280 l 1
 236 342 l 1
 183 441 142 445 80 445 c 2xda
 37 445 l 1
 37 547 l 1xba
 52 552 81 557 119 557 c 0
 250 557 300 480 349 388 c 1
 371 342 l 1
 371 648 l 1
 -13 648 l 1
 -13 765 l 1
 943 765 l 1
 943 648 l 1
 505 648 l 1
 505 385 l 1
 724 490 l 1
 724 542 l 1xda
EndSplineSet
EndChar

